<svg width="450" height="300" viewBox="0 0 450 300" fill="none" xmlns="http://www.w3.org/2000/svg">
<path d="M63.534 144.978C63.8368 144.951 64.1279 144.848 64.38 144.678C64.6767 144.463 64.8889 144.151 64.98 143.796C65.0296 143.565 65.0478 143.329 65.034 143.094C65.034 142.842 65.034 142.572 65.034 142.284C65.034 139.968 65.088 136.644 65.124 132.546C65.124 131.518 65.136 130.444 65.16 129.324C65.16 128.76 65.16 128.19 65.16 127.608C65.1845 127.324 65.1845 127.039 65.16 126.756C65.1055 126.485 64.9743 126.235 64.782 126.036C64.5889 125.834 64.337 125.697 64.062 125.646C63.7604 125.624 63.4576 125.624 63.156 125.646H61.26H57.288H39.612C39.2569 125.654 38.9173 125.793 38.659 126.037C38.4007 126.281 38.2421 126.612 38.214 126.966L38.178 129.258C38.178 130.788 38.13 132.258 38.106 133.77C38.064 136.728 38.022 139.578 37.98 142.296V143.31C37.9584 143.617 38.034 143.924 38.196 144.186C38.3506 144.444 38.5872 144.642 38.868 144.75C39.1628 144.841 39.4726 144.874 39.78 144.846H43.524H50.25L59.982 144.894L62.628 144.924H63.318H63.552C63.4742 144.932 63.3958 144.932 63.318 144.924H62.628H59.982L50.25 144.978H43.524H39.762C39.4226 145.008 39.0805 144.974 38.754 144.876C38.4157 144.744 38.1293 144.506 37.938 144.198C37.7475 143.889 37.6574 143.528 37.68 143.166C37.68 142.83 37.68 142.494 37.68 142.152C37.716 139.434 37.752 136.584 37.788 133.626C37.788 132.15 37.83 130.626 37.854 129.114C37.854 128.346 37.854 127.578 37.89 126.798C37.9576 126.392 38.1661 126.023 38.4788 125.755C38.7914 125.487 39.1884 125.338 39.6 125.334H57.276H63.15C63.4684 125.325 63.7871 125.337 64.104 125.37C64.4323 125.431 64.7327 125.595 64.962 125.838C65.1866 126.073 65.3405 126.366 65.406 126.684C65.4325 126.985 65.4325 127.289 65.406 127.59C65.406 128.19 65.406 128.748 65.406 129.306C65.406 130.428 65.37 131.508 65.352 132.534C65.268 136.632 65.208 139.95 65.16 142.266C65.16 142.554 65.16 142.824 65.16 143.082C65.1673 143.324 65.1431 143.566 65.088 143.802C64.9794 144.173 64.7463 144.495 64.428 144.714C64.2337 144.843 64.0118 144.926 63.78 144.954C63.7001 144.977 63.6168 144.985 63.534 144.978Z" fill="#455A64"/>
<path d="M52.596 133.578L55.872 135.564L52.524 137.532L49.176 139.494L49.248 135.54L49.32 131.586L52.596 133.578Z" fill="#455A64"/>
<path d="M356.1 76.2C357.182 75.7212 358.099 74.9357 358.739 73.9407C359.379 72.9457 359.713 71.7849 359.7 70.602C359.7 67.26 357.18 64.536 354.042 64.518C350.904 64.5 348.354 67.206 348.342 70.548C348.317 71.7402 348.646 72.913 349.287 73.9188C349.927 74.9246 350.851 75.7183 351.942 76.2C343.206 77.52 343.602 87 343.602 87L364.26 87.096C364.26 87.096 364.764 77.532 356.1 76.2Z" fill="#08A9A0"/>
<path d="M233.661 54.8367L200.158 58.0156L202.301 80.6001L235.804 77.4213L233.661 54.8367Z" fill="white"/>
<path d="M235.8 77.4C235.8 77.4 235.8 77.256 235.746 76.98L235.62 75.78C235.512 74.718 235.356 73.188 235.158 71.226C234.768 67.302 234.21 61.674 233.538 54.822L233.67 54.936L200.178 58.2L200.316 58.032V58.2V58.392L200.352 58.764L200.424 59.52L200.568 61.014L200.844 63.972C201.028 65.928 201.21 67.852 201.39 69.744C201.744 73.524 202.086 77.16 202.41 80.598L202.254 80.472L226.374 78.252L233.28 77.652L235.122 77.49L235.602 77.454H235.8H235.65L235.188 77.502L233.388 77.694L226.524 78.384L202.326 80.748H202.182V80.604C201.852 77.16 201.504 73.53 201.138 69.75C200.958 67.862 200.776 65.938 200.592 63.978C200.496 63 200.4 62.01 200.31 61.02L200.166 59.526L200.076 58.8L200.04 58.428V58.236V58.062L200.184 57.888L233.688 54.738H233.814V54.864C234.414 61.752 234.954 67.41 235.314 71.364C235.482 73.308 235.62 74.832 235.71 75.888C235.752 76.392 235.782 76.788 235.806 77.088C235.83 77.388 235.8 77.4 235.8 77.4Z" fill="#455A64"/>
<path d="M233.664 54.84C233.591 54.9702 233.502 55.0911 233.4 55.2L232.608 56.118C231.894 56.934 230.892 58.074 229.656 59.472L219.744 70.56L219.654 70.656L219.546 70.584L218.652 70.014L205.536 61.614L201.6 58.998L200.532 58.284C200.405 58.2065 200.284 58.1182 200.172 58.02C200.311 58.0768 200.443 58.1471 200.568 58.23L201.666 58.896L205.674 61.392L218.838 69.726L219.732 70.326H219.528L229.5 59.304L232.53 56.016L233.358 55.134C233.453 55.0293 233.556 54.9311 233.664 54.84Z" fill="#455A64"/>
<path d="M159.18 81.792C159.115 81.0611 159.001 80.3354 158.838 79.62C158.625 78.7897 158.287 77.9966 157.836 77.268C157.253 76.2961 156.486 75.4465 155.58 74.766C154.404 73.876 153.024 73.2959 151.566 73.0789C150.107 72.8618 148.618 73.0149 147.234 73.524C145.603 74.1247 144.185 75.1907 143.154 76.59C142.043 78.0946 141.444 79.9157 141.444 81.786C141.444 83.6563 142.043 85.4773 143.154 86.982C144.182 88.3852 145.601 89.4538 147.234 90.054C149.161 90.7573 151.273 90.7684 153.207 90.0853C155.141 89.4022 156.778 88.0675 157.836 86.31C158.287 85.5813 158.625 84.7882 158.838 83.958C159 83.2444 159.114 82.5208 159.18 81.792C159.187 81.8397 159.187 81.8882 159.18 81.936V82.362C159.18 82.593 159.162 82.8237 159.126 83.052C159.093 83.3677 159.037 83.6805 158.958 83.988C158.759 84.8322 158.433 85.6413 157.992 86.388C156.93 88.2104 155.261 89.6016 153.277 90.3188C151.293 91.0361 149.12 91.0336 147.138 90.312C146.312 90.0339 145.535 89.629 144.834 89.112C144.093 88.5776 143.442 87.9273 142.908 87.186C141.755 85.6296 141.133 83.7439 141.133 81.807C141.133 79.87 141.755 77.9843 142.908 76.428C143.442 75.6866 144.093 75.0363 144.834 74.502C145.535 73.9849 146.312 73.5801 147.138 73.302C148.564 72.7842 150.098 72.6354 151.597 72.8693C153.096 73.1033 154.511 73.7123 155.712 74.64C156.631 75.3459 157.403 76.2243 157.986 77.226C158.431 77.9712 158.759 78.7807 158.958 79.626C159.037 79.9334 159.093 80.2463 159.126 80.562C159.162 80.7902 159.18 81.0209 159.18 81.252V81.678C159.184 81.7159 159.184 81.7541 159.18 81.792Z" fill="#263238"/>
<path d="M171.198 96.72C171.15 96.792 167.982 94.752 164.13 92.166C160.278 89.58 157.188 87.42 157.236 87.366C157.284 87.312 160.446 89.334 164.304 91.926C168.162 94.518 171.246 96.648 171.198 96.72Z" fill="#263238"/>
<path d="M197.718 113.22L190.71 105.678L192.978 103.572L197.82 108.774L207.978 98.778L210.15 100.986L197.718 113.22Z" fill="#08A9A0"/>
<path d="M394.326 106.002H394.662H395.082L395.682 106.08C396.963 106.288 398.17 106.817 399.192 107.616C400.83 108.907 401.89 110.795 402.138 112.866C402.198 113.466 402.198 114.096 402.198 114.732C402.198 115.368 402.198 116.034 402.198 116.718C402.198 118.08 402.198 119.526 402.198 121.038C402.198 122.55 402.198 124.152 402.198 125.838C402.198 126.666 402.198 127.518 402.198 128.382C402.24 129.276 402.151 130.172 401.934 131.04C401.567 132.443 400.82 133.718 399.775 134.724C398.73 135.729 397.428 136.427 396.012 136.74C395.022 136.911 394.016 136.973 393.012 136.926H366.228L366.336 136.884L360.294 142.926L360.024 143.196V136.8L360.18 136.956C359.517 136.98 358.853 136.956 358.194 136.884C357.534 136.8 356.887 136.632 356.268 136.386C355.051 135.896 353.974 135.111 353.136 134.101C352.298 133.091 351.725 131.889 351.468 130.602C351.357 129.974 351.304 129.337 351.312 128.7V126.834C351.312 124.362 351.312 121.926 351.312 119.55V116.022C351.276 114.867 351.312 113.711 351.42 112.56C351.6 111.429 352.022 110.351 352.656 109.398C353.268 108.49 354.06 107.719 354.984 107.132C355.909 106.546 356.944 106.157 358.026 105.99C359.053 105.893 360.085 105.861 361.116 105.894H372.3L388.452 105.948L372.3 106.002H361.116C360.099 105.97 359.081 106.004 358.068 106.104C356.469 106.346 354.989 107.092 353.844 108.234C352.699 109.376 351.948 110.854 351.702 112.452C351.597 113.589 351.565 114.731 351.606 115.872V119.4C351.606 121.8 351.606 124.2 351.606 126.684C351.553 127.922 351.604 129.162 351.756 130.392C352.015 131.617 352.562 132.763 353.352 133.734C354.579 135.219 356.325 136.182 358.236 136.428C358.882 136.495 359.531 136.517 360.18 136.494H360.336V142.8L360.072 142.686L366.12 136.644L366.162 136.602H366.228H393.012C394.006 136.652 395.002 136.592 395.982 136.422C396.923 136.219 397.817 135.838 398.616 135.3C400.149 134.264 401.255 132.708 401.73 130.92C401.938 130.097 402.029 129.249 402 128.4C402 127.536 402 126.684 402 125.856C402 124.194 402 122.598 402 121.056C402 119.514 402 118.098 402 116.736C402 116.052 402 115.392 402 114.75C402 114.108 402 113.49 401.958 112.902C401.725 110.866 400.697 109.004 399.096 107.724C398.095 106.921 396.909 106.383 395.646 106.158L395.076 106.062H394.662L394.326 106.002Z" fill="#263238"/>
<path d="M370.53 122.4C370.53 122.4 370.494 122.25 370.416 121.992C370.304 121.639 370.081 121.332 369.78 121.116C369.564 120.961 369.312 120.862 369.049 120.828C368.785 120.793 368.517 120.824 368.268 120.918C367.964 121.029 367.702 121.231 367.517 121.496C367.331 121.761 367.232 122.077 367.232 122.4C367.232 122.723 367.331 123.039 367.517 123.304C367.702 123.569 367.964 123.771 368.268 123.882C368.517 123.976 368.785 124.007 369.049 123.972C369.312 123.937 369.564 123.839 369.78 123.684C370.081 123.468 370.304 123.161 370.416 122.808C370.494 122.556 370.5 122.4 370.53 122.4C370.569 122.543 370.569 122.695 370.53 122.838C370.462 123.24 370.249 123.603 369.93 123.858C369.689 124.054 369.402 124.185 369.096 124.238C368.79 124.29 368.476 124.263 368.184 124.158C367.82 124.03 367.505 123.793 367.283 123.479C367.06 123.164 366.94 122.788 366.94 122.403C366.94 122.018 367.06 121.642 367.283 121.327C367.505 121.013 367.82 120.776 368.184 120.648C368.476 120.542 368.79 120.514 369.096 120.565C369.402 120.617 369.689 120.747 369.93 120.942C370.25 121.198 370.463 121.564 370.53 121.968C370.569 122.109 370.569 122.259 370.53 122.4Z" fill="#263238"/>
<path d="M378.48 122.34C378.436 122.208 378.4 122.074 378.372 121.938C378.259 121.584 378.036 121.275 377.736 121.056C377.519 120.901 377.266 120.802 377.002 120.767C376.737 120.733 376.468 120.764 376.218 120.858C375.917 120.973 375.659 121.177 375.476 121.442C375.294 121.707 375.196 122.021 375.196 122.343C375.196 122.665 375.294 122.979 375.476 123.244C375.659 123.509 375.917 123.713 376.218 123.828C376.469 123.92 376.738 123.949 377.002 123.914C377.267 123.878 377.519 123.779 377.736 123.624C378.035 123.406 378.257 123.1 378.372 122.748C378.4 122.61 378.436 122.474 378.48 122.34C378.48 122.34 378.534 122.496 378.48 122.778C378.408 123.179 378.195 123.54 377.88 123.798C377.64 123.994 377.352 124.125 377.046 124.178C376.74 124.23 376.426 124.203 376.134 124.098C375.77 123.97 375.455 123.733 375.233 123.419C375.01 123.104 374.89 122.728 374.89 122.343C374.89 121.958 375.01 121.582 375.233 121.267C375.455 120.953 375.77 120.716 376.134 120.588C376.426 120.482 376.74 120.454 377.046 120.505C377.352 120.557 377.639 120.687 377.88 120.882C378.195 121.142 378.408 121.506 378.48 121.908C378.534 122.184 378.498 122.34 378.48 122.34Z" fill="#263238"/>
<path d="M386.436 122.34C386.391 122.208 386.353 122.074 386.322 121.938C386.22 121.588 386.01 121.279 385.722 121.056C385.505 120.901 385.252 120.802 384.988 120.767C384.723 120.733 384.454 120.764 384.204 120.858C383.903 120.973 383.645 121.177 383.462 121.442C383.28 121.707 383.182 122.021 383.182 122.343C383.182 122.665 383.28 122.979 383.462 123.244C383.645 123.509 383.903 123.713 384.204 123.828C384.455 123.92 384.724 123.949 384.988 123.914C385.253 123.878 385.504 123.779 385.722 123.624C386.008 123.402 386.218 123.095 386.322 122.748C386.406 122.496 386.412 122.34 386.436 122.34C386.46 122.34 386.49 122.496 386.436 122.778C386.364 123.179 386.151 123.54 385.836 123.798C385.596 123.994 385.308 124.125 385.002 124.178C384.696 124.23 384.382 124.203 384.09 124.098C383.726 123.97 383.411 123.733 383.189 123.419C382.966 123.104 382.846 122.728 382.846 122.343C382.846 121.958 382.966 121.582 383.189 121.267C383.411 120.953 383.726 120.716 384.09 120.588C384.382 120.482 384.696 120.454 385.002 120.505C385.308 120.557 385.595 120.687 385.836 120.882C386.151 121.142 386.364 121.506 386.436 121.908C386.49 122.184 386.454 122.34 386.436 122.34Z" fill="#263238"/>
<path d="M93.27 81.144C93.27 75.996 87.87 72.744 82.344 75.312C81.097 75.8966 80.0767 76.8748 79.44 78.096C78.048 80.784 78.666 83.856 79.92 86.406L84.216 97.29C84.3524 97.6363 84.5899 97.9335 84.8976 98.143C85.2052 98.3525 85.5688 98.4645 85.941 98.4645C86.3132 98.4645 86.6768 98.3525 86.9844 98.143C87.2921 97.9335 87.5296 97.6363 87.666 97.29L91.866 86.346C93.336 83.004 93.27 81.144 93.27 81.144ZM88.086 85.632C84.378 87.786 80.622 83.802 82.65 79.866C82.9207 79.3426 83.3376 78.909 83.85 78.618C87.558 76.458 91.32 80.448 89.286 84.378C89.0157 84.9033 88.5989 85.3389 88.086 85.632Z" fill="#08A9A0"/>
<path d="M112.344 98.928C112.344 98.928 112.344 98.994 112.422 99.126C112.5 99.258 112.53 99.456 112.62 99.726L113.364 101.994C114.018 103.992 114.972 106.926 116.196 110.688L116.232 110.808H116.112L104.016 108.594H103.938V108.51L104.1 108.588C98.8188 112.534 92.3924 114.645 85.8 114.6C84.3074 114.576 82.818 114.452 81.342 114.228C79.8137 113.998 78.3039 113.659 76.824 113.214L74.586 112.398C74.2066 112.266 73.8376 112.105 73.482 111.918L72.39 111.396C69.4004 109.891 66.6733 107.914 64.314 105.54C61.8409 103.033 59.8318 100.108 58.38 96.9C56.219 92.2 55.3 87.0241 55.7109 81.8675C56.1219 76.7108 57.8491 71.7459 60.7273 67.4475C63.6055 63.1492 67.5385 59.6612 72.15 57.3173C76.7614 54.9733 81.8972 53.8518 87.066 54.06C94.5583 54.3283 101.682 57.3778 107.048 62.6137C112.413 67.8496 115.636 74.8965 116.088 82.38C116.317 85.4802 116.039 88.597 115.266 91.6079C114.789 93.5101 114.122 95.3595 113.274 97.128C112.98 97.728 112.746 98.19 112.578 98.478L112.32 98.934L112.548 98.478C112.71 98.16 112.938 97.704 113.22 97.098C114.042 95.3251 114.689 93.4764 115.152 91.578C115.899 88.5769 116.156 85.475 115.914 82.392C115.627 77.8624 114.315 73.4571 112.079 69.5078C109.842 65.5584 106.739 62.1681 103.002 59.592C98.0426 56.1893 92.1789 54.3478 86.1647 54.3039C80.1504 54.2601 74.2605 56.016 69.252 59.346C63.333 63.3122 59.0189 69.2555 57.0818 76.1121C55.1448 82.9687 55.7113 90.2909 58.68 96.768C60.1167 99.9451 62.1032 102.844 64.548 105.33C66.8832 107.68 69.5818 109.64 72.54 111.132L73.626 111.654C73.9764 111.843 74.3416 112.004 74.718 112.134L76.926 112.944C78.3937 113.389 79.8916 113.728 81.408 113.958C82.8701 114.181 84.3453 114.307 85.824 114.336C92.3623 114.379 98.7356 112.285 103.974 108.372L104.136 108.252V108.456L104.058 108.354L116.136 110.622L116.052 110.718L113.292 102L112.578 99.72C112.5 99.468 112.446 99.27 112.404 99.12C112.362 98.97 112.344 98.916 112.344 98.916V98.928Z" fill="#263238"/>
<path d="M306.87 73.746C306.787 73.3981 306.747 73.0415 306.75 72.684C306.731 72.2529 306.68 71.8239 306.6 71.4C306.528 70.8208 306.416 70.2474 306.264 69.684C305.889 68.1262 305.282 66.6336 304.464 65.256C303.407 63.4277 302.01 61.8187 300.348 60.516C298.347 58.9307 296.002 57.8373 293.502 57.324C290.636 56.7341 287.664 56.9184 284.892 57.858C283.39 58.3492 281.974 59.0697 280.692 59.994C279.339 60.9219 278.148 62.0651 277.164 63.378C275.038 66.1215 273.846 69.4733 273.762 72.9431C273.677 76.4129 274.706 79.8185 276.696 82.662C277.178 83.3439 277.708 83.9914 278.28 84.6C278.844 85.1808 279.445 85.724 280.08 86.226C281.311 87.2076 282.685 87.9947 284.154 88.56C286.875 89.6319 289.832 89.9612 292.722 89.514C295.246 89.1204 297.642 88.1401 299.718 86.652C301.442 85.4333 302.917 83.8956 304.062 82.122C304.939 80.7826 305.612 79.3207 306.06 77.784C306.239 77.2283 306.379 76.661 306.48 76.086C306.58 75.6678 306.649 75.2425 306.684 74.814C306.7 74.4543 306.758 74.0978 306.858 73.752C306.899 74.1088 306.899 74.4691 306.858 74.826C306.853 75.2625 306.813 75.6979 306.738 76.128C306.667 76.7195 306.553 77.3051 306.396 77.88C305.997 79.4734 305.353 80.9954 304.488 82.392C303.218 84.4582 301.521 86.2298 299.512 87.5883C297.503 88.9468 295.227 89.861 292.836 90.27C289.808 90.7698 286.701 90.4529 283.836 89.352C282.289 88.7742 280.838 87.9649 279.534 86.952C278.858 86.4263 278.216 85.8571 277.614 85.248C277.022 84.6063 276.473 83.9269 275.97 83.214C273.858 80.2173 272.766 76.6207 272.856 72.9557C272.946 69.2907 274.212 65.7517 276.468 62.862C277.002 62.172 277.583 61.5204 278.208 60.912C278.832 60.319 279.498 59.7716 280.2 59.274C281.548 58.3095 283.038 57.5606 284.616 57.054C287.53 56.0866 290.651 55.9209 293.652 56.574C296.018 57.0913 298.247 58.1083 300.188 59.557C302.129 61.0058 303.739 62.8526 304.908 64.974C305.71 66.418 306.281 67.979 306.6 69.6C306.734 70.1922 306.82 70.7941 306.858 71.4C306.913 71.8316 306.934 72.267 306.918 72.702C306.94 73.0507 306.924 73.4007 306.87 73.746Z" fill="#455A64"/>
<path d="M303.516 63.27C303.552 63.324 303.246 63.588 302.664 64.02L301.584 64.794C301.374 64.938 301.146 65.106 300.9 65.262L300.072 65.694C297.074 67.4057 293.665 68.2647 290.214 68.178L288.72 68.112L287.292 67.884C287.058 67.848 286.824 67.818 286.596 67.77L285.924 67.59C285.486 67.47 285.048 67.368 284.634 67.236C283.169 66.7432 281.761 66.0955 280.434 65.304C278.19 63.948 277.092 62.712 277.176 62.634C277.26 62.556 278.49 63.564 280.776 64.74C282.098 65.4198 283.477 65.982 284.898 66.42C285.294 66.54 285.714 66.63 286.14 66.738L286.782 66.894L287.448 66.996L288.816 67.2L290.238 67.254C293.547 67.3249 296.823 66.5897 299.784 65.112L300.624 64.746C300.876 64.614 301.11 64.476 301.332 64.35L302.472 63.75C303.102 63.384 303.474 63.222 303.516 63.27Z" fill="#455A64"/>
<path d="M276.684 83.658C276.648 83.61 276.954 83.346 277.536 82.908L278.616 82.134C278.826 81.99 279.054 81.822 279.3 81.666L280.128 81.234C283.127 79.5244 286.535 78.6675 289.986 78.756L291.48 78.822L292.908 79.044C293.142 79.086 293.376 79.116 293.604 79.164L294.276 79.338C294.714 79.464 295.152 79.566 295.566 79.698C297.031 80.1864 298.44 80.8321 299.766 81.624C302.01 82.986 303.108 84.222 303.024 84.3C302.94 84.378 301.71 83.37 299.424 82.194C298.103 81.5095 296.724 80.9452 295.302 80.508C294.9 80.394 294.48 80.304 294.06 80.196L293.418 80.034L292.752 79.932L291.384 79.734L289.962 79.674C286.651 79.604 283.372 80.3412 280.41 81.822L279.6 82.2C279.348 82.332 279.114 82.476 278.892 82.596L277.752 83.232C277.098 83.55 276.72 83.712 276.684 83.658Z" fill="#455A64"/>
<path d="M306.858 74.136C306.858 74.394 299.34 74.418 290.058 74.19C280.776 73.962 273.3 73.59 273.306 73.32C273.312 73.05 280.818 73.044 290.106 73.272C299.394 73.5 306.864 73.884 306.858 74.136Z" fill="#455A64"/>
<path d="M289.32 90.09C289.068 90.09 289.044 82.578 289.266 73.32C289.488 64.062 289.866 56.562 290.136 56.568C290.406 56.574 290.412 64.086 290.19 73.368C289.968 82.65 289.572 90.096 289.32 90.09Z" fill="#455A64"/>
<path d="M289.32 90.066C289.26 90.162 287.412 88.908 285.276 86.076C284.03 84.4086 283.021 82.5773 282.276 80.634C281.369 78.2354 280.93 75.6857 280.98 73.122C281.041 70.5538 281.616 68.0238 282.672 65.682C283.52 63.7835 284.622 62.0092 285.948 60.408C288.204 57.678 290.064 56.472 290.148 56.568C290.232 56.664 288.552 58.044 286.476 60.81C285.269 62.4184 284.262 64.1672 283.476 66.018C282.51 68.2696 281.983 70.6848 281.922 73.134C281.887 75.5866 282.293 78.0255 283.122 80.334C283.806 82.2265 284.723 84.0264 285.852 85.692C287.748 88.554 289.416 89.964 289.32 90.066Z" fill="#455A64"/>
<path d="M290.508 56.574C290.574 56.478 292.422 57.732 294.552 60.564C295.797 62.2314 296.807 64.0626 297.552 66.006C298.453 68.4082 298.893 70.9588 298.848 73.524C298.784 76.0899 298.209 78.6173 297.156 80.958C296.304 82.8541 295.202 84.6278 293.88 86.232C291.624 88.962 289.758 90.174 289.68 90.072C289.602 89.97 291.276 88.596 293.346 85.83C294.553 84.2215 295.56 82.4727 296.346 80.622C297.307 78.369 297.832 75.9544 297.894 73.506C297.929 71.0534 297.523 68.6145 296.694 66.306C296.007 64.4136 295.088 62.6139 293.958 60.948C292.08 58.086 290.4 56.676 290.508 56.574Z" fill="#455A64"/>
<path d="M273.342 98.316L273.138 98.37L272.538 98.514L270.21 99.06L261.294 101.1L261.174 101.13L261.21 101.01L264.486 89.166V89.082H264.6L264.504 89.238C261.797 84.8841 260.246 79.911 259.998 74.79C259.932 73.3575 259.964 71.9221 260.094 70.494C260.252 69.0106 260.509 67.5394 260.862 66.09C261.225 64.588 261.697 63.1142 262.272 61.68C262.608 60.966 262.944 60.246 263.286 59.526C263.458 59.1589 263.659 58.8058 263.886 58.47C264.09 58.122 264.294 57.774 264.486 57.426C266.251 54.5836 268.461 52.0433 271.032 49.902C273.748 47.6619 276.84 45.921 280.164 44.76C285.039 43.0238 290.279 42.5681 295.38 43.4365C300.482 44.3049 305.276 46.4684 309.302 49.7198C313.328 52.9711 316.452 57.2016 318.376 62.0061C320.299 66.8107 320.957 72.0285 320.286 77.16C319.355 84.6003 315.686 91.4269 309.994 96.3081C304.302 101.189 296.995 103.775 289.5 103.56C286.391 103.512 283.311 102.959 280.38 101.922C278.531 101.276 276.75 100.448 275.064 99.45C274.464 99.102 274.05 98.85 273.78 98.634L273.348 98.334L273.78 98.604C274.08 98.79 274.518 99.06 275.094 99.396C276.789 100.364 278.574 101.168 280.422 101.796C283.346 102.806 286.413 103.339 289.506 103.374C294.771 103.49 299.975 102.221 304.595 99.6935C309.215 97.166 313.091 93.4691 315.833 88.9728C318.575 84.4765 320.088 79.3387 320.219 74.0738C320.351 68.809 319.098 63.6019 316.584 58.974C313.169 52.7178 307.638 47.8818 300.983 45.3323C294.327 42.7827 286.981 42.6862 280.26 45.06C276.965 46.2082 273.898 47.9286 271.2 50.142C268.654 52.2646 266.466 54.7827 264.72 57.6C264.516 57.942 264.312 58.29 264.12 58.632C263.907 58.9667 263.716 59.3155 263.55 59.676L262.53 61.8C261.955 63.2214 261.486 64.6834 261.126 66.174C260.771 67.6092 260.513 69.0664 260.352 70.536C260.22 71.9539 260.186 73.3793 260.25 74.802C260.482 79.8827 262.006 84.8202 264.678 89.148L264.786 89.322H264.582L264.69 89.25C263.4 93.816 262.29 97.812 261.354 101.082L261.27 100.986L270.198 99L272.532 98.496L273.132 98.37C273.201 98.3538 273.271 98.3418 273.342 98.334V98.316Z" fill="#263238"/>
<path d="M298.62 112.74C295.686 113.424 293.82 116.394 293.178 119.34C292.536 122.286 292.86 125.34 292.578 128.34C292.296 131.34 291.246 134.526 288.72 136.14L291.234 136.872C290.737 138.446 289.689 139.788 288.282 140.652C289.265 141.412 290.472 141.824 291.714 141.822C290.238 142.212 289.83 144.324 290.646 145.614C291.462 146.904 293.016 147.516 294.498 147.894C296.231 148.426 298.076 148.482 299.838 148.056C302.238 147.33 304.086 145.194 305.016 142.83C305.946 140.466 306.12 137.886 306.216 135.348C306.396 128.994 306.024 122.574 304.416 116.424C304.02 114.936 303.48 113.358 302.214 112.482C300.948 111.606 298.788 111.96 298.404 113.448" fill="black"/>
<path d="M364.938 204.456C364.242 201.804 360.186 186.864 356.538 177.108C352.512 166.278 344.208 164.04 344.208 164.04C325.518 157.662 308.724 157.626 290.808 163.842C290.208 164.022 289.674 164.214 289.14 164.442H289.086C275.784 169.662 274.41 183.714 274.41 183.714L268.8 217.8C268.741 218.069 268.697 218.342 268.668 218.616L268.614 218.94C268.519 220.533 268.904 222.118 269.719 223.491C270.534 224.863 271.742 225.959 273.186 226.638C280.986 230.238 288.45 229.38 294.858 226.734L290.202 233.514H345.636L342 224.568L343.2 219.168L351.786 229.5C352.815 230.737 354.193 231.634 355.74 232.074C365.64 233.226 367.242 218.484 365.382 209.904" fill="#455A64"/>
<path d="M329.82 160.326C329.82 160.326 320.874 205.326 317.724 204.978C314.574 204.63 299.796 161.178 299.796 161.178C299.796 161.178 318.684 156.138 329.82 160.326Z" fill="#FFBE9D"/>
<path d="M304.452 163.644C304.404 158.466 304.26 153.012 304.26 153.012C304.26 153.012 297.582 151.95 296.142 143.25C294.774 134.958 296.028 115.776 296.028 115.776C300.752 113.846 305.952 113.407 310.933 114.517C315.913 115.627 320.435 118.233 323.892 121.986L323.586 164.058C323.55 168.942 319.32 172.8 314.094 172.722C308.808 172.644 304.494 168.6 304.452 163.644Z" fill="#FFBE9D"/>
<path d="M298.242 130.29C298.24 130.581 298.352 130.861 298.554 131.071C298.756 131.28 299.031 131.403 299.322 131.412C299.464 131.423 299.607 131.405 299.742 131.359C299.877 131.313 300.002 131.241 300.109 131.147C300.216 131.052 300.303 130.937 300.364 130.809C300.426 130.68 300.461 130.54 300.468 130.398C300.47 130.107 300.358 129.827 300.156 129.617C299.954 129.408 299.679 129.285 299.388 129.276C299.246 129.265 299.103 129.283 298.968 129.329C298.833 129.375 298.708 129.447 298.601 129.541C298.494 129.636 298.407 129.751 298.346 129.879C298.284 130.008 298.249 130.148 298.242 130.29Z" fill="#263238"/>
<path d="M296.772 129.498C296.91 129.642 297.75 129.012 298.95 129.006C300.15 129 301.038 129.606 301.17 129.45C301.302 129.294 301.086 129.126 300.702 128.85C300.172 128.489 299.543 128.302 298.902 128.316C298.276 128.33 297.669 128.54 297.168 128.916C296.826 129.168 296.7 129.432 296.772 129.498Z" fill="#263238"/>
<path d="M310.392 130.872C310.39 131.163 310.502 131.443 310.704 131.653C310.906 131.862 311.181 131.985 311.472 131.994C311.613 132.002 311.754 131.982 311.887 131.936C312.02 131.889 312.142 131.816 312.247 131.722C312.352 131.628 312.437 131.514 312.498 131.386C312.558 131.259 312.593 131.121 312.6 130.98C312.602 130.689 312.49 130.409 312.288 130.2C312.086 129.99 311.811 129.867 311.52 129.858C311.379 129.85 311.238 129.87 311.105 129.916C310.972 129.963 310.85 130.036 310.745 130.13C310.64 130.224 310.555 130.338 310.494 130.466C310.434 130.593 310.399 130.731 310.392 130.872Z" fill="#263238"/>
<path d="M309.306 129.858C309.45 130.002 310.29 129.372 311.49 129.366C312.69 129.36 313.578 129.966 313.704 129.81C313.83 129.654 313.626 129.486 313.242 129.21C312.713 128.849 312.083 128.662 311.442 128.676C310.815 128.685 310.207 128.895 309.708 129.276C309.366 129.528 309.24 129.792 309.306 129.858Z" fill="#263238"/>
<path d="M305.004 138.792C304.368 138.6 303.711 138.487 303.048 138.456C302.742 138.456 302.448 138.366 302.4 138.156C302.371 137.839 302.44 137.52 302.598 137.244L303.492 134.904C304.728 131.568 305.628 128.832 305.49 128.778C305.352 128.724 304.242 131.394 303 134.73C302.706 135.552 302.4 136.332 302.148 137.082C301.958 137.452 301.905 137.877 301.998 138.282C302.042 138.39 302.111 138.486 302.198 138.563C302.285 138.64 302.39 138.696 302.502 138.726C302.673 138.77 302.848 138.795 303.024 138.798C303.682 138.88 304.347 138.878 305.004 138.792Z" fill="#263238"/>
<path d="M304.26 153C308.359 153.037 312.389 151.936 315.9 149.82C315.9 149.82 313.104 155.82 304.386 155.058L304.26 153Z" fill="#EB996E"/>
<path d="M305.526 141.684C305.755 141.397 306.052 141.172 306.391 141.029C306.73 140.886 307.099 140.831 307.464 140.868C307.729 140.891 307.987 140.967 308.222 141.092C308.457 141.217 308.664 141.388 308.832 141.594C308.994 141.794 309.091 142.038 309.109 142.295C309.127 142.551 309.066 142.807 308.934 143.028C308.742 143.245 308.49 143.399 308.21 143.47C307.93 143.542 307.634 143.528 307.362 143.43C306.795 143.233 306.272 142.925 305.826 142.524C305.688 142.429 305.57 142.309 305.478 142.17C305.433 142.105 305.409 142.027 305.409 141.948C305.409 141.869 305.433 141.791 305.478 141.726" fill="#EB996E"/>
<path d="M308.544 139.602C308.346 139.602 308.352 140.898 307.242 141.828C306.132 142.758 304.74 142.626 304.734 142.806C304.734 142.89 305.046 143.058 305.634 143.07C306.398 143.076 307.139 142.813 307.728 142.326C308.295 141.861 308.656 141.19 308.73 140.46C308.778 139.92 308.634 139.596 308.544 139.602Z" fill="#263238"/>
<path d="M319.2 114.972C316.098 119.568 307.746 124.392 301.728 125.58C302.418 124.638 306.09 122.286 306.774 121.35C304.074 123.438 300.174 126.24 296.574 126.492C296.148 126.558 295.712 126.498 295.32 126.318C295.112 126.159 294.945 125.953 294.83 125.718C294.715 125.483 294.657 125.224 294.66 124.962C294.413 122.336 294.451 119.69 294.774 117.072C295.026 114.859 296.114 112.826 297.816 111.39C300.114 109.548 303.432 109.05 306.57 108.918C309.198 108.81 311.91 108.918 314.334 109.824C316.758 110.73 318.846 112.572 319.236 114.816" fill="black"/>
<path d="M329.49 136.026C329.864 134.099 330.121 132.152 330.258 130.194C330.438 125.694 331.782 109.47 316.32 111.078L317.196 115.44C317.196 115.44 314.31 125.544 320.952 132.36C320.952 132.36 319.062 146.592 323.682 151.188C323.682 151.188 328.638 140.88 329.49 136.026Z" fill="black"/>
<path d="M320.754 131.604C321.685 131.402 322.654 131.458 323.556 131.766C324.462 132.086 325.205 132.753 325.62 133.62C325.987 134.507 326.002 135.5 325.662 136.398C325.32 137.289 324.783 138.093 324.09 138.75C323.624 139.255 323.047 139.643 322.404 139.884C322.082 139.997 321.737 140.03 321.399 139.98C321.062 139.93 320.741 139.798 320.466 139.596" fill="#FFBE9D"/>
<path d="M321.3 137.244C321.198 137.28 321.606 137.844 322.452 137.61C322.91 137.452 323.287 137.12 323.502 136.686C323.752 136.205 323.905 135.679 323.952 135.138C324.021 134.561 323.878 133.979 323.55 133.5C323.417 133.298 323.24 133.129 323.032 133.005C322.824 132.882 322.591 132.807 322.35 132.786C321.474 132.786 321.204 133.386 321.306 133.386C321.408 133.386 321.714 133.14 322.284 133.272C322.637 133.403 322.931 133.658 323.112 133.988C323.293 134.319 323.348 134.704 323.268 135.072C323.172 136.032 322.806 136.908 322.296 137.13C321.786 137.352 321.36 137.166 321.3 137.244Z" fill="#EB996E"/>
<path d="M290.25 205.554C290.166 205.554 290.094 202.02 290.094 197.658C290.094 193.296 290.166 189.768 290.25 189.768C290.334 189.768 290.406 193.302 290.406 197.658C290.406 202.014 290.334 205.554 290.25 205.554Z" fill="#263238"/>
<path d="M312.78 189.438C312.78 189.438 304.98 189.528 304.506 191.238C303.69 194.094 305.148 209.772 305.148 209.772L312.318 212.172C312.318 212.172 315.774 211.374 314.178 204.72C313.136 200.539 311.542 196.516 309.438 192.756C309.438 192.756 318.966 193.02 318.702 190.89C318.438 188.76 312.78 189.438 312.78 189.438Z" fill="#FFBE9D"/>
<path d="M309.684 194.064C310.11 193.98 319.632 193.194 319.038 194.718C318.444 196.242 309.684 196.62 309.684 196.62V194.064Z" fill="#FFBE9D"/>
<path d="M340.278 171.012L339.102 200.748L334.758 212.166L308.07 212.718L306.99 175.884L340.278 171.012Z" fill="#263238"/>
<path d="M303.888 199.92C303.787 199.989 303.678 200.045 303.564 200.088L302.604 200.52L299.046 202.038L287.274 206.952L280.8 209.622C279.015 210.292 277.282 211.094 275.616 212.022C274.5 212.654 273.515 213.493 272.712 214.494C272.16 215.214 271.962 215.694 271.932 215.694C271.963 215.574 272.012 215.459 272.076 215.352C272.225 215.033 272.406 214.729 272.616 214.446C273.391 213.398 274.371 212.518 275.496 211.86C277.159 210.9 278.897 210.076 280.692 209.394L287.178 206.706L298.986 201.876L302.586 200.448L303.57 200.076C303.669 200.011 303.776 199.959 303.888 199.92Z" fill="#263238"/>
<path d="M312.714 211.572C312.537 211.828 312.336 212.067 312.114 212.286C311.724 212.736 311.142 213.366 310.392 214.116C308.898 215.628 306.738 217.62 304.254 219.696C301.77 221.772 299.454 223.56 297.726 224.808C296.868 225.408 296.166 225.924 295.674 226.26C295.429 226.445 295.168 226.607 294.894 226.746C295.111 226.525 295.348 226.324 295.602 226.146L297.594 224.616C299.274 223.326 301.572 221.52 304.056 219.444C306.54 217.368 308.712 215.418 310.236 213.948C311.004 213.222 311.61 212.61 312.036 212.196C312.244 211.969 312.47 211.76 312.714 211.572Z" fill="#263238"/>
<path d="M352.908 230.604C352.842 230.664 348.93 226.176 344.166 220.584C339.402 214.992 335.592 210.42 335.658 210.384C335.724 210.348 339.636 214.8 344.4 220.38C349.164 225.96 352.974 230.55 352.908 230.604Z" fill="#263238"/>
<path d="M360.45 208.998C360.154 208.92 359.865 208.817 359.586 208.692C359.034 208.476 358.242 208.14 357.276 207.708C355.344 206.838 352.716 205.542 349.92 203.922C347.124 202.302 344.682 200.676 342.966 199.434C342.108 198.834 341.424 198.294 340.962 197.922C340.712 197.744 340.479 197.543 340.266 197.322C340.536 197.465 340.794 197.631 341.034 197.82C341.568 198.186 342.264 198.666 343.092 199.248C344.838 200.448 347.292 202.032 350.076 203.646C352.86 205.26 355.476 206.586 357.372 207.498L359.634 208.572C359.918 208.689 360.191 208.832 360.45 208.998Z" fill="#263238"/>
<path d="M346.638 202.47C346.554 202.47 346.086 199.308 345.594 195.384C345.102 191.46 344.772 188.262 344.856 188.256C344.94 188.25 345.414 191.418 345.906 195.342C346.398 199.266 346.728 202.464 346.638 202.47Z" fill="#263238"/>
<path d="M324.066 137.19C323.997 137.324 323.915 137.451 323.82 137.568L323.058 138.588L320.292 142.188V141.996L324.798 145.536L325.2 145.86H324.984L328.884 140.976V141.156L325.95 138.756L325.146 138.078C325.046 138.001 324.955 137.912 324.876 137.814C324.876 137.814 324.996 137.874 325.194 138.018L326.04 138.618L329.04 140.922L329.142 141L329.058 141.102C327.948 142.53 326.628 144.21 325.206 146.022L325.11 146.148L324.984 146.052L324.6 145.8C322.974 144.504 321.444 143.28 320.118 142.23L320.01 142.14L320.094 142.038L322.95 138.522L323.766 137.544C323.946 137.292 324.054 137.178 324.066 137.19Z" fill="#263238"/>
<path d="M335.514 209.916C331.194 209.718 326.89 209.257 322.626 208.536C317.58 207.732 317.634 207.27 317.826 206.694C318.306 205.146 326.754 207.774 325.236 206.148C323.718 204.522 314.568 204.138 315.138 202.548C315.882 200.466 324.678 203.382 325.44 203.574C326.202 203.766 326.472 202.668 325.776 202.53C324.78 202.332 314.322 200.022 315.03 197.97C315.426 196.83 317.394 197.784 317.394 197.784C317.394 197.784 327.036 200.676 327.342 199.692C327.648 198.708 322.044 196.806 320.106 196.308C318.168 195.81 317.634 194.694 318.534 194.022C319.134 193.566 325.134 194.964 327 195.51C328.866 196.056 334.092 197.628 332.112 194.76L332.028 194.622C330 191.85 329.358 189.042 329.724 188.1C329.825 187.903 329.978 187.739 330.166 187.623C330.355 187.508 330.571 187.447 330.792 187.447C331.013 187.447 331.229 187.508 331.418 187.623C331.606 187.739 331.759 187.903 331.86 188.1C331.957 188.239 332.024 188.396 332.058 188.562C332.077 188.645 332.101 188.727 332.13 188.808C332.607 189.884 333.194 190.907 333.882 191.862C334.477 192.734 335.215 193.499 336.066 194.124C337.05 194.838 339.54 197.466 340.266 197.934" fill="#FFBE9D"/>
<path d="M156.954 174.546C154.252 174.497 151.672 173.41 149.749 171.511C147.826 169.613 146.706 167.047 146.622 164.346C146.478 159.672 146.37 155.166 146.37 155.166C146.37 155.166 137.784 154.368 137.154 145.872C136.524 137.376 136.794 117.762 136.794 117.762C141.5 115.387 146.755 114.311 152.017 114.645C157.278 114.979 162.354 116.712 166.722 119.664L168.042 120.558L167.676 164.118C167.663 165.509 167.374 166.883 166.827 168.161C166.28 169.439 165.485 170.597 164.488 171.566C163.491 172.536 162.312 173.298 161.019 173.81C159.726 174.321 158.344 174.571 156.954 174.546Z" fill="#F7BDA6"/>
<path d="M146.16 140.628C146.16 140.532 145.428 140.43 144.24 140.34C143.928 140.34 143.688 140.274 143.64 140.112C143.614 139.804 143.672 139.495 143.808 139.218L144.6 136.8C145.668 133.332 146.4 130.476 146.214 130.422C146.028 130.368 145.014 133.134 143.958 136.602C143.706 137.448 143.466 138.258 143.232 139.056C143.057 139.461 143.025 139.914 143.142 140.34C143.194 140.454 143.271 140.554 143.368 140.633C143.465 140.712 143.578 140.768 143.7 140.796C143.874 140.83 144.051 140.842 144.228 140.832C145.416 140.784 146.154 140.718 146.16 140.628Z" fill="#1D2B32"/>
<path d="M150.042 141.684C148.239 142.556 146.348 143.233 144.402 143.706C144.837 144.297 145.459 144.723 146.168 144.915C146.876 145.107 147.628 145.053 148.302 144.762C150.786 143.67 150.042 141.684 150.042 141.684Z" fill="white"/>
<path d="M146.352 155.034C150.282 154.866 154.073 153.531 157.242 151.2C157.242 151.2 154.998 157.482 146.442 157.236L146.352 155.034Z" fill="#A36957"/>
<path d="M167.568 131.052C167.566 130.724 167.689 130.409 167.912 130.169C168.135 129.929 168.441 129.783 168.768 129.762C170.358 129.72 172.968 130.362 173.196 134.724C173.544 140.982 167.526 139.422 167.508 139.242C167.49 139.062 167.55 133.482 167.568 131.052Z" fill="#F7BDA6"/>
<path d="M168.912 136.8C168.912 136.8 169.02 136.872 169.212 136.944C169.474 137.049 169.766 137.049 170.028 136.944C170.676 136.662 171.174 135.582 171.138 134.454C171.127 133.917 170.994 133.39 170.748 132.912C170.679 132.72 170.565 132.547 170.414 132.409C170.264 132.271 170.082 132.172 169.884 132.12C169.756 132.094 169.623 132.113 169.508 132.174C169.393 132.235 169.303 132.335 169.254 132.456C169.182 132.636 169.254 132.756 169.194 132.768C169.134 132.78 169.056 132.672 169.092 132.408C169.119 132.253 169.197 132.111 169.314 132.006C169.396 131.936 169.492 131.883 169.595 131.85C169.698 131.817 169.806 131.805 169.914 131.814C170.175 131.849 170.422 131.951 170.632 132.11C170.843 132.269 171.008 132.479 171.114 132.72C171.408 133.233 171.575 133.809 171.6 134.4C171.63 135.66 171.048 136.878 170.16 137.19C169.995 137.248 169.819 137.268 169.646 137.248C169.472 137.228 169.306 137.169 169.158 137.076C168.93 136.932 168.888 136.8 168.912 136.8Z" fill="#A36957"/>
<path d="M139.458 132.156C139.478 132.457 139.615 132.738 139.839 132.94C140.063 133.141 140.357 133.248 140.658 133.236C140.805 133.238 140.951 133.21 141.088 133.154C141.224 133.098 141.347 133.015 141.451 132.91C141.554 132.806 141.636 132.681 141.69 132.544C141.745 132.408 141.771 132.261 141.768 132.114C141.751 131.812 141.615 131.528 141.391 131.325C141.166 131.122 140.871 131.015 140.568 131.028C140.42 131.027 140.274 131.056 140.138 131.113C140.002 131.169 139.878 131.252 139.775 131.358C139.671 131.463 139.59 131.588 139.536 131.725C139.481 131.862 139.455 132.008 139.458 132.156Z" fill="#1D2B32"/>
<path d="M137.496 130.998C137.652 131.136 138.48 130.398 139.716 130.344C140.952 130.29 141.912 130.812 142.032 130.656C142.152 130.5 141.93 130.32 141.516 130.056C140.951 129.723 140.298 129.572 139.644 129.624C139 129.663 138.385 129.91 137.892 130.326C137.532 130.656 137.4 130.932 137.496 130.998Z" fill="#1D2B32"/>
<path d="M151.8 131.94C151.819 132.241 151.955 132.523 152.179 132.725C152.404 132.927 152.698 133.033 153 133.02C153.148 133.022 153.294 132.994 153.43 132.938C153.567 132.882 153.691 132.799 153.795 132.695C153.899 132.59 153.981 132.466 154.036 132.329C154.091 132.192 154.118 132.046 154.116 131.898C154.096 131.597 153.959 131.316 153.735 131.114C153.511 130.913 153.217 130.806 152.916 130.818C152.769 130.817 152.623 130.846 152.487 130.902C152.35 130.958 152.227 131.041 152.123 131.145C152.019 131.25 151.937 131.374 151.882 131.51C151.826 131.647 151.798 131.793 151.8 131.94Z" fill="#1D2B32"/>
<path d="M150.078 130.998C150.234 131.136 151.062 130.398 152.298 130.344C153.534 130.29 154.488 130.812 154.614 130.656C154.74 130.5 154.512 130.32 154.092 130.056C153.53 129.722 152.878 129.571 152.226 129.624C151.582 129.663 150.967 129.91 150.474 130.326C150.114 130.656 150 130.932 150.078 130.998Z" fill="#1D2B32"/>
<path d="M158.28 114.816C157.719 116.141 157.554 117.599 157.805 119.016C158.056 120.432 158.713 121.745 159.696 122.796C160.53 123.66 161.586 124.32 162.312 125.286C163.812 127.284 163.566 130.032 163.806 132.516C163.914 133.668 164.184 134.916 165.006 135.678C165.828 136.44 167.436 136.518 168.006 135.528C168.166 135.214 168.272 134.875 168.318 134.526C168.842 131.754 169.362 128.984 169.878 126.216C170.268 124.134 170.664 122.016 170.304 119.916C170.094 118.695 169.63 117.531 168.943 116.499C168.256 115.468 167.361 114.592 166.315 113.927C165.269 113.262 164.095 112.824 162.869 112.64C161.644 112.457 160.393 112.531 159.198 112.86" fill="#1D2B32"/>
<path d="M159.6 113.058C156.714 112.506 155.094 111.582 153.054 110.658C151.039 109.658 148.738 109.396 146.55 109.92C145.098 110.328 143.724 111.204 142.23 111.186C140.736 111.168 139.41 110.292 137.994 109.842C137.025 109.543 136.005 109.442 134.996 109.545C133.987 109.648 133.009 109.953 132.12 110.442C130.722 111.21 129.468 112.584 129.348 114.264C129.228 115.944 130.728 117.678 132.234 117.198C130.662 117.744 130.026 120.06 130.806 121.602C131.214 122.327 131.836 122.908 132.586 123.266C133.337 123.623 134.18 123.74 135 123.6C136.66 123.234 138.151 122.323 139.236 121.014C139.272 122.886 141.15 124.2 142.89 124.146C144.63 124.092 146.202 123.048 147.636 121.974C149.07 120.9 150.522 119.73 152.226 119.352C153.426 119.088 154.626 119.232 155.826 119.088C157.026 118.944 158.316 118.422 158.898 117.288C159.48 116.154 161.784 114.822 160.578 114.786" fill="#1D2B32"/>
<path d="M142.5 122.268C142.708 122.393 142.922 122.507 143.142 122.61C143.767 122.818 144.443 122.818 145.068 122.61C145.502 122.483 145.918 122.3 146.304 122.064C146.724 121.812 147.15 121.464 147.606 121.158C148.081 120.797 148.584 120.476 149.112 120.198C149.696 119.899 150.34 119.737 150.996 119.724C152.334 119.724 153.54 120.06 154.632 119.964C155.113 119.935 155.581 119.8 156.004 119.57C156.427 119.34 156.794 119.02 157.08 118.632C157.484 118.11 157.738 117.488 157.812 116.832C157.86 116.364 157.812 116.1 157.842 116.1C157.872 116.1 157.872 116.16 157.896 116.286C157.927 116.468 157.939 116.653 157.932 116.838C157.905 117.531 157.671 118.2 157.26 118.758C156.984 119.153 156.631 119.487 156.222 119.742C155.749 120.031 155.215 120.204 154.662 120.246C153.498 120.36 152.262 120.006 151.008 120.03C149.754 120.054 148.674 120.744 147.774 121.386C147.312 121.71 146.88 122.028 146.436 122.28C146.026 122.52 145.583 122.7 145.122 122.814C144.456 123.017 143.74 122.985 143.094 122.724C142.923 122.644 142.766 122.539 142.626 122.412C142.538 122.324 142.496 122.276 142.5 122.268Z" fill="#1D2B32"/>
<path d="M158.706 110.094C158.712 110.762 158.77 111.428 158.88 112.086C159.09 112.721 159.353 113.337 159.666 113.928C159.132 113.465 158.753 112.848 158.581 112.162C158.41 111.476 158.453 110.754 158.706 110.094Z" fill="#1D2B32"/>
<path d="M161.904 109.962C161.97 110.028 161.196 110.76 160.62 111.912C160.044 113.064 159.882 114.108 159.792 114.09C159.727 113.278 159.918 112.466 160.338 111.768C160.664 111.02 161.21 110.39 161.904 109.962Z" fill="#1D2B32"/>
<path d="M202.026 198.93L215.088 232.536H195.096L185.778 208.608L202.026 198.93Z" fill="#F7BDA6"/>
<path d="M131.226 171.642C131.226 171.642 114 189.372 106.56 189.372C104.124 189.372 102.216 159.84 102.186 151.326C102.581 150.227 103.146 149.196 103.86 148.272C104.49 147.393 105.216 146.588 106.026 145.872C107.048 144.996 108.185 144.264 109.404 143.694C110.568 143.286 110.664 141.696 109.602 141.378C108.54 141.06 105.312 142.11 102.402 144.852C99.492 147.594 100.374 141.456 100.65 139.218C100.926 136.98 101.448 130.002 100.824 129.39C99.912 128.49 98.754 129.324 98.526 131.568C98.298 133.812 97.2 140.52 96 140.346C94.8 140.172 96.396 128.778 96.396 128.778C96.396 128.778 97.122 126.378 95.796 126.138C93.348 125.7 92.586 137.916 92.544 139.08C92.544 139.89 91.224 139.752 91.302 138.882C91.38 138.012 93.102 127.542 90.636 127.068C88.734 126.708 89.916 137.118 88.35 139.116C86.784 141.114 88.26 131.106 86.424 130.836C85.74 130.74 85.224 130.758 85.224 136.602C85.224 139.746 86.424 144.492 85.956 150.54C86.748 168.396 85.872 218.538 105.756 212.598C127.602 206.058 142.53 191.748 142.53 191.748L131.226 171.642Z" fill="#F7BDA6"/>
<path d="M179.454 187.53C179.543 187.759 179.607 187.996 179.646 188.238C179.754 188.694 179.892 189.36 180.048 190.188C180.354 191.844 180.72 194.142 181.002 196.692C181.284 199.242 181.428 201.564 181.488 203.244C181.488 204.084 181.53 204.768 181.524 205.236C181.543 205.481 181.531 205.726 181.488 205.968C181.437 205.729 181.409 205.486 181.404 205.242C181.368 204.708 181.32 204.042 181.266 203.256C181.152 201.582 180.972 199.272 180.666 196.728C180.36 194.184 180.066 191.886 179.802 190.224C179.682 189.444 179.586 188.79 179.502 188.262C179.458 188.021 179.441 187.775 179.454 187.53Z" fill="#1D2B32"/>
<path d="M128.31 232.536L183.342 232.812L181.488 221.196C181.974 215.683 181.948 210.138 181.41 204.63L184.2 212.184L206.946 200.784C206.946 200.784 198.678 178.74 191.754 171.27C183.012 161.832 167.274 162.774 167.274 162.774L156.642 169.974L146.856 163.08C141.607 163.696 136.497 165.182 131.736 167.478L131.232 167.622V167.73C125.46 170.73 117.222 178.092 109.38 185.226L118.434 194.04L128.46 203.382C129.028 203.298 129.603 203.274 130.176 203.31C130.344 204.342 128.31 232.536 128.31 232.536Z" fill="#848788"/>
<path opacity="0.2" d="M179.718 184.008L187.2 210.684L184.2 212.184L181.416 204.63C181.416 204.63 178.698 188.814 179.718 184.008Z" fill="black"/>
<path d="M146.244 163.002V160.122C146.244 160.122 154.836 159.456 156.576 169.608C156.576 169.608 159.378 160.122 167.718 159.168L168.918 163.602C168.918 163.602 164.964 175.956 164.394 176.064C163.824 176.172 156.594 178.278 156.594 178.278L152.394 177.33L147.744 172.032L146.244 163.002Z" fill="#848788"/>
<path d="M169.104 163.266C168.962 163.448 168.801 163.615 168.624 163.764C168.312 164.082 167.856 164.526 167.316 165.108C165.914 166.612 164.666 168.252 163.59 170.004C163.326 170.436 163.086 170.862 162.858 171.276L162.72 171.528L162.588 171.276C161.634 169.476 160.788 167.916 160.14 166.698C160 166.463 159.815 166.259 159.594 166.098C159.417 165.975 159.209 165.903 158.994 165.888C158.816 165.885 158.639 165.916 158.472 165.978C158.472 165.978 158.61 165.786 159 165.78C159.233 165.776 159.463 165.841 159.66 165.966C159.916 166.133 160.133 166.355 160.296 166.614C160.974 167.748 161.838 169.338 162.84 171.156H162.6C162.828 170.736 163.068 170.298 163.338 169.866C164.417 168.09 165.704 166.448 167.172 164.976C167.736 164.412 168.216 163.986 168.558 163.698C168.718 163.529 168.902 163.383 169.104 163.266Z" fill="#1D2B32"/>
<path d="M145.686 163.8C145.84 163.926 145.977 164.071 146.094 164.232C146.346 164.526 146.694 164.952 147.12 165.486C147.978 166.548 149.142 168.03 150.414 169.686L150.618 169.95H150.354C150.816 169.104 150.852 168.15 151.062 167.274C151.196 166.479 151.624 165.763 152.262 165.27C152.488 165.12 152.744 165.025 153.013 164.99C153.281 164.956 153.554 164.984 153.81 165.072C153.944 165.129 154.068 165.208 154.176 165.306C154.242 165.384 154.266 165.426 154.26 165.432C154.108 165.332 153.945 165.25 153.774 165.186C153.537 165.127 153.289 165.12 153.049 165.165C152.809 165.211 152.581 165.308 152.382 165.45C151.82 165.933 151.455 166.606 151.356 167.34C151.245 168.288 151.005 169.217 150.642 170.1L150.528 170.31L150.384 170.118L150.18 169.854C148.908 168.204 147.78 166.698 146.958 165.6C146.556 165.054 146.232 164.604 146.01 164.292C145.881 164.142 145.773 163.977 145.686 163.8Z" fill="#1D2B32"/>
<path d="M151.8 232.536C151.792 232.48 151.792 232.424 151.8 232.368C151.8 232.248 151.8 232.086 151.8 231.894C151.8 231.45 151.854 230.838 151.896 230.058C151.998 228.444 152.148 226.146 152.322 223.32C152.718 217.608 153.258 209.76 153.852 201.09L155.466 178.89C155.688 176.064 155.868 173.772 155.994 172.158C156.06 171.378 156.114 170.766 156.156 170.328C156.156 170.13 156.192 169.974 156.204 169.848C156.197 169.796 156.197 169.744 156.204 169.692C156.215 169.746 156.215 169.801 156.204 169.854V170.328C156.204 170.772 156.144 171.384 156.102 172.164C156 173.778 155.856 176.076 155.676 178.902C155.286 184.614 154.746 192.462 154.152 201.132C153.558 209.802 152.952 217.65 152.532 223.332C152.31 226.158 152.136 228.45 152.01 230.064C151.938 230.844 151.884 231.456 151.848 231.9C151.848 232.092 151.812 232.248 151.8 232.374C151.809 232.428 151.809 232.482 151.8 232.536Z" fill="#1D2B32"/>
<path d="M132.042 179.16C132.052 179.479 132.034 179.798 131.988 180.114C131.94 180.78 131.868 181.65 131.784 182.706C131.622 184.89 131.454 187.92 131.268 191.268C131.082 194.616 130.878 197.64 130.668 199.83C130.56 200.922 130.452 201.81 130.362 202.416C130.333 202.735 130.275 203.05 130.188 203.358C130.178 203.039 130.196 202.72 130.242 202.404C130.296 201.738 130.362 200.862 130.446 199.812C130.614 197.622 130.776 194.592 130.968 191.25C131.16 187.908 131.352 184.872 131.568 182.682C131.676 181.59 131.784 180.708 131.874 180.096C131.904 179.78 131.96 179.467 132.042 179.16Z" fill="#1D2B32"/>
<path d="M156 168.156C156 168.156 153.048 172.014 153.48 172.59L156 175.956H157.8C157.8 175.956 159.48 171.24 159.048 170.64C158.616 170.04 156 168.156 156 168.156Z" fill="#FAAC84"/>
<path d="M160.5 167.118L157.242 169.662L158.49 172.056L161.838 169.584L160.5 167.118Z" fill="#FAAC84"/>
<path d="M150.93 168.726L153.9 171.204L155.544 168.726L151.794 165.876L150.93 168.726Z" fill="#FAAC84"/>
<path d="M155.964 175.95L151.434 216.546L155.892 230.658L161.838 216.672L157.926 175.47L155.964 175.95Z" fill="#FAAC84"/>
<path d="M187.662 168.408C187.475 168.256 187.274 168.121 187.062 168.006C186.476 167.735 185.809 167.696 185.196 167.898C184.298 168.242 183.5 168.805 182.874 169.536C182.048 170.388 181.334 171.342 180.75 172.374C179.696 174.263 179.08 176.365 178.95 178.524C178.854 180.186 179.064 181.212 178.998 181.218C178.924 180.985 178.871 180.746 178.842 180.504C178.75 179.846 178.714 179.182 178.734 178.518C178.798 176.308 179.397 174.146 180.48 172.218C181.076 171.161 181.813 170.191 182.67 169.332C183.335 168.579 184.185 168.012 185.136 167.688C185.464 167.588 185.809 167.555 186.15 167.592C186.491 167.628 186.822 167.732 187.122 167.898C187.282 167.991 187.425 168.108 187.548 168.246C187.638 168.342 187.668 168.402 187.662 168.408Z" fill="#1D2B32"/>
<path d="M230.544 118.2C226.698 120.558 224.028 124.5 222.444 128.718C220.86 132.936 220.26 137.46 219.792 141.918C218.552 153.769 218.137 165.692 218.55 177.6C233.088 179.436 247.74 181.284 262.35 180.288C259.812 163.59 258.204 146.91 260.238 130.14" fill="#263238"/>
<path d="M263.202 256.962L252.6 235.554L256.644 219.894C257.118 223.212 257.538 226.092 257.538 226.092L280.248 224.892C280.448 224.882 280.643 224.83 280.822 224.739C281.001 224.649 281.159 224.522 281.286 224.368C281.413 224.213 281.506 224.034 281.56 223.841C281.614 223.648 281.627 223.446 281.598 223.248L277.2 191.928C277.2 191.928 275.778 177.396 262.02 171.996H261.954C261.402 171.78 260.826 171.588 260.232 171.396C241.686 164.964 224.316 165.006 204.99 171.6C204.99 171.6 196.404 173.91 192.24 185.112C188.076 196.314 183.84 212.778 183.84 212.778L203.1 219.6L203.226 216.342L207.486 232.638L198.144 256.374L230.754 257.178L263.202 256.962Z" fill="#08A9A0"/>
<path d="M183.858 212.568L181.692 222.768C179.832 231.558 186.342 240.582 195.27 241.596L242.736 246.468C245.237 246.75 247.77 246.528 250.184 245.817C252.598 245.105 254.846 243.917 256.794 242.324C258.743 240.731 260.353 238.763 261.529 236.538C262.706 234.313 263.426 231.875 263.646 229.368L203.802 223.668L204.174 217.92L183.858 212.568Z" fill="#08A9A0"/>
<path d="M243.216 223.002L246.9 222.318C246.9 222.318 255.636 212.76 257.274 212.628C258.624 212.514 266.058 212.586 268.674 212.628C268.911 212.631 269.136 212.727 269.303 212.896C269.469 213.064 269.562 213.291 269.562 213.528C269.562 213.762 269.471 213.986 269.309 214.154C269.147 214.322 268.925 214.42 268.692 214.428L259.914 214.77L259.872 215.478L268.662 215.592C269.562 215.664 270.132 217.08 267.27 217.338L259.914 217.596V218.052L267.372 219.096C267.75 219.15 268.74 219.342 268.746 219.726C268.746 219.726 269.202 220.656 267.072 220.926C266.346 221.016 259.872 220.8 259.872 220.8L260.118 221.4L266.826 222.846C267.061 222.897 267.267 223.035 267.404 223.232C267.541 223.429 267.598 223.67 267.564 223.908C267.531 224.151 267.405 224.372 267.213 224.524C267.02 224.676 266.776 224.748 266.532 224.724L259.374 224.064L252.342 229.674H242.922L243.216 223.002Z" fill="#FFBE9D"/>
<path d="M219.888 166.98C219.888 166.98 229.134 214.26 232.392 213.918C235.65 213.576 250.932 168.6 250.932 168.6C250.932 168.6 231.402 162.654 219.888 166.98Z" fill="#FAFAFA"/>
<path d="M260.802 212.748C260.718 212.748 260.646 209.484 260.646 205.464C260.646 201.444 260.718 198.186 260.802 198.186C260.886 198.186 260.958 201.444 260.958 205.464C260.958 209.484 260.892 212.748 260.802 212.748Z" fill="#263238"/>
<path d="M204.042 213.054C204.055 212.352 204.119 211.652 204.234 210.96C204.396 209.664 204.636 207.888 204.924 205.926C205.212 203.964 205.482 202.182 205.698 200.904C205.784 200.205 205.923 199.513 206.112 198.834C206.099 199.538 206.035 200.24 205.92 200.934C205.758 202.224 205.518 204.006 205.23 205.968C204.942 207.93 204.672 209.7 204.456 210.984C204.369 211.683 204.231 212.375 204.042 213.054Z" fill="#263238"/>
<path d="M230.754 257.148C230.737 257.002 230.737 256.856 230.754 256.71C230.754 256.392 230.754 255.978 230.754 255.456C230.754 254.364 230.754 252.786 230.796 250.836C230.868 246.936 231.078 241.554 231.348 235.614C231.618 229.674 231.858 224.292 231.99 220.392C232.044 218.472 232.092 216.906 232.128 215.778C232.128 215.262 232.128 214.842 232.164 214.524C232.161 214.377 232.173 214.23 232.2 214.086C232.213 214.232 232.213 214.378 232.2 214.524C232.2 214.84 232.2 215.26 232.2 215.784C232.2 216.87 232.2 218.448 232.164 220.398C232.092 224.298 231.876 229.68 231.612 235.626C231.348 241.572 231.096 246.948 230.97 250.842C230.91 252.768 230.862 254.334 230.832 255.456C230.832 255.978 230.832 256.398 230.79 256.71C230.787 256.857 230.775 257.003 230.754 257.148Z" fill="#263238"/>
<path d="M250.854 168.522C250.854 168.522 250.884 168.726 250.956 169.122C251.059 169.68 251.218 170.227 251.43 170.754C251.768 171.584 252.169 172.386 252.63 173.154C253.251 174.179 253.818 175.237 254.328 176.322C254.98 177.654 255.23 179.146 255.048 180.618C254.9 181.435 254.569 182.208 254.082 182.88C253.575 183.579 253.009 184.233 252.39 184.836C251.069 186.102 249.864 187.483 248.79 188.964C247.645 190.551 246.999 192.444 246.936 194.4C246.937 195.383 247.154 196.354 247.572 197.244C248.011 198.119 248.4 199.018 248.736 199.938C248.888 200.406 248.951 200.899 248.922 201.39C248.887 201.88 248.733 202.354 248.472 202.77C247.927 203.512 247.25 204.147 246.474 204.642L238.956 210.186L233.874 213.894L232.482 214.896L232.116 215.148L231.984 215.226C231.984 215.226 232.02 215.184 232.098 215.118L232.446 214.842L233.802 213.798L238.8 210L246.276 204.408C247.02 203.932 247.669 203.322 248.19 202.608C248.427 202.234 248.567 201.807 248.598 201.366C248.621 200.909 248.56 200.451 248.418 200.016C248.084 199.11 247.698 198.224 247.26 197.364C246.824 196.437 246.599 195.425 246.6 194.4C246.663 192.383 247.33 190.43 248.514 188.796C249.599 187.298 250.82 185.904 252.162 184.632C253.392 183.432 254.526 182.106 254.766 180.57C254.954 179.149 254.722 177.703 254.1 176.412C253.607 175.325 253.056 174.266 252.45 173.238C252.001 172.451 251.614 171.631 251.292 170.784C251.089 170.246 250.948 169.686 250.872 169.116C250.85 168.969 250.836 168.821 250.83 168.672C250.83 168.621 250.838 168.57 250.854 168.522Z" fill="#263238"/>
<path d="M232.356 213.432H232.212L231.786 213.354C231.244 213.241 230.708 213.095 230.184 212.916C228.251 212.262 226.46 211.244 224.91 209.916C222.593 207.923 220.909 205.295 220.068 202.356C219.572 200.63 219.369 198.833 219.468 197.04C219.517 196.095 219.644 195.156 219.846 194.232C220.075 193.313 220.102 192.355 219.924 191.424C219.799 190.983 219.547 190.588 219.198 190.29C218.825 190.018 218.407 189.814 217.962 189.69C217.518 189.54 217.056 189.42 216.606 189.234C216.159 189.049 215.752 188.78 215.406 188.442C214.756 187.758 214.325 186.895 214.17 185.964C214.004 185.096 213.955 184.21 214.026 183.33C214.307 180.317 214.968 177.351 215.994 174.504C216.679 172.587 217.522 170.731 218.514 168.954C218.868 168.354 219.156 167.85 219.366 167.538L219.6 167.178C219.624 167.134 219.654 167.093 219.69 167.058C219.69 167.058 219.69 167.106 219.63 167.19L219.42 167.568C219.228 167.892 218.958 168.384 218.616 169.014C217.677 170.805 216.875 172.664 216.216 174.576C215.237 177.414 214.602 180.359 214.326 183.348C214.268 184.203 214.32 185.062 214.482 185.904C214.631 186.774 215.031 187.581 215.634 188.226C215.96 188.534 216.34 188.778 216.756 188.946C217.176 189.12 217.632 189.24 218.094 189.396C218.576 189.535 219.028 189.763 219.426 190.068C219.825 190.406 220.113 190.855 220.254 191.358C220.447 192.333 220.422 193.339 220.182 194.304C219.984 195.217 219.858 196.144 219.804 197.076C219.715 198.837 219.918 200.601 220.404 202.296C221.219 205.189 222.855 207.783 225.114 209.766C226.635 211.1 228.388 212.143 230.286 212.844C230.958 213.084 231.486 213.24 231.864 213.336L232.278 213.444C232.304 213.439 232.33 213.435 232.356 213.432Z" fill="#263238"/>
<path d="M257.328 223.068L217.566 221.784L217.626 234.984L243.954 240.768L262.476 243.726C273.984 243.726 283.194 233.16 281.412 221.79H281.364L257.328 223.068Z" fill="#08A9A0"/>
<path d="M268.272 222.816C268.101 222.843 267.929 222.855 267.756 222.852L266.28 222.894L260.844 222.99C256.254 223.062 249.912 223.14 242.904 223.068C235.896 222.996 229.554 222.75 224.97 222.468C222.678 222.312 220.83 222.168 219.57 222.036L218.1 221.886C217.926 221.877 217.754 221.853 217.584 221.814C217.756 221.799 217.928 221.799 218.1 221.814L219.576 221.904C220.86 221.994 222.714 222.108 224.976 222.234C229.56 222.486 235.896 222.708 242.904 222.774C249.912 222.84 256.242 222.774 260.832 222.774H266.274H267.75C267.925 222.775 268.099 222.789 268.272 222.816Z" fill="#263238"/>
<path d="M217.23 223.002L213.546 222.318C213.546 222.318 204.81 212.76 203.166 212.628C201.822 212.514 194.388 212.586 191.796 212.628C191.559 212.631 191.334 212.727 191.167 212.896C191.001 213.064 190.908 213.291 190.908 213.528C190.908 213.761 190.998 213.984 191.159 214.152C191.32 214.32 191.54 214.419 191.772 214.428L200.556 214.77L200.598 215.478L191.802 215.592C190.908 215.664 190.332 217.08 193.2 217.338L200.556 217.596V218.052L193.098 219.096C192.72 219.15 191.73 219.342 191.718 219.726C191.718 219.726 191.268 220.656 193.392 220.926C194.124 221.016 200.592 220.8 200.592 220.8L200.34 221.4L193.638 222.846C193.404 222.898 193.197 223.036 193.06 223.232C192.922 223.429 192.863 223.67 192.894 223.908C192.928 224.15 193.055 224.37 193.247 224.522C193.439 224.674 193.682 224.746 193.926 224.724L201.09 224.064L208.122 229.674H217.518L217.23 223.002Z" fill="#FFBE9D"/>
<path d="M261.768 243.51C261.618 243.527 261.467 243.527 261.318 243.51L260.034 243.372C258.912 243.246 257.304 243.042 255.312 242.772C251.328 242.22 245.844 241.35 239.826 240.174C233.808 238.998 228.426 237.726 224.502 236.73C222.558 236.238 220.986 235.818 219.906 235.53L218.664 235.17C218.517 235.133 218.372 235.085 218.232 235.026C218.383 235.038 218.531 235.067 218.676 235.11L219.936 235.41L224.556 236.538C228.462 237.474 233.874 238.704 239.886 239.886C245.898 241.068 251.376 241.968 255.342 242.574L260.046 243.276L261.324 243.474C261.473 243.477 261.621 243.489 261.768 243.51Z" fill="#263238"/>
<path d="M217.986 235.038C217.811 234.424 217.694 233.796 217.638 233.16C217.482 231.96 217.314 230.364 217.218 228.57C217.122 226.776 217.128 225.138 217.164 223.956C217.155 223.319 217.206 222.682 217.314 222.054C217.385 222.687 217.409 223.325 217.386 223.962C217.386 225.162 217.44 226.758 217.53 228.552C217.62 230.346 217.758 231.96 217.86 233.13C217.944 233.763 217.986 234.4 217.986 235.038Z" fill="#263238"/>
<path d="M222.33 235.554C222.25 235.394 222.192 235.225 222.156 235.05C222.066 234.726 221.946 234.246 221.826 233.652C221.187 230.539 220.985 227.353 221.226 224.184C221.274 223.584 221.334 223.086 221.388 222.75C221.398 222.574 221.434 222.4 221.496 222.234C221.518 222.888 221.502 223.544 221.448 224.196C221.4 225.396 221.382 227.076 221.496 228.918C221.61 230.76 221.826 232.416 222.018 233.61C222.162 234.251 222.266 234.9 222.33 235.554Z" fill="#263238"/>
<path d="M218.658 224.166C218.694 224.202 218.466 224.364 218.472 224.766C218.472 224.868 218.493 224.969 218.535 225.062C218.576 225.155 218.636 225.238 218.712 225.306C218.811 225.372 218.926 225.407 219.045 225.407C219.164 225.407 219.279 225.372 219.378 225.306C219.485 225.25 219.573 225.162 219.63 225.055C219.687 224.948 219.71 224.826 219.696 224.706C219.676 224.606 219.635 224.512 219.576 224.429C219.517 224.347 219.442 224.277 219.354 224.226C219.036 224.034 218.754 224.148 218.754 224.1C218.754 224.052 219 223.842 219.45 224.034C219.578 224.087 219.693 224.168 219.784 224.272C219.876 224.376 219.942 224.5 219.978 224.634C219.999 224.812 219.968 224.992 219.887 225.152C219.807 225.312 219.681 225.445 219.525 225.534C219.37 225.623 219.191 225.664 219.013 225.652C218.834 225.641 218.663 225.577 218.52 225.468C218.417 225.372 218.339 225.253 218.291 225.12C218.243 224.988 218.227 224.846 218.244 224.706C218.316 224.244 218.658 224.124 218.658 224.166Z" fill="#263238"/>
<path d="M225.888 237.504C225.753 237.521 225.615 237.521 225.48 237.504C225.21 237.504 224.82 237.504 224.31 237.504C222.881 237.542 221.455 237.676 220.044 237.906C217.952 238.261 215.879 238.722 213.834 239.286C211.512 239.886 208.98 240.636 206.262 241.23C203.706 241.826 201.087 242.11 198.462 242.076C196.317 242.02 194.195 241.615 192.18 240.876C190.828 240.364 189.562 239.65 188.424 238.758C188.118 238.514 187.828 238.252 187.554 237.972C187.451 237.883 187.358 237.782 187.278 237.672C187.278 237.672 187.692 238.056 188.478 238.662C189.627 239.507 190.892 240.182 192.234 240.666C194.243 241.379 196.354 241.762 198.486 241.8C201.081 241.816 203.669 241.526 206.196 240.936C208.896 240.336 211.434 239.616 213.762 239.016C215.821 238.464 217.908 238.024 220.014 237.696C221.436 237.487 222.872 237.387 224.31 237.396C224.82 237.396 225.216 237.396 225.48 237.45C225.617 237.455 225.754 237.473 225.888 237.504Z" fill="#263238"/>
<path d="M243.378 172.548C244.32 167.28 245.412 161.748 245.412 161.748C245.412 161.748 252.408 161.814 255.378 153.198C258.21 144.978 260.256 125.202 260.256 125.202C255.774 122.416 250.548 121.068 245.278 121.337C240.008 121.606 234.946 123.48 230.772 126.708L223.8 169.656C222.99 174.642 226.632 179.31 231.978 180.132C237.372 180.966 242.478 177.6 243.378 172.548Z" fill="#FFBE9D"/>
<path d="M255.054 140.01C255.005 140.307 254.842 140.573 254.6 140.751C254.358 140.929 254.056 141.006 253.758 140.964C253.611 140.951 253.468 140.909 253.337 140.84C253.206 140.771 253.091 140.676 252.998 140.561C252.905 140.446 252.836 140.314 252.796 140.172C252.755 140.029 252.744 139.881 252.762 139.734C252.812 139.437 252.976 139.171 253.219 138.993C253.463 138.815 253.766 138.738 254.064 138.78C254.21 138.794 254.353 138.837 254.482 138.907C254.611 138.977 254.726 139.072 254.818 139.187C254.91 139.301 254.978 139.433 255.019 139.574C255.06 139.716 255.071 139.864 255.054 140.01Z" fill="#263238"/>
<path d="M257.124 139.062C256.956 139.188 256.206 138.396 254.982 138.186C253.758 137.976 252.756 138.426 252.648 138.252C252.594 138.18 252.786 137.934 253.248 137.718C253.843 137.446 254.506 137.362 255.15 137.478C255.787 137.591 256.373 137.901 256.824 138.366C257.124 138.72 257.202 139.008 257.124 139.062Z" fill="#263238"/>
<path d="M242.49 138C242.44 138.296 242.277 138.561 242.035 138.739C241.793 138.917 241.492 138.994 241.194 138.954C240.903 138.927 240.635 138.785 240.448 138.56C240.261 138.335 240.171 138.045 240.198 137.754C240.248 137.456 240.412 137.19 240.655 137.011C240.898 136.832 241.201 136.754 241.5 136.794C241.791 136.824 242.057 136.968 242.243 137.194C242.428 137.419 242.517 137.709 242.49 138Z" fill="#263238"/>
<path d="M244.278 137.262C244.11 137.382 243.36 136.596 242.136 136.38C240.912 136.164 239.91 136.626 239.802 136.452C239.748 136.374 239.934 136.128 240.402 135.912C240.997 135.64 241.661 135.558 242.304 135.678C242.942 135.786 243.528 136.095 243.978 136.56C244.278 136.914 244.356 137.208 244.278 137.262Z" fill="#263238"/>
<path d="M247.116 147.114C247.798 147.032 248.486 147.032 249.168 147.114C249.486 147.114 249.768 147.114 249.882 146.922C249.965 146.605 249.951 146.27 249.84 145.962C249.678 145.152 249.51 144.306 249.336 143.418C248.646 139.818 248.208 136.854 248.358 136.818C248.508 136.782 249.174 139.698 249.864 143.31C250.026 144.204 250.182 145.05 250.326 145.86C250.454 146.272 250.435 146.715 250.272 147.114C250.207 147.217 250.119 147.304 250.015 147.368C249.911 147.431 249.794 147.47 249.672 147.48C249.491 147.505 249.307 147.505 249.126 147.48C248.443 147.445 247.767 147.322 247.116 147.114Z" fill="#263238"/>
<path d="M245.4 161.748C241.215 161.072 237.298 159.251 234.084 156.486C234.084 156.486 235.884 163.086 244.884 163.818L245.4 161.748Z" fill="#EB996E"/>
<path d="M246.084 150C245.905 149.66 245.643 149.372 245.322 149.162C245 148.952 244.631 148.827 244.248 148.8C243.974 148.777 243.698 148.809 243.437 148.896C243.176 148.983 242.936 149.121 242.73 149.304C242.529 149.478 242.388 149.71 242.324 149.968C242.261 150.226 242.279 150.497 242.376 150.744C242.534 150.998 242.763 151.199 243.036 151.322C243.308 151.445 243.611 151.484 243.906 151.434C244.52 151.329 245.107 151.105 245.634 150.774C245.789 150.701 245.93 150.599 246.048 150.474C246.106 150.415 246.144 150.34 246.158 150.258C246.172 150.177 246.161 150.093 246.126 150.018" fill="#EB996E"/>
<path d="M243.372 147.33C243.57 147.33 243.336 148.68 244.308 149.826C245.28 150.972 246.708 151.068 246.708 151.26C246.708 151.344 246.348 151.458 245.748 151.368C244.969 151.245 244.259 150.849 243.744 150.252C243.242 149.689 242.975 148.954 243 148.2C243.072 147.6 243.282 147.306 243.372 147.33Z" fill="#263238"/>
<path d="M236.766 120.372C239.136 125.598 246.816 131.958 252.744 134.214C252.204 133.134 248.874 130.098 248.334 129.024C250.734 131.622 254.184 135.15 257.838 136.032C258.26 136.174 258.715 136.189 259.146 136.074C259.384 135.946 259.589 135.766 259.746 135.546C259.903 135.327 260.008 135.074 260.052 134.808C260.758 132.171 261.177 129.465 261.3 126.738C261.433 124.441 260.682 122.18 259.2 120.42C257.178 118.146 253.878 117.06 250.704 116.382C248.04 115.818 245.256 115.458 242.628 115.962C240 116.466 237.552 117.978 236.766 120.204" fill="#263238"/>
<path d="M222.63 140.052C222.583 138.023 222.659 135.993 222.858 133.974C223.458 129.36 224.892 112.578 240.378 116.898L238.734 121.2C238.734 121.2 239.934 132 231.972 137.796C231.972 137.796 232.008 148.596 226.5 152.466C226.5 152.466 222.66 145.158 222.63 140.058" fill="#263238"/>
<path d="M232.302 137.058C231.387 136.69 230.389 136.581 229.416 136.74C228.446 136.915 227.584 137.464 227.016 138.27C226.49 139.112 226.303 140.122 226.494 141.096C226.689 142.065 227.099 142.977 227.694 143.766C228.077 144.355 228.593 144.846 229.2 145.2C229.508 145.373 229.855 145.468 230.209 145.475C230.563 145.483 230.913 145.403 231.228 145.242" fill="#FFBE9D"/>
<path d="M230.766 142.716C230.868 142.77 230.358 143.274 229.53 142.884C229.313 142.766 229.121 142.606 228.965 142.413C228.81 142.221 228.694 141.999 228.624 141.762C228.449 141.229 228.383 140.665 228.432 140.106C228.463 139.507 228.708 138.939 229.122 138.504C229.298 138.319 229.513 138.176 229.752 138.087C229.992 137.997 230.248 137.963 230.502 137.988C231.396 138.126 231.564 138.792 231.456 138.792C231.348 138.792 231.084 138.474 230.478 138.51C230.097 138.583 229.755 138.79 229.514 139.094C229.273 139.398 229.148 139.778 229.164 140.166C229.098 141.162 229.314 142.122 229.794 142.434C230.274 142.746 230.724 142.626 230.766 142.716Z" fill="#EB996E"/>
<path d="M230.754 145.236C228.354 159.582 230.304 174.246 230.754 188.79C230.796 190.182 230.808 191.64 230.154 192.882C229.2 194.76 226.968 195.678 224.862 195.804C222.756 195.93 220.662 195.444 218.568 195.27C218.34 193.878 218.118 192.48 217.89 191.07C217.188 192.678 216.486 194.28 215.79 195.87C216.714 185.67 217.726 175.47 218.826 165.27" fill="#263238"/>
</svg>
