<svg width="450" height="350" viewBox="0 0 450 350" fill="none" xmlns="http://www.w3.org/2000/svg">
<path d="M381.996 79.302C382.466 79.3459 382.922 79.4412 383.346 79.584C384.342 79.908 385.176 80.4165 385.749 81.0487C386.322 81.6808 386.61 82.4097 386.577 83.148C386.55 83.8443 386.238 84.5225 385.677 85.11C385.379 85.43 385.009 85.7174 384.579 85.962C384.136 86.2141 383.634 86.4167 383.094 86.562C381.961 86.8908 380.702 86.9747 379.494 86.802C378.276 86.618 377.178 86.1785 376.362 85.548C375.983 85.2531 375.679 84.9186 375.462 84.558C375.229 84.2162 375.08 83.8515 375.021 83.478C374.891 82.7859 375.043 82.0832 375.462 81.444C375.902 80.766 376.627 80.1879 377.551 79.7799C378.475 79.3719 379.556 79.1517 380.664 79.146C381.139 79.1351 381.614 79.1777 382.068 79.272C382.068 79.302 381.564 79.206 380.673 79.23C379.404 79.2666 378.191 79.5856 377.226 80.136C376.563 80.5098 376.042 80.9826 375.705 81.516C375.323 82.1281 375.189 82.7965 375.318 83.454C375.384 83.8066 375.529 84.1505 375.75 84.474C375.972 84.8163 376.276 85.1324 376.65 85.41C377.416 86.0129 378.455 86.434 379.611 86.61C380.76 86.7798 381.961 86.7021 383.04 86.388C383.555 86.2417 384.03 86.0389 384.444 85.788C384.855 85.5597 385.208 85.2881 385.488 84.984C386.033 84.4291 386.344 83.7866 386.388 83.124C386.43 82.4126 386.167 81.708 385.632 81.092C385.097 80.476 384.31 79.9739 383.364 79.644C382.5 79.386 381.987 79.332 381.996 79.302Z" fill="#E0E0E0"/>
<path d="M386.568 75.234C386.564 75.19 386.564 75.146 386.568 75.102C386.568 75 386.568 74.868 386.568 74.694C386.568 74.322 386.568 73.788 386.568 73.092L386.613 73.128L381.42 72.372L381.51 72.342L380.142 74.28V74.316H380.079C378.929 74.3493 377.791 74.4845 376.695 74.718H376.632H376.587L374.22 73.2H374.4L369.9 75.108V75L370.98 77.016V77.064L370.926 77.106C370.15 77.6702 369.487 78.2995 368.955 78.978V79.026H368.865H365.661L365.796 78.948C365.436 80.034 365.04 81.204 364.644 82.41L364.563 82.296L367.461 83.208H367.542V83.268C367.588 84.0318 367.785 84.7883 368.127 85.518V85.578L368.055 85.626L365.787 87.144V87.012L368.631 90.012L368.442 89.964L371.466 89.244H371.556L371.637 89.286C372.474 89.8057 373.413 90.2476 374.427 90.6C374.472 90.642 374.346 90.504 374.517 90.696V92.832L374.391 92.724L379.575 93.504L379.395 93.564C379.854 92.91 380.295 92.268 380.772 91.626L380.817 91.572H380.916C382.059 91.5427 383.191 91.4116 384.282 91.182H384.372L384.444 91.23L386.721 92.742H386.523L391.023 90.852L390.96 90.966L389.88 88.95V88.896L389.943 88.848C390.724 88.2872 391.39 87.6597 391.923 86.982V86.934H395.217L395.091 87.006C395.505 85.806 395.892 84.642 396.261 83.544L396.333 83.64L393.435 82.716H393.372V82.668C393.333 81.9022 393.139 81.1433 392.796 80.412V80.37V80.34C393.624 79.788 394.362 79.29 395.073 78.822V78.906L392.247 75.906H392.337L389.304 76.608C388.667 76.2145 387.977 75.861 387.243 75.552L386.685 75.33L386.505 75.252L386.703 75.312L387.27 75.516C388.023 75.8158 388.729 76.1656 389.376 76.56H389.322L392.337 75.828H392.391V75.864L395.253 78.864L395.298 78.912L395.244 78.948L393.084 80.4V80.328C393.441 81.0722 393.644 81.8453 393.687 82.626L393.624 82.56L396.531 83.472L396.621 83.502V83.568C396.261 84.66 395.874 85.806 395.469 87.024V87.096H392.13L392.256 87.048C391.712 87.7417 391.034 88.3852 390.24 88.962V88.86C390.591 89.52 390.96 90.192 391.32 90.876L391.365 90.954L391.257 90.996L386.757 92.898L386.649 92.94L386.559 92.88L384.3 91.386H384.462C383.342 91.6229 382.18 91.7582 381.006 91.788L381.141 91.728C380.691 92.364 380.241 93.012 379.764 93.66L379.71 93.738H379.584L374.4 93H374.274V90.774C374.445 90.966 374.319 90.828 374.364 90.87C373.324 90.5097 372.361 90.0577 371.502 89.526H371.664L368.64 90.24L368.514 90.27L368.451 90.198L365.607 87.198L365.535 87.126L365.625 87.066L367.893 85.548V85.656C367.541 84.909 367.338 84.1343 367.29 83.352L367.38 83.442L364.5 82.494L364.392 82.458V82.38L365.562 78.924V78.846H368.883L368.757 78.894C369.304 78.2036 369.985 77.5642 370.782 76.992V77.082L369.711 75.06V75L369.801 74.958L374.301 73.068H374.382L374.445 73.11L376.722 74.628H376.614C377.728 74.3955 378.885 74.2644 380.052 74.238L379.971 74.274C380.475 73.578 380.943 72.924 381.357 72.342V72.3H381.42L386.595 73.098H386.64C386.64 73.788 386.64 74.298 386.64 74.688C386.64 74.862 386.64 75 386.64 75.096C386.62 75.1429 386.596 75.1889 386.568 75.234Z" fill="#E0E0E0"/>
<path d="M418.014 248.07C418.014 248.07 418.014 247.842 418.014 247.416C418.014 246.99 418.014 246.348 418.014 245.52C418.014 243.858 418.014 241.416 417.969 238.284C417.969 232.026 417.924 222.996 417.897 211.92L418.041 212.016L324.324 212.046L324.522 211.92C324.522 224.712 324.522 236.934 324.522 248.07L324.342 247.95L391.752 248.004L411.111 248.04H416.277H417.6H418.059H416.304H411.183L391.86 248.076L324.36 248.13H324.189V248.016C324.189 236.88 324.189 224.658 324.189 211.866V211.8H324.387H418.104H418.257V211.902C418.257 223.008 418.203 232.05 418.185 238.302C418.185 241.428 418.185 243.858 418.185 245.502C418.185 246.318 418.185 246.948 418.185 247.374C418.185 247.8 418.014 248.07 418.014 248.07Z" fill="#E0E0E0"/>
<path d="M418.05 216.294C418.05 216.366 397.089 216.42 371.25 216.42C345.411 216.42 324.45 216.366 324.45 216.294C324.45 216.222 345.402 216.168 371.25 216.168C397.098 216.168 418.05 216.222 418.05 216.294Z" fill="#E0E0E0"/>
<path d="M361.359 222.258H332.406V241.56H361.359V222.258Z" fill="#F5F5F5"/>
<path d="M411.219 225.438C411.079 225.451 410.936 225.451 410.796 225.438H409.572L405.072 225.474L390.258 225.516L375.444 225.474L370.944 225.438H369.72C369.58 225.451 369.437 225.451 369.297 225.438C369.438 225.428 369.579 225.428 369.72 225.438H370.944L375.444 225.396L390.258 225.36L405.072 225.396L409.572 225.438H410.796C410.937 225.428 411.078 225.428 411.219 225.438Z" fill="#E0E0E0"/>
<path d="M412.146 229.752C412.002 229.763 411.858 229.763 411.714 229.752H410.463L405.873 229.794L390.735 229.83L375.588 229.794L370.998 229.752H369.747C369.603 229.763 369.459 229.763 369.315 229.752C369.456 229.729 369.602 229.719 369.747 229.722H370.998L375.588 229.686L390.735 229.644L405.873 229.686L410.463 229.722H411.714C411.859 229.719 412.005 229.729 412.146 229.752Z" fill="#E0E0E0"/>
<path d="M412.146 234.06C412.003 234.073 411.857 234.073 411.714 234.06H410.463L405.873 234.096L390.735 234.138L375.588 234.096L370.998 234.06H369.747C369.604 234.073 369.458 234.073 369.315 234.06C369.459 234.05 369.603 234.05 369.747 234.06H370.998L375.588 234.018L390.735 233.982L405.9 234L410.49 234.042H411.741C411.877 234.039 412.012 234.045 412.146 234.06Z" fill="#E0E0E0"/>
<path d="M412.146 238.374C412.002 238.385 411.858 238.385 411.714 238.374H410.463L405.873 238.416L390.735 238.452L375.588 238.416L370.998 238.374H369.747C369.603 238.385 369.459 238.385 369.315 238.374C369.456 238.351 369.602 238.341 369.747 238.344H370.998L375.588 238.308L390.735 238.266L405.873 238.308L410.463 238.344H411.714C411.859 238.341 412.005 238.351 412.146 238.374Z" fill="#E0E0E0"/>
<path d="M119.241 50.856C117.852 51.0216 116.438 51.0779 115.029 51.024C113.62 51.0776 112.206 51.0212 110.817 50.856C112.206 50.6908 113.62 50.6344 115.029 50.688C116.438 50.6341 117.852 50.6904 119.241 50.856Z" fill="#E0E0E0"/>
<path d="M123.624 59.208C122.673 59.9273 121.605 60.5733 120.438 61.134C119.369 61.7743 118.194 62.3319 116.937 62.796C117.882 62.0731 118.952 61.4267 120.123 60.87C121.185 60.2236 122.36 59.6655 123.624 59.208Z" fill="#E0E0E0"/>
<path d="M134.415 65.664C133.786 66.5328 133.061 67.3691 132.246 68.166C131.571 69.02 130.804 69.8401 129.951 70.62C130.362 69.6844 130.99 68.7975 131.814 67.992C132.494 67.1306 133.372 66.3452 134.415 65.664Z" fill="#E0E0E0"/>
<path d="M146.907 73.992C146.656 73.0013 146.572 71.9951 146.655 70.992C146.572 69.9889 146.656 68.9827 146.907 67.992C147.158 68.9827 147.242 69.9889 147.159 70.992C147.242 71.9951 147.158 73.0013 146.907 73.992Z" fill="#E0E0E0"/>
<path d="M166.14 70.026C164.776 69.6125 163.531 69.044 162.459 68.346C161.282 67.7316 160.269 66.9891 159.462 66.15C160.624 66.757 161.736 67.406 162.792 68.094C163.959 68.6976 165.077 69.3425 166.14 70.026Z" fill="#E0E0E0"/>
<path d="M175.167 63.546C174.074 63.056 173.079 62.4753 172.206 61.818C171.22 61.2359 170.349 60.5725 169.614 59.844C170.704 60.3367 171.696 60.9193 172.566 61.578C173.554 62.1583 174.428 62.8195 175.167 63.546Z" fill="#E0E0E0"/>
<path d="M123.21 42.858C122.235 42.4454 121.356 41.9401 120.6 41.358C119.727 40.8542 118.969 40.268 118.35 39.618C119.325 40.0306 120.204 40.5359 120.96 41.118C121.833 41.6218 122.591 42.208 123.21 42.858Z" fill="#E0E0E0"/>
<path d="M134.352 35.034C133.395 34.644 132.53 34.1606 131.787 33.6C130.933 33.1002 130.195 32.5177 129.6 31.872C130.557 32.2723 131.418 32.7657 132.156 33.336C133.011 33.8256 133.751 34.398 134.352 35.034Z" fill="#E0E0E0"/>
<path d="M57.33 97.548H123.93C123.93 97.548 118.044 90.408 100.908 91.446C84.546 92.442 83.709 87.936 75.384 87.378C67.059 86.82 60.102 91.08 57.33 97.548Z" fill="#F5F5F5"/>
<path d="M201.42 178.242H255.303C255.303 178.242 250.542 172.464 236.673 173.304C223.425 174.108 222.75 170.46 215.973 170.01C209.196 169.56 203.661 173.004 201.42 178.242Z" fill="#F5F5F5"/>
<path d="M432.135 266.892C432.135 266.976 339.435 267.048 225.009 267.048C110.583 267.048 17.865 267 17.865 266.892C17.865 266.784 110.565 266.736 225.009 266.736C339.453 266.736 432.135 266.808 432.135 266.892Z" fill="#263238"/>
<path d="M409.671 87.078H278.919V145.446H409.671V87.078Z" fill="white"/>
<path d="M409.671 145.44C409.671 145.44 409.671 145.074 409.671 144.378V141.3C409.671 138.6 409.671 134.634 409.617 129.564C409.617 119.418 409.563 104.844 409.518 87.078L409.707 87.198L278.964 87.234L279.198 87.078C279.198 107.868 279.198 127.638 279.198 145.44L278.982 145.296L373.185 145.368L400.095 145.404H407.25H409.104H407.304H400.185L373.32 145.44L278.982 145.512H278.766V145.368C278.766 127.566 278.766 107.796 278.766 87.006V86.844H279.009L409.752 86.88H409.941V87.006C409.941 104.808 409.869 119.406 409.842 129.564C409.842 134.628 409.842 138.564 409.797 141.276C409.797 142.614 409.797 143.64 409.797 144.336C409.797 145.032 409.671 145.44 409.671 145.44Z" fill="#2C2C2C"/>
<path d="M278.919 92.286C278.919 92.196 308.169 92.13 344.241 92.13C380.313 92.13 409.563 92.196 409.563 92.286C409.563 92.376 380.322 92.442 344.241 92.442C308.16 92.442 278.919 92.4 278.919 92.286Z" fill="#2C2C2C"/>
<g opacity="0.3">
<path d="M284.076 89.658C284.076 89.7971 284.014 89.9331 283.898 90.0486C283.782 90.1642 283.617 90.2542 283.424 90.3071C283.231 90.3601 283.019 90.3736 282.814 90.346C282.61 90.3185 282.422 90.251 282.275 90.1522C282.128 90.0534 282.029 89.9278 281.989 89.7912C281.95 89.6547 281.972 89.5133 282.053 89.3852C282.134 89.257 282.27 89.1478 282.445 89.0714C282.619 88.995 282.823 88.9548 283.032 88.956C283.17 88.956 283.306 88.9742 283.434 89.0095C283.561 89.0449 283.676 89.0967 283.773 89.162C283.87 89.2272 283.947 89.3047 283.999 89.3898C284.051 89.4749 284.077 89.5661 284.076 89.658Z" fill="#2C2C2C"/>
</g>
<g opacity="0.3">
<path d="M287.667 89.658C287.667 89.7971 287.605 89.9331 287.489 90.0486C287.373 90.1642 287.208 90.2542 287.015 90.3071C286.822 90.3601 286.61 90.3736 286.405 90.346C286.201 90.3185 286.013 90.251 285.866 90.1522C285.719 90.0534 285.62 89.9278 285.58 89.7912C285.541 89.6547 285.563 89.5133 285.644 89.3852C285.725 89.257 285.861 89.1478 286.036 89.0714C286.21 88.995 286.414 88.9548 286.623 88.956C286.761 88.956 286.897 88.9742 287.025 89.0095C287.152 89.0449 287.267 89.0967 287.364 89.162C287.461 89.2272 287.538 89.3047 287.59 89.3898C287.642 89.4749 287.668 89.5661 287.667 89.658Z" fill="#2C2C2C"/>
</g>
<g opacity="0.3">
<path d="M291.204 89.658C291.204 89.7971 291.142 89.9331 291.026 90.0486C290.91 90.1642 290.745 90.2542 290.552 90.3071C290.359 90.3601 290.147 90.3736 289.942 90.346C289.738 90.3185 289.55 90.251 289.403 90.1522C289.256 90.0534 289.157 89.9278 289.117 89.7912C289.078 89.6547 289.1 89.5133 289.181 89.3852C289.262 89.257 289.398 89.1478 289.573 89.0714C289.747 88.995 289.951 88.9548 290.16 88.956C290.298 88.956 290.434 88.9742 290.562 89.0095C290.689 89.0449 290.804 89.0967 290.901 89.162C290.998 89.2272 291.075 89.3047 291.127 89.3898C291.179 89.4749 291.205 89.5661 291.204 89.658Z" fill="#2C2C2C"/>
</g>
<path d="M325.035 98.37H290.16V121.62H325.035V98.37Z" fill="#2C2C2C"/>
<path d="M391.743 104.94C391.743 105.03 378.135 105.096 361.359 105.096C344.583 105.096 330.975 105.03 330.975 104.94C330.975 104.85 344.583 104.784 361.359 104.784C378.135 104.784 391.743 104.856 391.743 104.94Z" fill="#2C2C2C"/>
<path d="M391.743 109.266C391.743 109.35 378.135 109.422 361.359 109.422C344.583 109.422 330.975 109.35 330.975 109.266C330.975 109.182 344.583 109.11 361.359 109.11C378.135 109.11 391.743 109.2 391.743 109.266Z" fill="#2C2C2C"/>
<path d="M391.743 113.586C391.743 113.67 378.135 113.742 361.359 113.742C344.583 113.742 330.975 113.67 330.975 113.586C330.975 113.502 344.583 113.43 361.359 113.43C378.135 113.43 391.743 113.496 391.743 113.586Z" fill="#2C2C2C"/>
<path d="M366.894 117.906C366.427 117.955 365.954 117.975 365.481 117.966L361.629 118.014C358.38 118.044 353.889 118.062 348.939 118.062C343.989 118.062 339.489 118.062 336.24 118.014L332.388 117.966C331.915 117.975 331.442 117.955 330.975 117.906C331.442 117.857 331.915 117.837 332.388 117.846L336.24 117.798C339.489 117.768 343.98 117.75 348.939 117.75C353.898 117.75 358.38 117.75 361.629 117.798L365.481 117.846C365.954 117.837 366.427 117.857 366.894 117.906Z" fill="#2C2C2C"/>
<g opacity="0.3">
<path d="M308.727 129.462H292.338V140.388H308.727V129.462Z" fill="#2C2C2C"/>
</g>
<path d="M338.454 129.462H322.065V140.388H338.454V129.462Z" fill="#2C2C2C"/>
<path d="M368.181 129.462H351.792V140.388H368.181V129.462Z" fill="#2C2C2C"/>
<path d="M397.908 129.462H381.519V140.388H397.908V129.462Z" fill="#2C2C2C"/>
<g opacity="0.3">
<path d="M325.035 98.37H290.16V121.62H325.035V98.37Z" fill="white"/>
</g>
<g opacity="0.3">
<path d="M338.454 129.462H322.065V140.388H338.454V129.462Z" fill="white"/>
</g>
<g opacity="0.3">
<path d="M368.181 129.462H351.792V140.388H368.181V129.462Z" fill="white"/>
</g>
<g opacity="0.3">
<path d="M397.908 129.462H381.519V140.388H397.908V129.462Z" fill="white"/>
</g>
<path d="M156.267 108.102H39.789V139.644H156.267V108.102Z" fill="white"/>
<path d="M156.267 139.644C156.267 139.644 156.267 139.452 156.267 139.08C156.267 138.708 156.267 138.162 156.267 137.442C156.267 136.002 156.267 133.89 156.267 131.166C156.267 125.724 156.267 117.846 156.195 108.102L156.321 108.186L39.852 108.222L40.041 108.102C40.041 119.148 40.041 129.81 40.041 139.644L39.861 139.524L123.372 139.578L147.6 139.614H154.089H155.763H154.125H147.681L123.498 139.644L39.861 139.698H39.6V108H39.789L156.258 108.042H156.393V108.126C156.393 117.894 156.339 125.784 156.321 131.244C156.321 133.956 156.321 136.044 156.321 137.502C156.321 138.21 156.321 138.75 156.321 139.122C156.321 139.494 156.267 139.644 156.267 139.644Z" fill="#2C2C2C"/>
<path d="M39.9059 112.356C39.9059 112.29 65.943 112.23 98.0459 112.23C130.149 112.23 156.204 112.29 156.204 112.356C156.204 112.422 130.167 112.476 98.0459 112.476C65.925 112.476 39.9059 112.422 39.9059 112.356Z" fill="#2C2C2C"/>
<g opacity="0.3">
<path d="M44.784 110.454C44.784 110.566 44.7344 110.675 44.6414 110.767C44.5484 110.86 44.4163 110.932 44.2617 110.975C44.1071 111.018 43.937 111.029 43.7729 111.007C43.6088 110.985 43.4581 110.932 43.3398 110.853C43.2215 110.774 43.1409 110.673 43.1082 110.564C43.0756 110.455 43.0923 110.341 43.1564 110.238C43.2204 110.135 43.3288 110.047 43.468 109.985C43.6071 109.923 43.7707 109.89 43.938 109.89C44.1624 109.89 44.3775 109.949 44.5362 110.055C44.6948 110.161 44.784 110.304 44.784 110.454Z" fill="#2C2C2C"/>
</g>
<g opacity="0.3">
<path d="M47.7 110.454C47.7 110.566 47.6504 110.675 47.5574 110.767C47.4645 110.86 47.3323 110.932 47.1777 110.975C47.0232 111.018 46.8531 111.029 46.6889 111.007C46.5248 110.985 46.3741 110.932 46.2558 110.853C46.1375 110.774 46.0569 110.673 46.0243 110.564C45.9916 110.455 46.0084 110.341 46.0724 110.238C46.1364 110.135 46.2449 110.047 46.384 109.985C46.5231 109.923 46.6867 109.89 46.854 109.89C47.0784 109.89 47.2936 109.949 47.4522 110.055C47.6109 110.161 47.7 110.304 47.7 110.454Z" fill="#2C2C2C"/>
</g>
<g opacity="0.3">
<path d="M50.535 110.454C50.535 110.566 50.4853 110.675 50.3924 110.767C50.2994 110.86 50.1673 110.932 50.0127 110.975C49.8581 111.018 49.688 111.029 49.5239 111.007C49.3598 110.985 49.2091 110.932 49.0907 110.853C48.9724 110.774 48.8919 110.673 48.8592 110.564C48.8266 110.455 48.8433 110.341 48.9074 110.238C48.9714 110.135 49.0798 110.047 49.2189 109.985C49.3581 109.923 49.5216 109.89 49.689 109.89C49.9133 109.89 50.1285 109.949 50.2872 110.055C50.4458 110.161 50.535 110.304 50.535 110.454Z" fill="#2C2C2C"/>
</g>
<path d="M77.823 117.48H49.689V136.236H77.823V117.48Z" fill="#2C2C2C"/>
<path d="M148.212 122.508C148.212 122.574 133.731 122.634 115.875 122.634C98.019 122.634 83.538 122.574 83.538 122.508C83.538 122.442 98.019 122.388 115.875 122.388C133.731 122.388 148.212 122.442 148.212 122.508Z" fill="#2C2C2C"/>
<path d="M148.212 126.33C148.212 126.396 133.731 126.45 115.875 126.45C98.019 126.45 83.538 126.396 83.538 126.33C83.538 126.264 98.019 126.204 115.875 126.204C133.731 126.204 148.212 126.264 148.212 126.33Z" fill="#2C2C2C"/>
<path d="M125.172 130.152C125.031 130.158 124.89 130.158 124.749 130.152H123.534L119.079 130.188L104.355 130.224L89.64 130.188L85.14 130.152H83.925C83.7841 130.158 83.6428 130.158 83.502 130.152C83.6422 130.138 83.7847 130.138 83.925 130.152H85.14L89.64 130.11L104.355 130.074L119.079 130.11L123.534 130.152H124.749C124.889 130.138 125.032 130.138 125.172 130.152Z" fill="#2C2C2C"/>
<g opacity="0.3">
<path d="M77.823 117.48H49.689V136.236H77.823V117.48Z" fill="#F5F5F5"/>
</g>
<path d="M241.857 68.466C239.904 67.596 237.222 68.124 235.269 68.994C233.316 69.864 231.669 71.052 229.464 71.616C225.36 72.678 219.969 71.418 216.783 73.416C214.758 74.7 214.551 76.812 213.003 78.366C210.393 80.982 204.129 81.966 203.598 85.086C203.283 86.886 205.443 88.65 208.098 89.16C209.439 89.3698 210.832 89.3852 212.183 89.2051C213.534 89.025 214.811 88.6536 215.928 88.116C218.628 86.916 220.707 85.116 223.749 84.432C226.791 83.748 230.706 84.318 233.163 82.872C235.62 81.426 235.251 78.756 237.015 76.908C238.076 75.9792 239.334 75.1586 240.75 74.472C242.073 73.71 243.333 72.768 243.558 71.61C243.783 70.452 243.072 68.478 241.875 68.436" fill="#F5F5F5"/>
<path d="M191.142 195.936C191.259 195.894 191.619 196.134 191.961 196.476C192.303 196.818 192.492 197.142 192.384 197.19C192.276 197.238 191.916 196.998 191.565 196.65C191.214 196.302 191.034 195.984 191.142 195.936Z" fill="#263238"/>
<path d="M187.29 190.524C187.776 190.916 188.14 191.369 188.361 191.856C188.717 192.305 188.934 192.796 189 193.302C188.15 192.464 187.567 191.519 187.29 190.524Z" fill="#263238"/>
<path d="M185.202 184.692C185.779 185.628 186.058 186.633 186.021 187.644C185.662 187.196 185.444 186.704 185.382 186.198C185.171 185.709 185.11 185.197 185.202 184.692Z" fill="#263238"/>
<path d="M184.887 178.698C185.172 179.69 185.151 180.711 184.824 181.698C184.595 181.214 184.525 180.702 184.617 180.198C184.547 179.691 184.639 179.18 184.887 178.698Z" fill="#263238"/>
<path d="M186.3 172.8C186.373 173.306 186.29 173.816 186.057 174.3C185.967 174.804 185.729 175.292 185.355 175.734C185.283 175.228 185.365 174.718 185.598 174.234C185.689 173.73 185.928 173.243 186.3 172.8Z" fill="#263238"/>
<path d="M189.576 167.19C189.276 168.177 188.662 169.11 187.776 169.926C187.866 169.421 188.108 168.933 188.487 168.492C189 167.73 189.459 167.148 189.576 167.19Z" fill="#263238"/>
<path d="M194.535 162.186C194.286 162.667 193.894 163.11 193.383 163.488C192.978 163.916 192.463 164.294 191.862 164.604C191.736 164.55 192.258 163.968 193.005 163.302C193.752 162.636 194.4 162.132 194.535 162.186Z" fill="#263238"/>
<path d="M200.583 157.746C200.682 157.806 200.061 158.346 199.206 158.946C198.351 159.546 197.577 159.978 197.478 159.924C197.379 159.87 198 159.324 198.864 158.724C199.728 158.124 200.493 157.68 200.583 157.746Z" fill="#263238"/>
<path d="M206.919 153.474C207.018 153.534 206.379 154.074 205.506 154.674C204.633 155.274 203.85 155.694 203.76 155.634C203.67 155.574 204.3 155.034 205.173 154.434C206.046 153.834 206.829 153.414 206.919 153.474Z" fill="#263238"/>
<path d="M212.841 148.95C212.556 149.422 212.13 149.851 211.59 150.21C210.798 150.858 210.078 151.332 209.979 151.272C210.272 150.803 210.697 150.375 211.23 150.012C212.013 149.4 212.733 148.902 212.841 148.95Z" fill="#263238"/>
<path d="M217.431 143.802C217.35 144.311 217.091 144.8 216.675 145.23C216.389 145.705 215.943 146.131 215.37 146.472C215.545 145.978 215.849 145.509 216.27 145.086C216.545 144.617 216.938 144.183 217.431 143.802Z" fill="#263238"/>
<path d="M219.6 138C219.775 138.499 219.76 139.018 219.555 139.512C219.503 140.024 219.265 140.521 218.862 140.958C218.816 140.455 218.895 139.95 219.096 139.464C219.145 138.961 219.315 138.467 219.6 138Z" fill="#263238"/>
<path d="M218.952 132.042C219.351 132.48 219.58 132.977 219.618 133.488C219.803 133.986 219.803 134.507 219.618 135.006C219.335 134.537 219.17 134.041 219.132 133.536C218.951 133.048 218.89 132.543 218.952 132.042Z" fill="#263238"/>
<path d="M215.415 126.552C215.523 126.504 216.18 127.026 216.774 127.752C217.203 128.179 217.468 128.669 217.548 129.18C217.052 128.799 216.651 128.367 216.36 127.902C215.944 127.487 215.625 127.031 215.415 126.552Z" fill="#263238"/>
<path d="M209.142 122.292C209.876 122.445 210.543 122.715 211.086 123.078C212.049 123.618 212.679 124.158 212.589 124.218C212.499 124.278 211.689 123.846 210.789 123.318C209.889 122.79 209.061 122.364 209.142 122.292Z" fill="#263238"/>
<path d="M200.961 119.856C201.728 119.825 202.494 119.92 203.193 120.132C203.944 120.248 204.641 120.487 205.218 120.828C204.465 120.771 203.73 120.636 203.04 120.426C202.304 120.316 201.6 120.123 200.961 119.856Z" fill="#263238"/>
<path d="M192.015 119.586C192.704 119.357 193.469 119.25 194.238 119.274C195.002 119.199 195.781 119.252 196.506 119.43C195.775 119.557 195.02 119.609 194.265 119.586C193.52 119.665 192.76 119.665 192.015 119.586Z" fill="#263238"/>
<path d="M183.717 121.8C183.636 121.728 184.41 121.278 185.517 120.882C186.154 120.591 186.897 120.419 187.668 120.384C187.081 120.7 186.43 120.959 185.733 121.152C185.113 121.434 184.434 121.652 183.717 121.8Z" fill="#263238"/>
<path d="M177.534 126.108C177.73 125.611 178.111 125.155 178.641 124.782C179.406 124.116 180.198 123.678 180.288 123.738C180.378 123.798 179.757 124.338 179.01 124.974C178.263 125.61 177.642 126.15 177.534 126.108Z" fill="#263238"/>
<path d="M174.501 131.712C174.36 131.207 174.418 130.685 174.672 130.2C174.785 129.688 175.095 129.204 175.572 128.796C175.544 129.299 175.401 129.797 175.149 130.272C175.045 130.771 174.827 131.257 174.501 131.712Z" fill="#263238"/>
<path d="M175.572 137.622C175.095 137.214 174.785 136.73 174.672 136.218C174.413 135.733 174.351 135.212 174.492 134.706C174.804 135.164 175.019 135.649 175.131 136.146C175.384 136.621 175.533 137.118 175.572 137.622Z" fill="#263238"/>
<path d="M180.135 142.758C180.036 142.818 179.289 142.35 178.56 141.666C178.051 141.282 177.689 140.82 177.507 140.322C177.624 140.28 178.218 140.82 178.938 141.486C179.438 141.864 179.843 142.293 180.135 142.758Z" fill="#263238"/>
<path d="M186.759 146.808C186.032 146.645 185.37 146.375 184.824 146.016C183.843 145.494 183.168 144.984 183.258 144.918C183.945 145.131 184.572 145.421 185.112 145.776C186.075 146.292 186.84 146.736 186.759 146.808Z" fill="#263238"/>
<path d="M194.562 149.79C193.095 149.529 191.728 149.065 190.548 148.428C191.299 148.514 192.018 148.698 192.663 148.968C193.373 149.154 194.019 149.433 194.562 149.79Z" fill="#263238"/>
<path d="M203.13 151.608C202.366 151.666 201.593 151.605 200.871 151.428C200.111 151.353 199.389 151.157 198.765 150.858C199.523 150.866 200.274 150.957 200.988 151.128C201.739 151.202 202.464 151.365 203.13 151.608Z" fill="#263238"/>
<path d="M212.094 151.914C210.632 152.213 209.073 152.234 207.594 151.974C208.324 151.845 209.082 151.8 209.835 151.842C210.589 151.782 211.352 151.807 212.094 151.914Z" fill="#263238"/>
<path d="M220.752 150.372C219.515 150.971 218.048 151.323 216.522 151.386C217.156 151.11 217.856 150.907 218.592 150.786C219.271 150.567 220.002 150.427 220.752 150.372Z" fill="#263238"/>
<path d="M228.258 147.09C228.348 147.156 227.664 147.69 226.665 148.17C226.106 148.52 225.43 148.777 224.694 148.92C224.622 148.842 225.405 148.428 226.386 147.924C226.94 147.581 227.571 147.3 228.258 147.09Z" fill="#263238"/>
<path d="M234.117 142.554C233.909 143.046 233.529 143.498 233.01 143.874C232.263 144.546 231.516 145.008 231.417 144.954C231.318 144.9 231.903 144.354 232.641 143.688C233.379 143.022 234 142.506 234.117 142.554Z" fill="#263238"/>
<path d="M238.014 137.154C238.011 137.666 237.823 138.171 237.465 138.624C236.997 139.404 236.448 139.98 236.331 139.938C236.439 139.439 236.674 138.957 237.024 138.51C237.24 138.025 237.575 137.567 238.014 137.154Z" fill="#263238"/>
<path d="M239.76 131.28C239.955 132.289 239.744 133.314 239.148 134.25C239.123 133.245 239.329 132.243 239.76 131.28Z" fill="#263238"/>
<path d="M239.526 125.286C239.819 125.755 239.96 126.26 239.94 126.768C240.069 127.27 240.048 127.784 239.877 128.28C239.454 127.306 239.335 126.285 239.526 125.28V125.286Z" fill="#263238"/>
<path d="M237.6 119.43C238.017 119.857 238.296 120.337 238.419 120.84C238.69 121.314 238.812 121.821 238.779 122.328C238.366 121.9 238.088 121.42 237.96 120.918C237.688 120.444 237.566 119.937 237.6 119.43Z" fill="#263238"/>
<path d="M234.126 113.886C234.243 113.844 234.783 114.42 235.323 115.17C235.704 115.612 235.943 116.103 236.025 116.61C235.163 115.781 234.521 114.86 234.126 113.886Z" fill="#263238"/>
<path d="M229.698 108.66C229.815 108.612 230.409 109.158 231.039 109.86C231.477 110.272 231.783 110.74 231.939 111.234C231.379 110.896 230.923 110.489 230.598 110.034C230.168 109.619 229.862 109.152 229.698 108.66Z" fill="#263238"/>
<path d="M225.234 103.446C225.351 103.404 225.927 103.962 226.53 104.682C226.965 105.102 227.271 105.575 227.43 106.074C226.879 105.721 226.438 105.299 226.134 104.832C225.694 104.416 225.387 103.944 225.234 103.446Z" fill="#263238"/>
<path d="M221.715 97.926C222.53 98.7802 223.066 99.7388 223.29 100.74C222.814 100.341 222.47 99.8785 222.282 99.384C221.946 98.9287 221.753 98.4326 221.715 97.926Z" fill="#263238"/>
<path d="M220.185 92.028C220.45 92.5021 220.584 93.0041 220.581 93.51C220.737 94.0032 220.765 94.5106 220.662 95.01C220.308 94.556 220.122 94.0518 220.122 93.54C219.966 93.0396 219.988 92.5219 220.185 92.028Z" fill="#263238"/>
<path d="M220.932 86.058C221.004 86.5605 220.949 87.0675 220.77 87.558C220.738 88.0638 220.57 88.5616 220.275 89.028C220.101 88.5287 220.101 88.0093 220.275 87.51C220.319 86.9982 220.544 86.5007 220.932 86.058Z" fill="#263238"/>
<path d="M223.866 80.4C223.751 80.9001 223.508 81.3833 223.146 81.828C222.923 82.3109 222.579 82.7653 222.129 83.172C222.32 82.1601 222.921 81.2018 223.866 80.4Z" fill="#263238"/>
<path d="M228.879 75.426C228.978 75.486 228.384 76.026 227.628 76.68C226.872 77.334 226.233 77.88 226.125 77.802C226.339 77.3095 226.728 76.8586 227.259 76.488C228.024 75.828 228.789 75.372 228.879 75.426Z" fill="#263238"/>
<path d="M235.638 71.478C235.71 71.55 234.927 71.976 233.955 72.48C233.403 72.8269 232.767 73.1089 232.074 73.314C231.984 73.248 232.677 72.714 233.667 72.234C234.226 71.8824 234.901 71.6234 235.638 71.478Z" fill="#263238"/>
<path d="M243.648 68.766C243.042 69.0695 242.363 69.3028 241.641 69.456C240.982 69.7031 240.263 69.8717 239.517 69.954C239.454 69.876 240.309 69.504 241.461 69.174C242.129 68.9215 242.88 68.7814 243.648 68.766Z" fill="#263238"/>
<path d="M250.2 67.662C250.2 67.746 249.741 67.878 249.138 67.95C248.535 68.022 248.013 68.022 247.986 67.95C247.959 67.878 248.436 67.734 249.048 67.656C249.66 67.578 250.2 67.578 250.2 67.662Z" fill="#263238"/>
<path d="M268.542 49.998C268.542 49.998 279.108 44.97 293.742 48.198C293.742 48.198 294.939 56.274 283.212 62.694" fill="#3EAFA9"/>
<path d="M235.215 64.914C235.665 65.364 247.14 77.658 247.14 77.658L281.583 63.51C283.005 62.9259 284.229 62.1513 285.178 61.2354C286.127 60.3194 286.781 59.282 287.097 58.1889C287.414 57.0958 287.386 55.9707 287.016 54.8851C286.646 53.7994 285.942 52.7768 284.949 51.882C283.103 50.2211 280.368 49.0985 277.312 48.7476C274.256 48.3967 271.115 48.8445 268.542 49.998L235.215 64.914Z" fill="#3EAFA9"/>
<path d="M247.14 77.658L246.366 86.31C246.366 86.31 268.686 79.11 263.115 71.094L247.14 77.658Z" fill="#263238"/>
<path d="M251.172 57.774C251.172 57.774 236.034 53.322 223.578 59.85L235.215 64.914L251.172 57.774Z" fill="#263238"/>
<path d="M251.1 64.92L229.563 73.92C229.563 73.92 230.301 75.468 230.877 75.336C231.453 75.204 247.554 68.856 252.801 66.786C253.002 66.7064 253.174 66.5989 253.306 66.4708C253.439 66.3427 253.528 66.197 253.568 66.0438C253.609 65.8905 253.599 65.7332 253.539 65.5828C253.48 65.4323 253.372 65.2922 253.224 65.172C252.977 64.9645 252.625 64.8244 252.234 64.778C251.842 64.7316 251.439 64.7821 251.1 64.92Z" fill="#263238"/>
<path d="M277.625 59.1642C278.497 56.6934 276.2 54.2191 272.493 53.6378C268.787 53.0564 265.076 54.5881 264.204 57.059C263.332 59.5298 265.629 62.0041 269.336 62.5854C273.042 63.1668 276.753 61.635 277.625 59.1642Z" fill="#FAFAFA"/>
<path d="M277.803 58.11C277.749 58.11 277.803 57.702 277.497 57.006C277.095 56.0206 276.207 55.1541 274.977 54.546C274.141 54.1279 273.17 53.8464 272.142 53.724C270.966 53.5842 269.754 53.6546 268.632 53.928C267.377 54.2241 266.286 54.7657 265.5 55.482C264.658 56.2432 264.204 57.1642 264.204 58.11C264.204 59.0558 264.658 59.9768 265.5 60.738C266.278 61.4506 267.355 61.9935 268.596 62.298C269.719 62.5711 270.929 62.6415 272.106 62.502C273.134 62.3796 274.105 62.0981 274.941 61.68C276.169 61.0705 277.057 60.2045 277.461 59.22C277.74 58.524 277.713 58.11 277.767 58.11C277.79 58.2094 277.79 58.3106 277.767 58.41C277.764 58.693 277.713 58.9748 277.614 59.25C277.309 60.1237 276.631 60.9197 275.661 61.5416C274.692 62.1636 273.472 62.5847 272.151 62.754C270.836 62.9256 269.475 62.844 268.227 62.5189C266.979 62.1938 265.896 61.6385 265.104 60.918C264.198 60.1064 263.709 59.1216 263.709 58.11C263.709 57.0983 264.198 56.1136 265.104 55.302C265.937 54.5433 267.095 53.9702 268.425 53.658C269.54 53.3886 270.74 53.3128 271.912 53.4377C273.083 53.5626 274.187 53.8841 275.121 54.372C276.41 55.0204 277.315 55.9509 277.677 57C277.776 57.2752 277.827 57.557 277.83 57.84C277.841 57.9304 277.832 58.0214 277.803 58.11Z" fill="#263238"/>
<path d="M286.2 61.2C286.11 61.2 286.011 60.306 285.48 58.908C285.166 58.0903 284.766 57.2883 284.283 56.508C283.084 54.6032 281.39 52.8544 279.279 51.342C278.414 50.7267 277.485 50.1532 276.498 49.626C274.797 48.732 273.618 48.3 273.663 48.246C273.963 48.3131 274.25 48.4037 274.518 48.516C274.849 48.6304 275.17 48.7566 275.481 48.894C275.841 49.056 276.264 49.224 276.696 49.452C277.73 49.9595 278.697 50.5256 279.585 51.144C281.784 52.6562 283.515 54.4422 284.679 56.4C285.155 57.1959 285.531 58.0167 285.804 58.854C285.939 59.208 285.993 59.538 286.065 59.826C286.125 60.0703 286.164 60.3167 286.182 60.564C286.234 60.7743 286.24 60.9885 286.2 61.2Z" fill="#263238"/>
<path d="M284.346 61.836C284.256 61.836 284.148 60.93 283.608 59.508C283.288 58.6783 282.882 57.8644 282.393 57.072C281.779 56.1057 281.048 55.1746 280.206 54.288C279.348 53.4096 278.385 52.5789 277.326 51.804C276.448 51.1736 275.504 50.5861 274.5 50.046C272.781 49.128 271.584 48.684 271.629 48.63C271.945 48.699 272.247 48.7937 272.529 48.912C272.862 49.0288 273.183 49.159 273.492 49.302C273.861 49.464 274.293 49.644 274.725 49.902C275.762 50.4163 276.737 50.984 277.641 51.6C278.739 52.3774 279.73 53.2187 280.602 54.114C281.454 55.0176 282.186 55.9693 282.789 56.958C283.271 57.768 283.653 58.6027 283.932 59.454C284.067 59.814 284.121 60.15 284.193 60.438C284.259 60.6859 284.301 60.9364 284.319 61.188C284.364 61.4026 284.373 61.62 284.346 61.836Z" fill="#263238"/>
<path d="M368.496 172.656H362.223V186.168H368.496V172.656Z" fill="#555656"/>
<path d="M380.043 167.094H373.77V186.162H380.043V167.094Z" fill="#555656"/>
<path d="M392.328 164.496H386.055V186.162H392.328V164.496Z" fill="#555656"/>
<path d="M404.622 161.76H398.349V186.168H404.622V161.76Z" fill="#555656"/>
<path d="M150.768 190.2C151.238 190.244 151.694 190.339 152.118 190.482C153.114 190.806 153.948 191.315 154.521 191.947C155.094 192.579 155.382 193.308 155.349 194.046C155.321 194.742 155.01 195.421 154.449 196.008C153.826 196.661 152.928 197.177 151.866 197.49C150.726 197.828 149.452 197.912 148.235 197.729C147.017 197.546 145.92 197.107 145.107 196.476C144.731 196.18 144.427 195.846 144.207 195.486C143.974 195.144 143.825 194.779 143.766 194.406C143.636 193.714 143.788 193.011 144.207 192.372C144.647 191.694 145.372 191.116 146.296 190.708C147.22 190.3 148.301 190.08 149.409 190.074C149.884 190.062 150.359 190.105 150.813 190.2C150.813 190.2 150.309 190.134 149.418 190.158C148.149 190.192 146.934 190.511 145.971 191.064C145.308 191.438 144.787 191.911 144.45 192.444C144.068 193.056 143.934 193.725 144.063 194.382C144.129 194.735 144.274 195.079 144.495 195.402C144.717 195.744 145.021 196.06 145.395 196.338C146.169 196.93 147.206 197.342 148.355 197.514C149.505 197.686 150.706 197.608 151.785 197.292C152.3 197.146 152.775 196.943 153.189 196.692C153.601 196.462 153.956 196.191 154.242 195.888C154.661 195.45 154.939 194.958 155.058 194.444C155.176 193.931 155.134 193.406 154.932 192.904C154.731 192.402 154.375 191.933 153.888 191.528C153.4 191.122 152.791 190.788 152.1 190.548C151.263 190.266 150.759 190.2 150.768 190.2Z" fill="#263238"/>
<path d="M155.34 186.114C155.336 186.07 155.336 186.026 155.34 185.982C155.34 185.88 155.34 185.748 155.34 185.574C155.34 185.202 155.34 184.668 155.34 183.972L155.385 184.008L150.192 183.252L150.282 183.222L148.914 185.16V185.196H148.851C147.701 185.229 146.563 185.364 145.467 185.598H145.404L145.359 185.568L143.073 184.062H143.1L138.6 185.97L138.654 185.868L139.734 187.884V187.932L139.68 187.974C138.904 188.538 138.241 189.168 137.709 189.846V189.894H137.7H134.496L134.631 189.816C134.271 190.902 133.875 192.072 133.479 193.272L133.398 193.158L136.296 194.076L136.377 194.106V194.166C136.428 194.93 136.625 195.686 136.962 196.416V196.476L136.89 196.524L134.622 198.042V197.91L137.466 200.91L137.277 200.862L140.301 200.142H140.4L140.472 200.184C141.309 200.704 142.248 201.146 143.262 201.498C143.307 201.54 143.181 201.402 143.352 201.594V203.73L143.226 203.622L148.41 204.402L148.23 204.462C148.689 203.808 149.13 203.166 149.607 202.524L149.652 202.47H149.751C150.894 202.441 152.026 202.31 153.117 202.08H153.216L153.279 202.122L155.556 203.64H155.358L159.858 201.75L159.795 201.864C159.426 201.18 159.075 200.508 158.715 199.848V199.794L158.778 199.746C159.559 199.185 160.225 198.558 160.758 197.88V197.832H164.052L163.926 197.904C164.34 196.704 164.727 195.54 165.096 194.442L165.168 194.538L162.27 193.614H162.207V193.566C162.168 192.8 161.974 192.041 161.631 191.31V191.268V191.238L163.908 189.72V189.804L161.082 186.804H161.172L158.139 187.506C157.502 187.113 156.812 186.759 156.078 186.45L155.52 186.228L155.34 186.15L155.538 186.21L156.105 186.414C156.856 186.713 157.562 187.061 158.211 187.452H158.157L161.172 186.72H161.226V186.756L164.088 189.756V189.798L164.034 189.84L161.775 191.358V191.286C162.132 192.03 162.335 192.803 162.378 193.584L162.315 193.518L165.222 194.43L165.312 194.46V194.526C164.952 195.618 164.565 196.764 164.16 197.982V198.054H160.839L160.965 198.006C160.423 198.699 159.745 199.341 158.949 199.914V199.818C159.3 200.478 159.669 201.15 160.029 201.834L160.074 201.912L159.966 201.954L155.466 203.85L155.358 203.898L155.268 203.838L152.991 202.326H153.153C152.033 202.563 150.871 202.698 149.697 202.728L149.832 202.668C149.382 203.304 148.932 203.952 148.455 204.6L148.401 204.678H148.275L143.091 203.904H142.965V201.6C143.136 201.792 142.965 201.654 143.055 201.696C142.015 201.336 141.052 200.884 140.193 200.352H140.355L137.331 201.066L137.205 201.096L137.142 201.024L134.298 198.024L134.226 197.952L134.316 197.892L136.584 196.374V196.482C136.232 195.735 136.029 194.96 135.981 194.178L136.071 194.262L133.2 193.374L133.092 193.338V193.26L134.262 189.804V189.726H137.7L137.583 189.774C138.124 189.083 138.802 188.443 139.599 187.872V187.962L138.528 185.94V185.874L138.618 185.838L143.118 183.948L143.199 183.918L143.271 183.96L145.539 185.478H145.431C146.546 185.246 147.702 185.114 148.869 185.088L148.788 185.124L150.183 183.192V183.15H150.246L155.421 183.948H155.466C155.466 184.638 155.466 185.148 155.466 185.538C155.466 185.712 155.466 185.85 155.466 185.946C155.43 186.004 155.388 186.06 155.34 186.114Z" fill="#263238"/>
<path fill-rule="evenodd" clip-rule="evenodd" d="M145.548 159.198C146.685 159.594 147.738 160.088 148.68 160.668L152.028 159.876L155.169 163.182L152.667 164.862C153.051 165.679 153.272 166.526 153.324 167.382L156.528 168.396L155.241 172.2H151.695C151.098 172.958 150.354 173.66 149.481 174.288L150.678 176.52L145.71 178.614L143.19 177C141.967 177.255 140.699 177.403 139.419 177.438L137.898 179.574L132.165 178.716V176.352C131.027 175.955 129.974 175.459 129.033 174.876L125.685 175.674L122.535 172.362L125.046 170.688C124.664 169.871 124.443 169.023 124.389 168.168L121.185 167.154L122.463 163.332H126C126.592 162.573 127.333 161.871 128.205 161.244L127.026 159L131.985 156.9L134.505 158.574C135.731 158.318 137.002 158.171 138.285 158.136L139.806 156L145.539 156.858V159.222L145.548 159.198ZM140.49 163.698C139.274 163.517 138.006 163.58 136.844 163.879C135.682 164.178 134.679 164.7 133.962 165.379C133.245 166.059 132.846 166.864 132.816 167.694C132.786 168.524 133.125 169.342 133.791 170.044C134.458 170.745 135.421 171.299 136.56 171.636C137.699 171.973 138.961 172.077 140.189 171.935C141.416 171.793 142.553 171.412 143.456 170.84C144.358 170.268 144.986 169.53 145.26 168.72C145.442 168.181 145.463 167.624 145.322 167.08C145.181 166.536 144.88 166.016 144.437 165.55C143.994 165.083 143.417 164.68 142.74 164.362C142.063 164.044 141.298 163.819 140.49 163.698Z" fill="#3EAFA9"/>
<g opacity="0.8">
<path fill-rule="evenodd" clip-rule="evenodd" d="M145.548 159.198C146.685 159.594 147.738 160.088 148.68 160.668L152.028 159.876L155.169 163.182L152.667 164.862C153.051 165.679 153.272 166.526 153.324 167.382L156.528 168.396L155.241 172.2H151.695C151.098 172.958 150.354 173.66 149.481 174.288L150.678 176.52L145.71 178.614L143.19 177C141.967 177.255 140.699 177.403 139.419 177.438L137.898 179.574L132.165 178.716V176.352C131.027 175.955 129.974 175.459 129.033 174.876L125.685 175.674L122.535 172.362L125.046 170.688C124.664 169.871 124.443 169.023 124.389 168.168L121.185 167.154L122.463 163.332H126C126.592 162.573 127.333 161.871 128.205 161.244L127.026 159L131.985 156.9L134.505 158.574C135.731 158.318 137.002 158.171 138.285 158.136L139.806 156L145.539 156.858V159.222L145.548 159.198ZM140.49 163.698C139.274 163.517 138.006 163.58 136.844 163.879C135.682 164.178 134.679 164.7 133.962 165.379C133.245 166.059 132.846 166.864 132.816 167.694C132.786 168.524 133.125 169.342 133.791 170.044C134.458 170.745 135.421 171.299 136.56 171.636C137.699 171.973 138.961 172.077 140.189 171.935C141.416 171.793 142.553 171.412 143.456 170.84C144.358 170.268 144.986 169.53 145.26 168.72C145.442 168.181 145.463 167.624 145.322 167.08C145.181 166.536 144.88 166.016 144.437 165.55C143.994 165.083 143.417 164.68 142.74 164.362C142.063 164.044 141.298 163.819 140.49 163.698Z" fill="white"/>
</g>
<path fill-rule="evenodd" clip-rule="evenodd" d="M124.812 181.722C125.466 181.952 126.071 182.238 126.612 182.574L128.565 182.112L130.365 184.038L128.907 185.016C129.132 185.491 129.262 185.983 129.294 186.48L131.157 187.08L130.5 189.3H128.43C128.084 189.735 127.654 190.139 127.152 190.5L127.845 191.796L124.947 192.996L123.489 192.024C122.774 192.171 122.032 192.256 121.284 192.276L120.384 193.524L117.045 193.02V191.646C116.39 191.415 115.784 191.127 115.245 190.788L113.292 191.25L111.492 189.324L112.95 188.346C112.728 187.871 112.601 187.379 112.572 186.882L110.7 186.282L111.447 184.056H113.4C113.751 183.621 114.183 183.218 114.687 182.856L113.994 181.56L116.883 180.36L118.35 181.338C119.061 181.185 119.8 181.098 120.546 181.08L121.446 179.838L124.785 180.336V181.716L124.812 181.722ZM121.869 184.338C121.16 184.231 120.42 184.266 119.741 184.44C119.063 184.614 118.477 184.918 118.058 185.313C117.639 185.709 117.405 186.179 117.387 186.663C117.368 187.147 117.566 187.625 117.954 188.034C118.343 188.443 118.905 188.767 119.569 188.963C120.233 189.16 120.97 189.22 121.686 189.137C122.402 189.055 123.065 188.832 123.591 188.498C124.117 188.164 124.482 187.733 124.641 187.26C124.853 186.628 124.681 185.965 124.161 185.417C123.641 184.869 122.817 184.481 121.869 184.338Z" fill="#3EAFA9"/>
<g opacity="0.4">
<path fill-rule="evenodd" clip-rule="evenodd" d="M124.812 181.722C125.466 181.952 126.071 182.238 126.612 182.574L128.565 182.112L130.365 184.038L128.907 185.016C129.132 185.491 129.262 185.983 129.294 186.48L131.157 187.08L130.5 189.3H128.43C128.084 189.735 127.654 190.139 127.152 190.5L127.845 191.796L124.947 192.996L123.489 192.024C122.774 192.171 122.032 192.256 121.284 192.276L120.384 193.524L117.045 193.02V191.646C116.39 191.415 115.784 191.127 115.245 190.788L113.292 191.25L111.492 189.324L112.95 188.346C112.728 187.871 112.601 187.379 112.572 186.882L110.7 186.282L111.447 184.056H113.4C113.751 183.621 114.183 183.218 114.687 182.856L113.994 181.56L116.883 180.36L118.35 181.338C119.061 181.185 119.8 181.098 120.546 181.08L121.446 179.838L124.785 180.336V181.716L124.812 181.722ZM121.869 184.338C121.16 184.231 120.42 184.266 119.741 184.44C119.063 184.614 118.477 184.918 118.058 185.313C117.639 185.709 117.405 186.179 117.387 186.663C117.368 187.147 117.566 187.625 117.954 188.034C118.343 188.443 118.905 188.767 119.569 188.963C120.233 189.16 120.97 189.22 121.686 189.137C122.402 189.055 123.065 188.832 123.591 188.498C124.117 188.164 124.482 187.733 124.641 187.26C124.853 186.628 124.681 185.965 124.161 185.417C123.641 184.869 122.817 184.481 121.869 184.338Z" fill="white"/>
</g>
<path d="M323.577 159.642C325.465 159.28 327.116 158.507 328.269 157.447C329.422 156.387 330.011 155.101 329.94 153.792C329.832 152.592 329.175 151.476 329.247 150.3C329.364 148.5 331.182 146.934 332.55 145.35C333.918 143.766 334.827 141.684 333.234 140.196C332.208 139.23 330.381 138.798 329.13 137.958C327.879 137.118 327.33 135.996 326.664 134.922C325.998 133.848 325.161 132.738 323.649 132.168C322.137 131.598 319.824 131.844 319.203 132.93" fill="#263238"/>
<path d="M307.233 130.044C309.933 128.898 310.581 126.252 309.114 124.362C307.647 122.472 304.551 121.32 301.401 120.978C299.109 120.746 296.767 120.878 294.567 121.364C292.366 121.85 290.369 122.676 288.738 123.774C287.001 124.974 285.588 126.528 283.23 127.074C281.16 127.56 278.865 127.122 276.687 127.314C275.235 127.489 273.859 127.878 272.662 128.454C271.464 129.029 270.475 129.775 269.766 130.638C268.372 132.374 267.535 134.285 267.309 136.248C266.994 138.048 266.778 139.998 264.924 141.3C263.07 142.602 260.235 142.842 257.985 143.748C255.913 144.659 254.457 146.073 253.929 147.69C253.401 149.307 253.842 150.997 255.159 152.4C256.059 153.264 257.337 154.062 257.436 155.112C257.535 156.162 256.608 156.912 256.167 157.848C255.94 158.44 255.906 159.057 256.067 159.658C256.228 160.259 256.581 160.831 257.101 161.333C257.621 161.836 258.297 162.258 259.083 162.572C259.869 162.886 260.747 163.084 261.657 163.152C263.529 163.224 265.527 162.738 267.21 163.296C268.893 163.854 269.496 165.192 270.558 166.212C271.655 167.196 273.224 167.899 275.004 168.205C276.784 168.511 278.668 168.4 280.341 167.892C281.718 167.442 283.041 166.692 284.544 166.77C286.047 166.848 287.244 167.706 288.774 167.898C290.745 168.15 292.608 167.184 293.778 166.098C294.948 165.012 295.767 163.734 297.261 162.846C299.223 161.682 301.977 161.4 304.461 160.83C307.206 160.197 309.715 159.179 311.82 157.845C313.924 156.51 315.574 154.89 316.658 153.094C317.742 151.298 318.236 149.367 318.105 147.433C317.974 145.499 317.222 143.606 315.9 141.882" fill="#263238"/>
<path d="M313.2 132.402C314.273 132.48 315.263 132.823 315.975 133.364C316.686 133.905 317.067 134.605 317.043 135.324L314.469 174.126C314.361 178.71 304.317 181.284 296.955 181.17C289.521 181.056 289.287 178.626 289.188 174.264C289.035 166.98 289.053 164.244 289.044 164.286C289.035 164.328 279.657 163.236 277.74 155.064C276.786 150.996 277.11 144.336 277.641 138.894C278.127 133.992 283.041 127.986 290.34 128.514L313.2 132.402Z" fill="#FFBE9D"/>
<path d="M280.296 144.18C280.293 144.453 280.449 144.716 280.731 144.914C281.013 145.112 281.399 145.23 281.808 145.242C282.008 145.253 282.208 145.237 282.399 145.195C282.589 145.153 282.764 145.086 282.915 144.998C283.066 144.911 283.189 144.804 283.277 144.684C283.365 144.564 283.417 144.433 283.428 144.3C283.435 144.027 283.282 143.763 283.001 143.565C282.72 143.366 282.334 143.249 281.925 143.238C281.725 143.227 281.524 143.243 281.333 143.285C281.142 143.327 280.966 143.394 280.814 143.481C280.663 143.569 280.539 143.676 280.45 143.796C280.361 143.916 280.309 144.046 280.296 144.18Z" fill="#263238"/>
<path d="M279.756 142.362C279.954 142.5 281.142 141.912 282.834 141.918C284.526 141.924 285.759 142.488 285.948 142.35C286.137 142.212 285.84 142.044 285.3 141.78C284.569 141.44 283.698 141.26 282.807 141.264C281.928 141.259 281.07 141.442 280.359 141.786C279.837 142.05 279.657 142.302 279.756 142.362Z" fill="#263238"/>
<path d="M297.153 144.18C297.15 144.453 297.306 144.716 297.588 144.914C297.87 145.112 298.256 145.23 298.665 145.242C298.865 145.253 299.065 145.237 299.256 145.195C299.446 145.153 299.621 145.086 299.772 144.998C299.923 144.911 300.046 144.804 300.134 144.684C300.222 144.564 300.274 144.433 300.285 144.3C300.292 144.026 300.138 143.761 299.855 143.563C299.572 143.364 299.184 143.247 298.773 143.238C298.573 143.227 298.373 143.243 298.182 143.285C297.992 143.327 297.817 143.394 297.666 143.482C297.515 143.569 297.392 143.676 297.304 143.796C297.216 143.916 297.164 144.047 297.153 144.18Z" fill="#263238"/>
<path d="M296.379 142.596C296.577 142.734 297.765 142.146 299.457 142.152C301.149 142.158 302.382 142.752 302.571 142.584C302.76 142.416 302.463 142.278 301.923 142.014C301.192 141.674 300.321 141.494 299.43 141.498C298.552 141.496 297.695 141.679 296.982 142.02C296.46 142.29 296.28 142.536 296.379 142.596Z" fill="#263238"/>
<path d="M290.214 150.948C289.338 150.762 288.431 150.649 287.514 150.612C287.082 150.582 286.668 150.522 286.614 150.33C286.579 150.032 286.682 149.735 286.911 149.478C287.316 148.782 287.748 148.05 288.189 147.288C289.989 144.168 291.267 141.6 291.078 141.558C290.889 141.516 289.278 144 287.478 147.114C287.055 147.888 286.641 148.62 286.254 149.322C285.977 149.667 285.894 150.067 286.02 150.45C286.082 150.552 286.178 150.643 286.302 150.715C286.425 150.788 286.572 150.841 286.731 150.87C286.971 150.915 287.219 150.939 287.469 150.942C288.38 151.019 289.302 151.021 290.214 150.948Z" fill="#263238"/>
<path d="M288.999 164.286C294.769 164.355 300.454 163.356 305.424 161.4C305.424 161.4 301.266 167.16 288.999 166.374V164.286Z" fill="#EB996E"/>
<path d="M290.916 153.666C291.236 153.401 291.651 153.193 292.123 153.062C292.594 152.931 293.108 152.881 293.616 152.916C293.989 152.938 294.352 153.01 294.682 153.129C295.011 153.247 295.301 153.41 295.533 153.606C295.755 153.795 295.886 154.025 295.91 154.264C295.934 154.504 295.85 154.743 295.668 154.95C295.394 155.151 295.036 155.294 294.641 155.36C294.245 155.426 293.829 155.413 293.445 155.322C292.648 155.129 291.915 154.836 291.285 154.458C291.099 154.364 290.938 154.251 290.808 154.122C290.746 154.06 290.712 153.987 290.712 153.912C290.712 153.837 290.746 153.764 290.808 153.702" fill="#DE8579"/>
<path d="M295.2 151.734C294.921 151.734 294.912 152.934 293.337 153.816C291.762 154.698 289.809 154.542 289.8 154.716C289.8 154.788 290.232 154.95 291.06 154.968C292.135 154.982 293.182 154.74 294.012 154.284C294.814 153.851 295.33 153.227 295.452 152.544C295.515 152.034 295.308 151.728 295.2 151.734Z" fill="#263238"/>
<path d="M295.623 140.622C295.785 140.928 297.477 140.784 299.457 140.946C301.437 141.108 303.057 141.474 303.309 141.198C303.435 141.066 303.156 140.778 302.508 140.478C301.644 140.116 300.668 139.888 299.654 139.812C298.639 139.736 297.612 139.814 296.649 140.04C295.92 140.232 295.551 140.478 295.623 140.622Z" fill="#263238"/>
<path d="M280.386 139.098C280.683 139.356 281.853 139.098 283.248 139.098C284.643 139.098 285.84 139.272 286.11 139.008C286.236 138.876 286.047 138.618 285.525 138.378C284.831 138.084 284.022 137.936 283.2 137.952C282.379 137.968 281.584 138.148 280.917 138.468C280.422 138.708 280.26 138.972 280.386 139.098Z" fill="#263238"/>
<path d="M305.1 129.744C306.496 129.092 308.085 128.648 309.76 128.441C311.435 128.234 313.158 128.269 314.811 128.544C318.078 129.144 320.787 131.136 320.904 133.344C320.976 134.784 320.004 136.344 321.003 137.622C322.002 138.9 324.162 139.362 325.764 140.262C326.992 140.977 327.825 141.946 328.132 143.014C328.438 144.081 328.2 145.187 327.456 146.154C326.115 147.792 323.307 148.992 323.073 150.84C322.848 152.58 325.044 154.05 325.584 155.76C326.169 157.644 324.603 159.594 322.362 160.848C320.121 162.102 317.277 162.792 314.505 163.452C312.345 163.974 310.005 164.502 307.782 164.16C306.469 163.925 305.289 163.436 304.392 162.755C303.495 162.074 302.921 161.231 302.742 160.332C302.608 159.436 302.767 158.532 303.206 157.68C303.646 156.829 304.356 156.051 305.289 155.4C306.864 154.242 309.078 153.264 309.456 151.734C310.041 149.334 305.793 147.408 306.054 145.008C306.189 143.772 307.503 142.746 308.592 141.726C309.681 140.706 310.635 139.428 309.96 138.27C309.06 136.758 306.117 136.362 304.317 135.27C303.575 134.805 303.041 134.211 302.776 133.555C302.511 132.899 302.524 132.207 302.814 131.556C303.141 130.906 303.728 130.327 304.511 129.882C305.295 129.437 306.245 129.142 307.26 129.03" fill="#263238"/>
<path d="M306.423 127.902C306.429 128.724 306.163 129.536 305.644 130.281C305.125 131.027 304.365 131.687 303.42 132.214C302.474 132.741 301.366 133.123 300.174 133.331C298.982 133.54 297.735 133.571 296.523 133.422C294.651 133.194 292.599 132.564 290.979 133.23C289.359 133.896 289.179 135.63 287.694 136.512C285.534 137.766 282.105 136.59 279.36 137.112C277.245 137.532 275.922 138.876 274.509 140.016C273.096 141.156 270.999 142.23 268.875 141.816C268.939 140.543 269.223 139.278 269.721 138.048C270.228 136.811 271.36 135.728 272.925 134.982C273.851 134.661 274.752 134.308 275.625 133.926C277.425 132.984 277.794 131.334 278.874 130.014C279.588 129.164 280.596 128.44 281.814 127.902C283.031 127.363 284.424 127.026 285.876 126.918C288.288 126.756 290.772 127.236 293.076 126.84C294.813 126.552 296.334 125.802 298.089 125.574C301.518 125.142 304.704 126.774 307.188 128.412" fill="#263238"/>
<path d="M328.806 147.432C329.032 147.142 329.128 146.815 329.085 146.49C328.974 146.053 328.684 145.646 328.247 145.312C327.811 144.979 327.244 144.732 326.61 144.6C325.73 144.392 324.827 144.23 323.91 144.114C322.815 143.982 321.775 143.695 320.859 143.274C320.37 143.01 319.974 142.678 319.7 142.3C319.426 141.923 319.281 141.509 319.275 141.09C319.262 140.232 319.325 139.375 319.464 138.522C319.5 138.101 319.466 137.678 319.365 137.262C319.247 136.873 319.001 136.506 318.645 136.188C317.839 135.635 316.816 135.244 315.693 135.06C314.64 134.859 313.629 134.569 312.687 134.196C311.867 133.868 311.121 133.464 310.473 132.996C309.526 132.325 308.791 131.533 308.313 130.668C308.177 130.437 308.071 130.198 307.998 129.954C307.944 129.786 307.926 129.702 307.944 129.696C307.962 129.69 308.106 130.038 308.475 130.626C309.138 131.651 310.146 132.56 311.421 133.283C312.696 134.006 314.204 134.524 315.828 134.796C317.034 134.986 318.134 135.403 318.996 135.996C319.402 136.35 319.685 136.76 319.824 137.196C319.932 137.636 319.968 138.083 319.932 138.528C319.797 139.371 319.731 140.218 319.734 141.066C319.733 141.444 319.857 141.818 320.099 142.16C320.34 142.503 320.692 142.805 321.129 143.046C321.992 143.446 322.969 143.721 324 143.856C324.92 143.986 325.823 144.165 326.7 144.39C327.455 144.582 328.116 144.911 328.608 145.338C328.965 145.667 329.18 146.055 329.229 146.46C329.253 146.717 329.175 146.973 329.004 147.204C328.923 147.372 328.815 147.438 328.806 147.432Z" fill="#455A64"/>
<path d="M256.635 152.532L256.428 152.466C256.242 152.388 256.085 152.284 255.969 152.16C255.799 151.899 255.733 151.614 255.777 151.331C255.821 151.048 255.974 150.778 256.221 150.546C256.527 150.187 256.983 149.895 257.535 149.706C258.174 149.494 258.832 149.31 259.506 149.154C260.262 148.986 260.962 148.721 261.567 148.374C262.18 147.947 262.59 147.408 262.746 146.826C262.944 146.226 263.007 145.542 263.178 144.846C263.306 144.099 263.725 143.388 264.393 142.782C265.815 141.534 268.155 140.868 269.901 139.692C270.772 139.073 271.427 138.334 271.818 137.526C272.234 136.674 272.535 135.798 272.718 134.91C273.096 133.11 273.483 131.106 275.292 129.462C276.174 128.636 277.498 128.067 278.991 127.872C280.409 127.737 281.85 127.759 283.257 127.938C284.57 128.108 285.91 128.16 287.244 128.094C288.499 127.997 289.657 127.598 290.502 126.972C292.176 125.772 293.13 124.152 295.191 123.324C296.109 122.951 297.133 122.707 298.198 122.609C299.263 122.511 300.347 122.56 301.383 122.754C303.099 123.08 304.557 123.837 305.451 124.866C306.126 125.631 306.492 126.499 306.513 127.386C306.537 127.941 306.406 128.495 306.126 129.018C306.032 129.202 305.909 129.38 305.757 129.546C305.757 129.546 305.865 129.36 306.036 129C306.271 128.479 306.371 127.935 306.333 127.392C306.281 126.531 305.904 125.693 305.235 124.956C304.355 123.979 302.942 123.268 301.293 122.97C300.301 122.795 299.266 122.759 298.252 122.862C297.238 122.965 296.267 123.206 295.398 123.57C294.455 124.002 293.651 124.555 293.031 125.196C292.36 125.894 291.62 126.561 290.817 127.194C290.365 127.523 289.836 127.8 289.251 128.016C288.64 128.224 287.979 128.36 287.298 128.418C285.926 128.488 284.546 128.438 283.194 128.268C281.838 128.094 280.449 128.07 279.081 128.196C277.704 128.382 276.485 128.909 275.67 129.672C274.85 130.445 274.255 131.314 273.915 132.234C273.591 133.14 273.341 134.058 273.168 134.982C272.99 135.886 272.688 136.778 272.268 137.646C271.855 138.494 271.16 139.27 270.234 139.914C268.389 141.114 266.076 141.786 264.726 142.968C264.094 143.537 263.691 144.204 263.556 144.906C263.385 145.59 263.313 146.262 263.088 146.898C262.918 147.521 262.466 148.095 261.792 148.542C261.155 148.901 260.418 149.172 259.623 149.34C258.953 149.487 258.298 149.661 257.661 149.862C257.141 150.034 256.704 150.3 256.401 150.63C256.162 150.846 256.008 151.099 255.951 151.365C255.895 151.631 255.938 151.902 256.077 152.154C256.225 152.302 256.415 152.431 256.635 152.532Z" fill="#455A64"/>
<path d="M226.566 208.8L248.301 207.474C248.301 207.474 261.675 183.984 278.163 178.29L288.846 190.728L265.977 219.366H221.337L226.566 208.8Z" fill="#3EAFA9"/>
<path opacity="0.3" d="M226.566 208.8L248.301 207.474C248.301 207.474 261.675 183.984 278.163 178.29L288.846 190.728L265.977 219.366H221.337L226.566 208.8Z" fill="black"/>
<path d="M235.152 215.4C236.226 213.783 237.592 212.26 239.22 210.864C238.132 212.476 236.767 213.998 235.152 215.4Z" fill="#FAFAFA"/>
<path d="M250.551 215.118C248.664 213.887 247.003 212.511 245.601 211.02C246.606 211.593 247.498 212.248 248.256 212.97C249.143 213.624 249.913 214.345 250.551 215.118Z" fill="#FAFAFA"/>
<path d="M253.224 209.736C252.912 208.477 252.912 207.191 253.224 205.932C253.536 207.191 253.536 208.477 253.224 209.736Z" fill="#FAFAFA"/>
<path d="M245.574 218.13C244.815 217.989 244.108 217.746 243.495 217.416C242.415 216.942 241.605 216.504 241.695 216.432C242.451 216.58 243.157 216.824 243.774 217.152C244.8 217.62 245.646 218.058 245.574 218.13Z" fill="#FAFAFA"/>
<path d="M258.057 196.542C257.7 197.448 257.196 198.325 256.554 199.158C256.052 200.033 255.406 200.868 254.628 201.648C254.974 200.741 255.475 199.863 256.122 199.032C256.629 198.157 257.278 197.323 258.057 196.542Z" fill="#FAFAFA"/>
<path d="M266.868 187.026C266.94 187.092 266.166 187.572 265.131 188.1C264.542 188.459 263.854 188.738 263.106 188.922C263.034 188.85 263.808 188.37 264.843 187.848C265.429 187.487 266.117 187.207 266.868 187.026Z" fill="#FAFAFA"/>
<path d="M299.376 217.482L310.59 187.296C311.528 184.763 313.877 182.564 317.161 181.145C320.444 179.726 324.415 179.195 328.266 179.658C332.222 180.135 335.742 181.623 338.075 183.806C340.409 185.988 341.371 188.691 340.758 191.34L333.9 220.842C333.081 223.861 330.871 226.636 327.577 228.779C324.283 230.922 320.07 232.328 315.522 232.8L306.612 233.724L299.376 217.482Z" fill="#3EAFA9"/>
<path d="M334.71 177.708C333.54 177.07 332.172 176.613 330.705 176.37C329.118 176.124 327.468 176.124 325.881 176.37C323.949 176.695 322.154 177.311 320.634 178.17C317.349 180.006 315.567 182.37 314.334 184.062C313.731 184.908 313.272 185.604 312.948 186.084C312.799 186.341 312.615 186.588 312.399 186.822C312.487 186.555 312.614 186.293 312.777 186.042C313.056 185.544 313.461 184.842 314.028 183.966C314.693 182.95 315.463 181.965 316.332 181.02C317.412 179.858 318.757 178.816 320.319 177.93C321.888 177.031 323.754 176.391 325.764 176.064C327.413 175.814 329.128 175.828 330.768 176.106C331.869 176.295 332.903 176.627 333.81 177.084C334.052 177.209 334.278 177.348 334.485 177.498C334.647 177.648 334.719 177.702 334.71 177.708Z" fill="#263238"/>
<path d="M271.197 184.5C271.108 184.601 271.002 184.696 270.882 184.782L269.928 185.55C269.091 186.216 267.912 187.188 266.562 188.442C262.974 191.687 260.372 195.368 258.903 199.278C257.346 203.88 257.265 208.188 257.004 211.278C256.887 212.826 256.779 214.08 256.68 214.944C256.626 215.352 256.581 215.682 256.545 215.94C256.534 216.057 256.51 216.173 256.473 216.288C256.448 216.173 256.448 216.055 256.473 215.94C256.473 215.676 256.473 215.34 256.518 214.938C256.518 214.032 256.617 212.79 256.689 211.272C256.869 208.188 256.887 203.862 258.489 199.212C259.96 195.263 262.628 191.557 266.328 188.322C267.723 187.074 268.947 186.114 269.82 185.472C270.252 185.148 270.612 184.908 270.846 184.746C270.952 184.657 271.069 184.575 271.197 184.5Z" fill="#263238"/>
<path d="M343.035 184.434C341.802 179.034 337.338 177.744 332.703 176.064C331.191 175.512 323.892 174.264 318.105 173.322C317.547 170.988 316.557 166.8 316.305 165.918C315.999 164.676 286.821 167.778 286.452 168.246C286.209 168.552 285.552 173.4 285.111 176.646L278.127 178.272L269.046 186L264.303 190.488C261.508 193.077 259.511 196.009 258.426 199.116C257.407 202.557 256.969 206.062 257.121 209.568L255.708 229.368L316.8 240.876L321.48 220.8L337.23 206.508C338.571 200.73 344.547 191.07 343.035 184.434Z" fill="#3EAFA9"/>
<path d="M290.934 177.252C290.721 176.806 290.585 176.345 290.529 175.878C290.34 175.026 290.106 173.844 289.881 172.536C289.773 171.888 289.674 171.27 289.575 170.688C289.482 170.182 289.428 169.674 289.413 169.164C289.405 168.804 289.558 168.451 289.854 168.15C290.088 167.946 290.286 167.892 290.304 167.904C290.322 167.916 290.169 168.012 290.007 168.216C289.803 168.513 289.713 168.838 289.746 169.164C289.746 169.584 289.908 170.088 290.007 170.658C290.106 171.228 290.223 171.858 290.349 172.5C290.574 173.808 290.754 174.996 290.862 175.854C290.966 176.317 290.991 176.786 290.934 177.252Z" fill="#263238"/>
<path d="M298.719 176.028C298.416 175.63 298.197 175.206 298.071 174.768C297.257 172.69 296.953 170.538 297.171 168.396C297.177 167.951 297.274 167.509 297.459 167.082C297.603 167.082 297.342 169.104 297.693 171.576C298.044 174.048 298.863 176.004 298.719 176.028Z" fill="#263238"/>
<path d="M313.2 174.6C313.384 173.108 313.327 171.608 313.029 170.124C312.569 168.658 311.863 167.231 310.923 165.87C311.375 166.204 311.738 166.588 311.994 167.004C313.429 168.955 313.997 171.139 313.632 173.298C313.59 173.744 313.444 174.184 313.2 174.6Z" fill="#263238"/>
<path d="M271.8 192.276C273.191 190.509 274.999 188.902 277.155 187.518C275.487 189.161 273.7 190.749 271.8 192.276Z" fill="#FAFAFA"/>
<path d="M285.507 184.8C283.761 183.63 282.249 182.316 281.007 180.888C281.923 181.441 282.736 182.066 283.428 182.748C284.247 183.371 284.946 184.061 285.507 184.8Z" fill="#FAFAFA"/>
<path d="M299.871 180.132C298.992 180.828 298.032 181.476 297 182.07C296.079 182.741 295.083 183.365 294.021 183.936C294.745 183.156 295.64 182.452 296.676 181.848C297.604 181.171 298.681 180.592 299.871 180.132Z" fill="#FAFAFA"/>
<path d="M295.839 174.42C295.001 174.127 294.243 173.741 293.598 173.28C292.846 172.893 292.192 172.427 291.663 171.9C292.499 172.2 293.259 172.587 293.913 173.046C294.663 173.431 295.314 173.895 295.839 174.42Z" fill="#FAFAFA"/>
<path d="M308.43 169.944C307.469 170.244 306.447 170.446 305.397 170.544C304.382 170.739 303.33 170.836 302.274 170.832C303.233 170.535 304.251 170.333 305.298 170.232C306.316 170.036 307.371 169.939 308.43 169.944Z" fill="#FAFAFA"/>
<path d="M310.95 183.234C310.661 182.553 310.528 181.847 310.554 181.14C310.425 180.439 310.449 179.73 310.626 179.034C310.915 179.715 311.048 180.421 311.022 181.128C311.151 181.829 311.127 182.538 310.95 183.234Z" fill="#FAFAFA"/>
<path d="M306.36 189.6C305.693 188.844 305.161 188.039 304.776 187.2C304.254 186.386 303.873 185.534 303.642 184.662C304.826 186.241 305.732 187.906 306.342 189.624L306.36 189.6Z" fill="#FAFAFA"/>
<path d="M293.886 194.13C293.169 193.33 292.59 192.478 292.158 191.592C291.575 190.742 291.14 189.85 290.862 188.934C291.573 189.738 292.153 190.591 292.59 191.478C293.166 192.328 293.601 193.217 293.886 194.13Z" fill="#FAFAFA"/>
<path d="M282.15 199.236C281.319 197.589 280.793 195.88 280.584 194.148C281.069 194.956 281.407 195.8 281.592 196.662C281.929 197.502 282.116 198.366 282.15 199.236Z" fill="#FAFAFA"/>
<path d="M268.2 199.44C266.813 198.007 265.689 196.468 264.852 194.856C266.239 196.289 267.363 197.828 268.2 199.44Z" fill="#FAFAFA"/>
<path d="M267.903 205.404C266.76 205.946 265.536 206.406 264.249 206.778C263.025 207.24 261.727 207.608 260.379 207.876C261.52 207.327 262.748 206.865 264.042 206.496C265.264 206.037 266.559 205.671 267.903 205.404Z" fill="#FAFAFA"/>
<path d="M268.074 214.836C267.463 214.161 267.033 213.42 266.805 212.646C266.426 211.903 266.246 211.121 266.274 210.336C266.706 211.058 267.034 211.805 267.255 212.568C267.634 213.305 267.908 214.065 268.074 214.836Z" fill="#FAFAFA"/>
<path d="M265.185 221.46C264.118 221.01 263.133 220.478 262.251 219.876C261.267 219.353 260.387 218.748 259.632 218.076C260.699 218.526 261.683 219.058 262.566 219.66C263.55 220.183 264.43 220.788 265.185 221.46Z" fill="#FAFAFA"/>
<path d="M283.563 216.936C283.563 217.026 281.529 217.422 279.117 218.136C276.705 218.85 274.869 219.582 274.788 219.504C276.017 218.799 277.417 218.239 278.928 217.848C280.382 217.368 281.95 217.059 283.563 216.936Z" fill="#FAFAFA"/>
<path d="M278.19 213.654C277.61 213.011 277.165 212.319 276.867 211.596C276.417 210.91 276.114 210.185 275.967 209.442C276.545 210.082 276.987 210.773 277.281 211.494C277.737 212.182 278.043 212.909 278.19 213.654Z" fill="#FAFAFA"/>
<path d="M289.089 205.542C288.41 206.558 287.587 207.528 286.632 208.44C285.809 209.417 284.85 210.341 283.77 211.2C285.279 209.219 287.059 207.335 289.089 205.572V205.542Z" fill="#FAFAFA"/>
<path d="M300.807 206.316C299.622 205.506 298.613 204.589 297.81 203.592C296.873 202.65 296.134 201.626 295.614 200.55C295.74 200.514 296.784 201.846 298.215 203.436C299.646 205.026 300.915 206.268 300.807 206.316Z" fill="#FAFAFA"/>
<path d="M307.8 198.6C306.708 198.885 305.543 199.024 304.371 199.008C303.209 199.099 302.032 199.038 300.906 198.828C302.048 198.727 303.201 198.683 304.353 198.696C305.497 198.609 306.649 198.577 307.8 198.6Z" fill="#FAFAFA"/>
<path d="M324.477 189.834C321.621 190.979 318.607 191.939 315.477 192.702C318.338 191.563 321.351 190.603 324.477 189.834Z" fill="#FAFAFA"/>
<path d="M325.584 184.254C326.502 182.567 327.71 180.956 329.184 179.454C328.803 180.315 328.272 181.142 327.6 181.92C327.063 182.747 326.387 183.53 325.584 184.254Z" fill="#FAFAFA"/>
<path d="M336.168 188.634C335.614 187.747 335.157 186.835 334.8 185.904C334.298 185.005 333.895 184.082 333.594 183.144C334.939 184.856 335.811 186.716 336.168 188.634Z" fill="#FAFAFA"/>
<path d="M337.833 194.442C336.596 194.893 335.264 195.216 333.882 195.402C332.538 195.687 331.135 195.831 329.724 195.828C331.044 195.525 332.395 195.282 333.765 195.102C335.097 194.821 336.456 194.6 337.833 194.442Z" fill="#FAFAFA"/>
<path d="M319.689 201.534C319.554 201.534 319.941 200.058 320.049 198.24C320.157 196.422 319.977 194.946 320.112 194.934C320.528 196.017 320.665 197.139 320.517 198.252C320.525 199.37 320.245 200.48 319.689 201.534Z" fill="#FAFAFA"/>
<path d="M316.071 208.836C313.65 207.557 311.658 205.955 310.221 204.132C310.338 204.084 311.526 205.194 313.146 206.49C314.182 207.237 315.159 208.02 316.071 208.836Z" fill="#FAFAFA"/>
<path d="M334.26 207.294C333.082 207.788 331.823 208.191 330.507 208.494C329.251 208.897 327.932 209.207 326.574 209.418C329.01 208.518 331.588 207.799 334.26 207.276V207.294Z" fill="#FAFAFA"/>
<path d="M327.744 221.034C327.471 218.837 327.504 216.627 327.843 214.434C328.128 216.631 328.095 218.841 327.744 221.034Z" fill="#FAFAFA"/>
<path d="M313.785 220.242C314.012 217.946 314.857 215.697 316.278 213.6C316.404 213.63 315.72 215.088 315.036 216.918C314.352 218.748 313.92 220.26 313.785 220.242Z" fill="#FAFAFA"/>
<path d="M314.424 223.848C314.424 223.938 312.192 224.082 309.456 224.388C306.72 224.694 304.524 225.03 304.488 224.94C306.049 224.503 307.694 224.212 309.375 224.076C311.033 223.841 312.733 223.764 314.424 223.848Z" fill="#FAFAFA"/>
<path d="M298.98 221.538C299.762 220.784 300.668 220.089 301.68 219.468C302.572 218.777 303.58 218.157 304.686 217.62C303.904 218.374 302.998 219.069 301.986 219.69C301.092 220.38 300.083 221 298.98 221.538Z" fill="#FAFAFA"/>
<path d="M288.981 228C288.504 227.235 288.099 226.452 287.766 225.654C287.278 224.891 286.857 224.11 286.506 223.314C287.933 224.704 288.787 226.32 288.981 228Z" fill="#FAFAFA"/>
<path d="M305.1 231.732C302.031 231.054 299.068 230.177 296.253 229.116C297.805 229.408 299.312 229.798 300.753 230.28C302.266 230.673 303.721 231.16 305.1 231.732Z" fill="#FAFAFA"/>
<path d="M276.984 230.646C277.11 229.891 277.395 229.152 277.83 228.45C278.115 227.716 278.547 227.012 279.117 226.356C278.99 227.111 278.705 227.85 278.271 228.552C277.98 229.284 277.547 229.988 276.984 230.646Z" fill="#FAFAFA"/>
<path d="M295.524 232.74C295.524 232.83 292.941 232.554 289.755 232.446C286.569 232.338 283.986 232.446 283.977 232.326C285.888 232.078 287.843 232.014 289.782 232.134C291.73 232.151 293.664 232.355 295.524 232.74Z" fill="#FAFAFA"/>
<path d="M299.376 215.046C299.359 214.966 299.359 214.886 299.376 214.806C299.374 214.576 299.425 214.347 299.529 214.128C299.669 213.758 300.017 213.438 300.501 213.234C301.165 212.978 301.946 212.893 302.697 212.994L302.517 213.066C303.498 210.762 305.073 207.402 306.648 203.634C308.124 200.106 309.123 196.86 309.816 194.502C310.158 193.368 310.428 192.426 310.644 191.712C310.725 191.369 310.843 191.03 310.995 190.698C310.984 191.047 310.927 191.394 310.824 191.736C310.68 192.402 310.446 193.362 310.14 194.544C309.36 197.634 308.345 200.696 307.098 203.718C305.523 207.492 303.894 210.84 302.814 213.126L302.769 213.216H302.634C301.954 213.113 301.241 213.177 300.627 213.396C300.18 213.574 299.845 213.853 299.682 214.182C299.385 214.71 299.439 215.052 299.376 215.046Z" fill="#263238"/>
<path d="M319.554 223.392C319.482 223.392 318.924 222.6 317.754 221.388C314.754 218.224 310.524 215.661 305.514 213.972C303.597 213.33 302.328 213.036 302.355 212.982C302.663 213.015 302.964 213.069 303.255 213.144C304.069 213.32 304.866 213.53 305.64 213.774C310.815 215.378 315.134 217.994 318.024 221.274C318.459 221.765 318.846 222.274 319.185 222.798C319.355 222.981 319.48 223.182 319.554 223.392Z" fill="#263238"/>
<g opacity="0.2">
<path d="M302.895 212.544C306.127 212.598 309.326 212.984 312.381 213.69C315.612 214.494 318.6 216.042 319.788 218.202C319.981 218.446 320.067 218.721 320.037 218.995C320.006 219.27 319.861 219.534 319.617 219.756C319.386 219.888 319.106 219.975 318.806 220.008C318.506 220.041 318.198 220.018 317.916 219.942C317.353 219.785 316.844 219.552 316.422 219.258C314.442 218.058 312.381 216.954 310.338 215.778C308.295 214.602 305.307 213.378 302.643 213.096" fill="black"/>
</g>
<path d="M296.406 208.716C296.13 208.861 295.828 208.982 295.506 209.076C294.62 209.365 293.695 209.598 292.743 209.772C289.576 210.374 286.226 210.401 283.039 209.849C279.852 209.297 276.944 208.187 274.617 206.634C273.915 206.171 273.276 205.667 272.709 205.128C272.484 204.945 272.297 204.743 272.151 204.528C272.223 204.492 273.051 205.368 274.851 206.496C277.189 207.968 280.046 209.023 283.158 209.562C286.27 210.101 289.536 210.107 292.653 209.58C295.002 209.16 296.361 208.656 296.406 208.716Z" fill="#263238"/>
<g opacity="0.2">
<path d="M272.592 204.972C274.113 207.168 275.886 209.382 278.766 210.858C280.358 211.775 282.348 212.33 284.445 212.442C287.451 212.478 290.034 211.11 292.329 209.814C284.895 210.594 276.525 208.344 272.592 204.972Z" fill="black"/>
</g>
<path d="M305.874 175.572C305.73 175.572 305.874 173.508 305.532 170.994C305.19 168.48 304.425 166.482 304.56 166.458C304.857 166.866 305.066 167.301 305.181 167.748C305.57 168.805 305.84 169.88 305.991 170.964C306.152 172.049 306.194 173.139 306.117 174.228C306.125 174.681 306.043 175.133 305.874 175.572Z" fill="#263238"/>
<path d="M199.116 255.864C199.116 255.864 189.333 257.274 180.603 256.398C172.413 255.582 154.08 256.428 154.089 263.598C154.089 271.62 178.542 269.64 188.073 268.368C197.604 267.096 207.108 265.968 207.108 265.968L199.116 255.864Z" fill="#14827C"/>
<path d="M177.156 266.142C176.618 265.242 176.223 264.307 175.977 263.352C175.585 262.418 175.344 261.458 175.257 260.49C175.783 261.391 176.166 262.326 176.4 263.28C176.804 264.213 177.057 265.173 177.156 266.142Z" fill="#263238"/>
<path d="M180.495 266.25C179.787 264.36 179.389 262.425 179.307 260.478C179.736 261.409 180.014 262.369 180.135 263.34C180.406 264.299 180.527 265.274 180.495 266.25Z" fill="#263238"/>
<path d="M183.717 265.41C183.34 264.597 183.11 263.757 183.033 262.908C182.799 262.072 182.724 261.219 182.808 260.37C183.413 262.02 183.715 263.712 183.708 265.41H183.717Z" fill="#263238"/>
<path d="M188.775 264.6C188.149 263.946 187.724 263.216 187.524 262.452C187.173 261.71 187.05 260.928 187.164 260.154C187.508 260.881 187.779 261.623 187.974 262.374C188.32 263.102 188.587 263.846 188.775 264.6Z" fill="#263238"/>
<path d="M189.9 261.636C190.319 261.572 190.75 261.551 191.178 261.576C192.35 261.603 193.507 261.755 194.607 262.026C194.987 262.116 195.345 262.244 195.669 262.404C195.859 262.497 196.017 262.616 196.131 262.754C196.244 262.892 196.311 263.045 196.326 263.202C196.306 263.375 196.23 263.543 196.103 263.694C195.976 263.846 195.801 263.977 195.59 264.079C195.38 264.181 195.139 264.252 194.884 264.286C194.628 264.32 194.365 264.316 194.112 264.276C193.078 264.087 192.177 263.663 191.565 263.076C190.549 262.202 189.967 261.139 189.901 260.034C189.835 258.93 190.288 257.839 191.196 256.914C191.38 256.765 191.633 256.662 191.916 256.62C192.063 256.607 192.213 256.616 192.354 256.646C192.496 256.677 192.626 256.727 192.735 256.794C193.082 257.031 193.298 257.34 193.347 257.67C193.458 258.212 193.415 258.764 193.221 259.296C192.952 260.068 192.38 260.778 191.565 261.354C191.35 261.511 191.112 261.654 190.854 261.78C190.768 261.828 190.671 261.867 190.566 261.894C190.566 261.894 190.908 261.69 191.466 261.294C192.195 260.708 192.698 260.011 192.933 259.266C193.095 258.759 193.117 258.236 192.996 257.724C192.95 257.459 192.776 257.21 192.501 257.016C192.431 256.977 192.349 256.949 192.261 256.933C192.173 256.917 192.081 256.914 191.991 256.925C191.901 256.935 191.816 256.958 191.741 256.992C191.666 257.027 191.603 257.072 191.556 257.124C190.734 258 190.333 259.023 190.405 260.055C190.477 261.087 191.02 262.081 191.961 262.902C192.498 263.439 193.301 263.834 194.229 264.018C194.421 264.051 194.622 264.057 194.818 264.035C195.014 264.013 195.2 263.964 195.365 263.89C195.53 263.816 195.67 263.72 195.775 263.608C195.88 263.495 195.948 263.369 195.975 263.238C195.96 263.12 195.908 263.005 195.821 262.901C195.734 262.798 195.615 262.708 195.471 262.638C195.186 262.486 194.867 262.365 194.526 262.278C193.463 261.997 192.344 261.819 191.205 261.75C190.314 261.648 189.9 261.66 189.9 261.636Z" fill="#263238"/>
<path d="M206.145 264.906L205.902 264.96L205.164 265.08L202.329 265.512C199.863 265.872 196.281 266.382 191.835 266.952C187.389 267.522 182.079 268.152 176.121 268.71C173.002 269.052 169.835 269.158 166.68 269.028C165.001 268.953 163.341 268.741 161.739 268.398C160.916 268.212 160.12 267.975 159.363 267.69C158.572 267.408 157.867 267.029 157.284 266.574C156.958 266.374 156.674 266.146 156.438 265.896C155.979 265.37 155.697 264.783 155.611 264.177C155.526 263.571 155.639 262.96 155.943 262.386C156.532 261.278 157.627 260.321 159.075 259.65C160.438 259.01 161.94 258.514 163.53 258.18C164.313 258.03 165.069 257.85 165.843 257.736C166.617 257.622 167.382 257.496 168.147 257.424C174.276 256.782 179.847 257.106 184.491 257.106C186.813 257.136 188.91 257.106 190.746 257.022C192.316 256.947 193.878 256.814 195.426 256.626L197.118 256.386L198.333 256.158L199.08 256.02C199.164 256 199.252 255.988 199.341 255.984C199.341 255.984 199.26 256.014 199.098 256.05L198.36 256.218L197.154 256.476L195.471 256.746C193.916 256.955 192.344 257.105 190.764 257.196C188.919 257.286 186.813 257.346 184.464 257.328C179.82 257.358 174.249 257.052 168.201 257.706C167.445 257.778 166.698 257.916 165.933 258.024C165.168 258.132 164.43 258.318 163.656 258.462C162.111 258.788 160.65 259.272 159.327 259.896C157.959 260.531 156.924 261.435 156.366 262.482C156.087 263.013 155.983 263.578 156.061 264.138C156.138 264.698 156.396 265.24 156.816 265.728C157.031 265.949 157.288 266.151 157.581 266.328C158.131 266.743 158.786 267.09 159.516 267.354C160.244 267.629 161.009 267.858 161.802 268.038C163.37 268.369 164.993 268.571 166.635 268.638C169.759 268.769 172.895 268.671 175.986 268.344C181.926 267.822 187.245 267.192 191.691 266.652C196.137 266.112 199.728 265.632 202.212 265.308L205.065 264.936L205.803 264.846C205.922 264.849 206.039 264.87 206.145 264.906Z" fill="#263238"/>
<path d="M170.379 268.8C170.232 268.249 170.151 267.691 170.136 267.132C170.028 266.106 169.848 264.684 169.533 263.13C169.218 261.576 168.84 260.172 168.534 259.158C168.324 258.617 168.183 258.065 168.111 257.508C168.446 258.023 168.696 258.56 168.858 259.11C169.349 260.421 169.731 261.749 170.001 263.088C170.266 264.425 170.422 265.771 170.469 267.12C170.526 267.681 170.496 268.244 170.379 268.8Z" fill="#263238"/>
<path opacity="0.4" d="M196.101 256.212L202.302 266.562L207.108 265.968L197.901 255.864L196.101 256.212Z" fill="black"/>
<path d="M276.885 227.844C275.886 228.06 211.833 216.096 185.931 211.242C182.568 210.61 179.041 210.464 175.587 210.813C172.132 211.161 168.829 211.997 165.897 213.264L165.582 213.396C161.33 215.229 158.03 217.893 156.134 221.024C154.238 224.154 153.838 227.598 154.989 230.886C155.728 233.003 157.09 235.001 158.997 236.765C160.903 238.528 163.316 240.021 166.095 241.158C183.195 248.136 219.33 262.812 220.437 262.524C221.886 262.152 267.03 261.372 267.03 261.372L212.715 235.326L238.554 246.462L276.885 227.862V227.844Z" fill="#263238"/>
<path d="M223.407 214.848L237.024 210.15L250.38 215.73L300.366 216.822L307.566 233.022L235.206 221.838C235.206 221.838 222.039 222.618 221.049 220.638C220.059 218.658 223.407 214.848 223.407 214.848Z" fill="#FFBE9D"/>
<path d="M264.366 240.852L257.634 255.6L258.471 260.094C264.399 264.076 272.301 266.48 280.698 266.857C289.094 267.234 297.408 265.557 304.083 262.14C308.221 260.022 311.569 257.296 313.867 254.174C316.164 251.051 317.35 247.618 317.331 244.14L317.232 228.744L264.366 240.852Z" fill="#263238"/>
<path d="M224.28 240.948C224.208 241.014 216.396 237.216 206.838 232.464C197.28 227.712 189.585 223.8 189.666 223.734C189.747 223.668 197.55 227.46 207.117 232.212C216.684 236.964 224.361 240.876 224.28 240.948Z" fill="#455A64"/>
<path d="M236.106 213.09C233.941 213.717 231.716 214.248 229.446 214.68C227.221 215.205 224.949 215.636 222.642 215.97C224.807 215.342 227.032 214.811 229.302 214.38C231.526 213.854 233.799 213.423 236.106 213.09Z" fill="#EB996E"/>
<path d="M237.123 215.856C236.364 216 235.587 216.098 234.801 216.15C233.37 216.306 231.399 216.54 229.239 216.87C227.079 217.2 225.153 217.566 223.758 217.842C223.017 218.021 222.255 218.159 221.481 218.256C222.167 218.001 222.895 217.8 223.65 217.656C225.445 217.231 227.275 216.875 229.131 216.588C230.986 216.305 232.864 216.092 234.756 215.952C235.538 215.864 236.331 215.832 237.123 215.856Z" fill="#EB996E"/>
<path d="M235.98 218.4C233.52 218.888 231.016 219.273 228.483 219.552C225.979 219.936 223.442 220.219 220.887 220.398C223.352 219.913 225.858 219.528 228.393 219.246C230.894 218.862 233.428 218.58 235.98 218.4Z" fill="#EB996E"/>
<path d="M218.322 193.08L230.877 220.632C230.948 220.785 231.086 220.921 231.274 221.021C231.462 221.122 231.69 221.183 231.93 221.196L266.13 222.906C266.433 222.92 266.717 223.01 266.924 223.158C267.132 223.306 267.247 223.501 267.246 223.704V225.126C267.246 225.232 267.214 225.338 267.152 225.436C267.091 225.534 267 225.622 266.886 225.697C266.772 225.771 266.637 225.829 266.488 225.869C266.34 225.908 266.181 225.926 266.022 225.924L172.422 224.724C172.183 224.721 171.95 224.67 171.754 224.578C171.558 224.486 171.409 224.357 171.324 224.208L154.872 195.474C154.803 195.356 154.778 195.229 154.797 195.103C154.817 194.977 154.881 194.856 154.985 194.749C155.089 194.643 155.229 194.555 155.394 194.492C155.559 194.429 155.744 194.394 155.934 194.388L217.053 192.486C217.335 192.47 217.618 192.52 217.85 192.629C218.082 192.738 218.249 192.897 218.322 193.08Z" fill="#455A64"/>
<path d="M191.952 204.948C191.493 205.062 191.084 205.25 190.761 205.495C190.437 205.74 190.209 206.034 190.098 206.352C190.056 206.684 190.147 207.017 190.36 207.319C190.574 207.62 190.902 207.878 191.313 208.068C191.807 208.306 192.395 208.441 193.004 208.456C193.613 208.471 194.214 208.365 194.733 208.152C195.253 207.895 195.626 207.526 195.79 207.109C195.953 206.691 195.898 206.248 195.633 205.854C195.219 205.092 193.131 204.558 191.925 204.948" fill="#E0E0E0"/>
<path d="M207.108 265.968L197.208 255.12L269.928 217.122C274.452 214.648 279.986 213.137 285.813 212.784C290.058 212.527 294.337 212.892 298.348 213.854C302.36 214.815 306.007 216.351 309.034 218.351C312.061 220.352 314.395 222.771 315.872 225.437C317.349 228.103 317.933 230.952 317.583 233.784L316.422 243.054L268.2 253.416L207.108 265.968Z" fill="#263238"/>
<path d="M300.366 240.216C300.366 240.216 300.312 240.258 300.177 240.336L299.583 240.66L297.27 241.896L295.587 242.778C294.975 243.102 294.246 243.378 293.499 243.756L291.087 244.86C290.655 245.052 290.187 245.262 289.764 245.46L288.315 246.06C286.344 246.846 284.211 247.746 281.79 248.562C280.593 248.982 279.369 249.438 278.082 249.864L274.059 251.13C268.057 252.963 261.92 254.593 255.672 256.014C242.388 259.068 230.112 261.264 221.319 263.04C219.114 263.472 217.125 263.88 215.379 264.24C213.633 264.6 212.139 264.906 210.879 265.182L208.071 265.782L207.333 265.932C207.248 265.952 207.161 265.966 207.072 265.974L207.315 265.902L208.035 265.722L210.825 265.056C212.031 264.762 213.525 264.456 215.271 264.06C217.017 263.664 218.988 263.256 221.184 262.812C229.959 260.976 242.226 258.75 255.483 255.702C262.125 254.196 268.308 252.516 273.843 250.854L277.857 249.6C279.153 249.18 280.377 248.73 281.574 248.316C283.995 247.512 286.128 246.624 288.108 245.856L289.557 245.286C290.016 245.094 290.457 244.89 290.889 244.686L293.4 243.6C294.147 243.258 294.876 242.964 295.497 242.646L297.198 241.782L299.565 240.582L300.195 240.282L300.366 240.216Z" fill="#455A64"/>
<path d="M302.13 245.286C301.907 245.395 301.662 245.482 301.401 245.544C300.915 245.688 300.204 245.886 299.313 246.102C296.989 246.673 294.607 247.134 292.185 247.482C289.761 247.827 287.304 248.059 284.832 248.178C283.887 248.22 283.113 248.238 282.582 248.238C282.305 248.252 282.027 248.242 281.754 248.208C282.763 248.087 283.782 248.003 284.805 247.956C286.677 247.818 289.305 247.578 292.086 247.176C294.867 246.774 297.405 246.282 299.205 245.898C300.163 245.659 301.139 245.455 302.13 245.286Z" fill="#455A64"/>
<path d="M267.03 218.946C267.111 219.018 251.55 227.172 232.272 237.156C212.994 247.14 197.298 255.192 197.226 255.12C197.154 255.048 212.706 246.9 231.984 236.91C251.262 226.92 266.958 218.88 267.03 218.946Z" fill="#455A64"/>
<path d="M262.8 259.266C259.317 258.03 255.402 258.762 252.063 259.512C249.84 260.01 247.563 260.802 245.277 260.376C243.648 260.07 242.433 259.176 241.182 258.426C238.658 256.879 235.695 255.684 232.468 254.912C229.24 254.14 225.814 253.807 222.39 253.932C220.435 253.995 218.588 254.55 217.224 255.486C213.795 257.964 216.378 261.18 219.447 263.286C224.915 266.991 232.135 269.323 239.886 269.886C246.267 270.33 255.042 269.742 261.486 267.894C265.473 266.754 267.516 263.616 265.428 261.084C264.839 260.319 263.925 259.687 262.8 259.266Z" fill="#179E97"/>
<g opacity="0.4">
<path d="M262.8 261.246C259.308 260.01 255.393 260.742 252.054 261.492C249.831 261.99 247.554 262.782 245.268 262.356C243.639 262.05 242.424 261.156 241.173 260.406C238.649 258.859 235.686 257.664 232.459 256.892C229.231 256.12 225.805 255.787 222.381 255.912C220.426 255.975 218.579 256.53 217.215 257.466C216.525 257.957 216.03 258.555 215.775 259.206C216.436 260.75 217.7 262.15 219.438 263.262C224.906 266.967 232.126 269.299 239.877 269.862C246.258 270.306 255.033 269.718 261.477 267.87C262.621 267.545 263.634 267.045 264.433 266.41C265.232 265.775 265.795 265.023 266.076 264.216C265.873 263.596 265.473 263.012 264.904 262.504C264.334 261.996 263.607 261.575 262.773 261.27L262.8 261.246Z" fill="black"/>
</g>
<path d="M266.13 264.192C265.979 263.7 265.689 263.232 265.275 262.812C264.775 262.336 264.143 261.929 263.412 261.612C262.45 261.178 261.35 260.899 260.199 260.796C257.616 260.592 254.61 261.318 251.28 261.918C249.633 262.212 247.833 262.656 245.88 262.518C244.893 262.433 243.943 262.212 243.09 261.87C242.241 261.517 241.44 261.116 240.696 260.67C237.981 258.95 234.72 257.658 231.156 256.89C229.616 256.541 228.027 256.296 226.413 256.158C225.01 256.023 223.586 256.023 222.183 256.158C221.036 256.274 219.932 256.53 218.925 256.914C218.171 257.205 217.488 257.572 216.9 258C216 258.75 215.667 259.26 215.613 259.236C215.892 258.761 216.281 258.317 216.765 257.922C217.326 257.451 218.001 257.045 218.763 256.722C219.79 256.303 220.931 256.022 222.12 255.894C223.552 255.752 225.008 255.752 226.44 255.894C228.082 256.025 229.701 256.264 231.273 256.608C233.008 256.992 234.683 257.487 236.277 258.084C237.126 258.397 237.941 258.75 238.716 259.14C239.499 259.548 240.228 259.992 240.984 260.424C241.708 260.868 242.488 261.269 243.315 261.624C244.112 261.94 244.997 262.144 245.916 262.224C247.716 262.386 249.516 261.966 251.163 261.678C254.484 261.078 257.535 260.376 260.244 260.61C261.291 260.711 262.294 260.958 263.188 261.335C264.081 261.713 264.845 262.212 265.428 262.8C265.735 263.122 265.954 263.477 266.076 263.85C266.112 263.962 266.13 264.077 266.13 264.192Z" fill="#263238"/>
<path d="M266.13 264.192C265.979 263.7 265.689 263.232 265.275 262.812C264.775 262.336 264.143 261.929 263.412 261.612C262.45 261.178 261.35 260.899 260.199 260.796C257.616 260.592 254.61 261.318 251.28 261.918C249.633 262.212 247.833 262.656 245.88 262.518C244.893 262.433 243.943 262.212 243.09 261.87C242.241 261.517 241.44 261.116 240.696 260.67C237.981 258.95 234.72 257.658 231.156 256.89C229.616 256.541 228.027 256.296 226.413 256.158C225.01 256.023 223.586 256.023 222.183 256.158C221.036 256.274 219.932 256.53 218.925 256.914C218.171 257.205 217.488 257.572 216.9 258C216 258.75 215.667 259.26 215.613 259.236C215.892 258.761 216.281 258.317 216.765 257.922C217.326 257.451 218.001 257.045 218.763 256.722C219.79 256.303 220.931 256.022 222.12 255.894C223.552 255.752 225.008 255.752 226.44 255.894C228.082 256.025 229.701 256.264 231.273 256.608C233.008 256.992 234.683 257.487 236.277 258.084C237.126 258.397 237.941 258.75 238.716 259.14C239.499 259.548 240.228 259.992 240.984 260.424C241.708 260.868 242.488 261.269 243.315 261.624C244.112 261.94 244.997 262.144 245.916 262.224C247.716 262.386 249.516 261.966 251.163 261.678C254.484 261.078 257.535 260.376 260.244 260.61C261.291 260.711 262.294 260.958 263.188 261.335C264.081 261.713 264.845 262.212 265.428 262.8C265.735 263.122 265.954 263.477 266.076 263.85C266.112 263.962 266.13 264.077 266.13 264.192Z" fill="#263238"/>
<path d="M222.867 263.628C223.416 263.308 224.02 263.032 224.667 262.806C226.161 262.204 227.702 261.655 229.284 261.162C230.866 260.665 232.485 260.222 234.135 259.836C234.806 259.653 235.507 259.522 236.223 259.446C235.595 259.686 234.935 259.887 234.252 260.046C233.019 260.388 231.327 260.868 229.482 261.444C227.637 262.02 226.008 262.584 224.829 262.998C224.208 263.251 223.551 263.462 222.867 263.628Z" fill="#263238"/>
<path d="M224.1 265.956C226.297 265.075 228.572 264.283 230.913 263.586C233.188 262.797 235.532 262.1 237.933 261.498C235.736 262.379 233.461 263.171 231.12 263.868C228.847 264.66 226.502 265.357 224.1 265.956Z" fill="#263238"/>
<path d="M238.5 266.964C238.428 267.036 234.711 265.56 230.202 263.664C225.693 261.768 222.102 260.166 222.102 260.094C222.102 260.022 225.882 261.498 230.4 263.4C234.918 265.302 238.59 266.892 238.5 266.964Z" fill="#263238"/>
<path d="M240.606 264.552C239.97 264.319 239.368 264.048 238.806 263.742C237.717 263.214 236.205 262.488 234.513 261.708C232.821 260.928 231.282 260.238 230.157 259.74C229.516 259.497 228.913 259.211 228.357 258.888C229.042 259.063 229.697 259.286 230.31 259.554C231.48 260.004 233.073 260.67 234.81 261.45C236.547 262.23 237.996 262.992 239.04 263.568C239.621 263.851 240.147 264.182 240.606 264.552Z" fill="#263238"/>
</svg>
