<svg width="450" height="300" viewBox="0 0 450 300" fill="none" xmlns="http://www.w3.org/2000/svg">
<path d="M450 263.635H0V263.837H450V263.635Z" fill="#EBEBEB"/>
<path d="M66.303 271.301H47.214V271.503H66.303V271.301Z" fill="#EBEBEB"/>
<path d="M230.499 269.119H154.026V269.32H230.499V269.119Z" fill="#EBEBEB"/>
<path d="M95.202 278.782H60.903V278.983H95.202V278.782Z" fill="#EBEBEB"/>
<path d="M404.91 277.429H366.039V277.63H404.91V277.429Z" fill="#EBEBEB"/>
<path d="M363.096 277.429H352.323V277.63H363.096V277.429Z" fill="#EBEBEB"/>
<path d="M333.801 274.031H313.101V274.232H333.801V274.031Z" fill="#EBEBEB"/>
<path d="M302.697 274.031H259.101V274.232H302.697V274.031Z" fill="#EBEBEB"/>
<path d="M407.979 227.722H234.189C232.827 227.72 231.521 227.234 230.558 226.373C229.595 225.511 229.052 224.343 229.05 223.124V4.55766C229.064 3.34586 229.612 2.1879 230.574 1.33476C231.536 0.481621 232.835 0.00205198 234.189 0H407.979C409.331 0.00419087 410.627 0.484955 411.585 1.33809C412.544 2.19122 413.088 3.34799 413.1 4.55766V223.124C413.1 224.34 412.561 225.508 411.601 226.369C410.641 227.231 409.339 227.717 407.979 227.722V227.722ZM234.189 0.161049C232.886 0.163177 231.638 0.627072 230.717 1.45114C229.796 2.2752 229.277 3.39226 229.275 4.55766V223.124C229.277 224.289 229.796 225.406 230.717 226.23C231.638 227.054 232.886 227.518 234.189 227.52H407.979C409.282 227.518 410.53 227.054 411.451 226.23C412.372 225.406 412.891 224.289 412.893 223.124V4.55766C412.891 3.39226 412.372 2.2752 411.451 1.45114C410.53 0.627072 409.282 0.163177 407.979 0.161049H234.189Z" fill="#EBEBEB"/>
<path d="M391.896 263.635H277.011L266.814 93.6896H381.699L391.896 263.635Z" fill="#EBEBEB"/>
<path d="M395.406 263.635H280.521L270.324 93.6896H385.209L395.406 263.635Z" fill="#F5F5F5"/>
<path d="M337.788 246.105H327.528L327.942 111.22H338.202L337.788 246.105Z" fill="white"/>
<path d="M225 300C321.374 300 399.501 295.919 399.501 290.885C399.501 285.85 321.374 281.769 225 281.769C128.626 281.769 50.499 285.85 50.499 290.885C50.499 295.919 128.626 300 225 300Z" fill="#F5F5F5"/>
<path d="M348.097 192.529L346.934 211.488L347.833 211.532L348.996 192.573L348.097 192.529Z" fill="#0C9C94"/>
<path d="M349.09 176.446L348.491 186.215L349.389 186.259L349.988 176.49L349.09 176.446Z" fill="#0C9C94"/>
<path d="M330.12 247.627H224.622C223.026 247.645 221.443 247.367 219.973 246.811C218.503 246.255 217.177 245.434 216.079 244.398C214.98 243.362 214.133 242.135 213.589 240.792C213.046 239.449 212.819 238.02 212.922 236.596L225.072 38.41C225.298 35.4398 226.767 32.655 229.185 30.6105C231.604 28.5659 234.795 27.4118 238.122 27.3782H343.629C345.221 27.3676 346.798 27.6504 348.262 28.2089C349.726 28.7675 351.046 29.5899 352.14 30.6249C353.233 31.6598 354.077 32.8852 354.618 34.2246C355.159 35.564 355.385 36.9887 355.284 38.41L343.125 236.596C342.902 239.56 341.44 242.34 339.03 244.384C336.621 246.428 333.44 247.585 330.12 247.627V247.627Z" fill="#A6A9A8"/>
<path opacity="0.8" d="M323.739 247.627H224.622C223.026 247.645 221.443 247.367 219.973 246.811C218.503 246.255 217.177 245.434 216.079 244.398C214.98 243.362 214.133 242.134 213.589 240.792C213.046 239.449 212.819 238.02 212.922 236.595L225.072 38.4099C225.298 35.4397 226.767 32.6549 229.185 30.6103C231.604 28.5658 234.795 27.4117 238.122 27.3781H337.248C338.84 27.3663 340.418 27.6483 341.883 28.2064C343.347 28.7646 344.668 29.5869 345.762 30.6222C346.855 31.6574 347.699 32.8832 348.239 34.2232C348.78 35.5631 349.006 36.9883 348.903 38.4099L336.753 236.595C336.525 239.559 335.061 242.339 332.651 244.382C330.24 246.425 327.059 247.584 323.739 247.627V247.627Z" fill="#F5F5F5"/>
<path d="M274.617 63.3079H246.15C245.478 63.3125 244.812 63.193 244.193 62.9569C243.575 62.7207 243.018 62.373 242.557 61.9354C242.096 61.4978 241.74 60.9797 241.513 60.4137C241.286 59.8476 241.191 59.2457 241.236 58.6455V58.6455C241.331 57.3947 241.948 56.2216 242.965 55.3593C243.982 54.497 245.325 54.0086 246.726 53.9913H275.193C275.865 53.9855 276.531 54.104 277.149 54.3392C277.767 54.5745 278.325 54.9215 278.786 55.3584C279.247 55.7954 279.603 56.3129 279.83 56.8786C280.057 57.4442 280.152 58.0458 280.107 58.6455V58.6455C280.012 59.8971 279.395 61.0712 278.378 61.9348C277.362 62.7984 276.019 63.2885 274.617 63.3079Z" fill="white"/>
<path d="M280.107 58.6456C279.946 60.9033 278.835 63.0228 276.999 64.5778C275.162 66.1329 272.736 67.0083 270.207 67.0281C268.996 67.0406 267.795 66.8287 266.681 66.4058C265.566 65.9829 264.561 65.3581 263.729 64.5707C262.897 63.7833 262.256 62.8504 261.847 61.8307C261.438 60.811 261.269 59.7265 261.351 58.6456C261.512 56.3878 262.623 54.2684 264.46 52.7133C266.296 51.1583 268.723 50.2828 271.251 50.263C272.462 50.2505 273.663 50.4624 274.777 50.8853C275.892 51.3083 276.897 51.9331 277.729 52.7204C278.561 53.5078 279.202 54.4407 279.611 55.4604C280.02 56.4801 280.189 57.5646 280.107 58.6456V58.6456Z" fill="#0C9C94"/>
<path d="M272.79 93.1098H244.323C243.651 93.1145 242.985 92.995 242.366 92.7588C241.748 92.5226 241.191 92.1749 240.73 91.7373C240.269 91.2997 239.913 90.7817 239.686 90.2156C239.459 89.6496 239.364 89.0476 239.409 88.4475C239.504 87.1966 240.121 86.0235 241.138 85.1612C242.155 84.2989 243.498 83.8105 244.899 83.7932H273.366C274.038 83.7874 274.704 83.9059 275.322 84.1411C275.94 84.3764 276.498 84.7234 276.959 85.1604C277.42 85.5973 277.776 86.1149 278.003 86.6805C278.23 87.2461 278.325 87.8477 278.28 88.4475V88.4475C278.185 89.6991 277.568 90.8731 276.551 91.7367C275.535 92.6004 274.192 93.0905 272.79 93.1098V93.1098Z" fill="white"/>
<path d="M262.702 94.3131C266.514 90.995 266.758 85.6875 263.247 82.4583C259.736 79.2292 253.8 79.3012 249.987 82.6193C246.175 85.9374 245.931 91.2449 249.442 94.4741C252.953 97.7032 258.889 97.6312 262.702 94.3131Z" fill="#0C9C94"/>
<path opacity="0.3" d="M262.702 94.3131C266.514 90.995 266.758 85.6875 263.247 82.4583C259.736 79.2292 253.8 79.3012 249.987 82.6193C246.175 85.9374 245.931 91.2449 249.442 94.4741C252.953 97.7032 258.889 97.6312 262.702 94.3131Z" fill="#FAFAFA"/>
<path d="M240.669 152.714H269.1C270.502 152.694 271.845 152.204 272.861 151.341C273.878 150.477 274.495 149.303 274.59 148.051C274.635 147.451 274.54 146.849 274.312 146.282C274.084 145.716 273.728 145.198 273.266 144.761C272.804 144.324 272.245 143.977 271.626 143.743C271.007 143.508 270.34 143.39 269.667 143.397H241.245C239.843 143.414 238.499 143.902 237.481 144.764C236.462 145.627 235.843 146.8 235.746 148.051V148.051C235.703 148.652 235.798 149.254 236.027 149.82C236.255 150.386 236.611 150.904 237.073 151.341C237.535 151.779 238.093 152.127 238.711 152.363C239.33 152.599 239.996 152.718 240.669 152.714V152.714Z" fill="white"/>
<path d="M251.481 153.905C255.293 150.587 255.537 145.279 252.026 142.05C248.515 138.821 242.579 138.893 238.766 142.211C234.954 145.529 234.71 150.837 238.221 154.066C241.732 157.295 247.668 157.223 251.481 153.905Z" fill="#0C9C94"/>
<path opacity="0.7" d="M251.481 153.905C255.293 150.587 255.537 145.279 252.026 142.05C248.515 138.821 242.579 138.893 238.766 142.211C234.954 145.529 234.71 150.837 238.221 154.066C241.732 157.295 247.668 157.223 251.481 153.905Z" fill="#FAFAFA"/>
<path d="M267.3 182.516H238.842C238.169 182.52 237.503 182.401 236.884 182.165C236.266 181.928 235.708 181.581 235.246 181.143C234.784 180.706 234.428 180.188 234.2 179.622C233.971 179.056 233.876 178.454 233.919 177.853C234.016 176.602 234.635 175.428 235.654 174.566C236.672 173.704 238.016 173.216 239.418 173.199H267.876C268.549 173.192 269.215 173.31 269.835 173.544C270.454 173.779 271.012 174.126 271.475 174.563C271.937 175 272.293 175.518 272.521 176.084C272.749 176.651 272.844 177.253 272.799 177.853V177.853C272.704 179.106 272.086 180.281 271.067 181.145C270.048 182.009 268.704 182.498 267.3 182.516V182.516Z" fill="white"/>
<path d="M272.799 177.853C272.638 180.111 271.527 182.23 269.691 183.785C267.854 185.341 265.428 186.216 262.899 186.236C261.688 186.248 260.487 186.036 259.371 185.613C258.256 185.191 257.251 184.566 256.418 183.779C255.586 182.991 254.944 182.059 254.534 181.039C254.123 180.019 253.953 178.935 254.034 177.853C254.2 175.597 255.311 173.48 257.147 171.925C258.983 170.371 261.407 169.494 263.934 169.471C265.146 169.457 266.347 169.668 267.463 170.091C268.579 170.513 269.585 171.138 270.418 171.925C271.251 172.713 271.892 173.646 272.302 174.666C272.712 175.686 272.881 176.772 272.799 177.853V177.853Z" fill="#0C9C94"/>
<path d="M242.496 122.912H270.963C272.365 122.892 273.707 122.402 274.724 121.539C275.741 120.675 276.358 119.501 276.453 118.249V118.249C276.498 117.649 276.403 117.047 276.175 116.48C275.947 115.914 275.591 115.396 275.129 114.959C274.666 114.522 274.108 114.175 273.489 113.941C272.869 113.706 272.203 113.588 271.53 113.595H243.072C241.671 113.612 240.328 114.101 239.311 114.963C238.294 115.825 237.677 116.998 237.582 118.249V118.249C237.537 118.849 237.632 119.451 237.859 120.017C238.086 120.584 238.442 121.102 238.903 121.539C239.364 121.977 239.921 122.324 240.539 122.561C241.158 122.797 241.824 122.916 242.496 122.912V122.912Z" fill="white"/>
<path d="M237.6 118.249C237.518 119.33 237.687 120.415 238.096 121.435C238.505 122.454 239.146 123.387 239.978 124.174C240.81 124.962 241.815 125.587 242.93 126.01C244.044 126.433 245.245 126.644 246.456 126.632C248.985 126.612 251.411 125.737 253.248 124.182C255.084 122.627 256.195 120.507 256.356 118.249C256.438 117.168 256.269 116.084 255.86 115.064C255.451 114.044 254.81 113.112 253.978 112.324C253.146 111.537 252.141 110.912 251.026 110.489C249.912 110.066 248.711 109.854 247.5 109.867C244.972 109.887 242.545 110.762 240.709 112.317C238.872 113.872 237.761 115.992 237.6 118.249V118.249Z" fill="#0C9C94"/>
<path opacity="0.7" d="M237.6 118.249C237.518 119.33 237.687 120.415 238.096 121.435C238.505 122.454 239.146 123.387 239.978 124.174C240.81 124.962 241.815 125.587 242.93 126.01C244.044 126.433 245.245 126.644 246.456 126.632C248.985 126.612 251.411 125.737 253.248 124.182C255.084 122.627 256.195 120.507 256.356 118.249C256.438 117.168 256.269 116.084 255.86 115.064C255.451 114.044 254.81 113.112 253.978 112.324C253.146 111.537 252.141 110.912 251.026 110.489C249.912 110.066 248.711 109.854 247.5 109.867C244.972 109.887 242.545 110.762 240.709 112.317C238.872 113.872 237.761 115.992 237.6 118.249V118.249Z" fill="#FAFAFA"/>
<path d="M336.969 57.2525H294.777C294.508 57.253 294.243 57.2042 293.996 57.109C293.749 57.0138 293.527 56.8743 293.343 56.6992C293.159 56.524 293.017 56.317 292.927 56.0908C292.836 55.8646 292.798 55.6242 292.815 55.3844C292.853 54.8843 293.1 54.4155 293.507 54.0709C293.914 53.7263 294.451 53.5312 295.011 53.5243H337.203C337.471 53.5226 337.737 53.5705 337.984 53.6648C338.23 53.759 338.452 53.8978 338.636 54.0723C338.821 54.2468 338.962 54.4534 339.053 54.6791C339.144 54.9048 339.182 55.1449 339.165 55.3844V55.3844C339.129 55.8858 338.883 56.3567 338.476 56.7029C338.069 57.0492 337.531 57.2455 336.969 57.2525V57.2525Z" fill="white"/>
<path d="M322.911 63.7749H294.381C294.112 63.7765 293.845 63.7285 293.597 63.6338C293.349 63.5391 293.126 63.3998 292.941 63.2245C292.756 63.0493 292.614 62.8418 292.522 62.6151C292.431 62.3884 292.393 62.1473 292.41 61.9068C292.448 61.4067 292.695 60.9379 293.102 60.5933C293.509 60.2487 294.046 60.0536 294.606 60.0467H323.145C323.414 60.0451 323.68 60.0929 323.927 60.1871C324.174 60.2813 324.397 60.4199 324.581 60.5943C324.766 60.7687 324.909 60.9751 325.001 61.2009C325.093 61.4267 325.132 61.6669 325.116 61.9068C325.078 62.4089 324.83 62.8798 324.421 63.2259C324.013 63.572 323.474 63.768 322.911 63.7749V63.7749Z" fill="white"/>
<path d="M324.333 176.46H287.433C287.164 176.461 286.899 176.412 286.652 176.317C286.405 176.221 286.183 176.082 285.999 175.907C285.815 175.732 285.674 175.525 285.583 175.298C285.492 175.072 285.454 174.832 285.471 174.592C285.507 174.091 285.754 173.621 286.161 173.276C286.568 172.931 287.106 172.737 287.667 172.732H324.522C324.791 172.73 325.057 172.778 325.304 172.872C325.551 172.967 325.774 173.105 325.958 173.28C326.143 173.454 326.286 173.66 326.378 173.886C326.47 174.112 326.509 174.352 326.493 174.592C326.456 175.087 326.214 175.553 325.815 175.898C325.416 176.243 324.888 176.443 324.333 176.46V176.46Z" fill="white"/>
<path d="M305.289 182.975H287.1C286.831 182.976 286.565 182.928 286.318 182.834C286.071 182.74 285.848 182.601 285.664 182.427C285.479 182.253 285.336 182.046 285.244 181.82C285.152 181.595 285.113 181.354 285.129 181.114V181.114C285.167 180.614 285.415 180.146 285.821 179.801C286.228 179.456 286.765 179.261 287.325 179.254H305.541C305.81 179.253 306.076 179.301 306.323 179.395C306.57 179.489 306.793 179.628 306.977 179.802C307.162 179.976 307.305 180.183 307.397 180.409C307.489 180.634 307.528 180.875 307.512 181.114V181.114C307.473 181.619 307.222 182.091 306.81 182.436C306.397 182.781 305.854 182.974 305.289 182.975V182.975Z" fill="white"/>
<path d="M334.971 89.8485H292.779C292.219 89.8554 291.682 90.0505 291.275 90.3951C290.868 90.7397 290.621 91.2086 290.583 91.7086V91.7086C290.567 91.9485 290.606 92.1887 290.698 92.4145C290.79 92.6402 290.933 92.8467 291.118 93.0211C291.302 93.1954 291.525 93.334 291.772 93.4282C292.019 93.5224 292.285 93.5702 292.554 93.5687H334.746C335.306 93.5618 335.843 93.3667 336.25 93.0221C336.657 92.6775 336.904 92.2087 336.942 91.7086V91.7086C336.958 91.4688 336.919 91.2285 336.827 91.0028C336.735 90.777 336.592 90.5705 336.407 90.3962C336.223 90.2218 336 90.0832 335.753 89.989C335.506 89.8948 335.24 89.847 334.971 89.8485V89.8485Z" fill="white"/>
<path d="M321.714 83.3262H293.184C292.624 83.3331 292.087 83.5282 291.68 83.8728C291.274 84.2174 291.026 84.6862 290.988 85.1863V85.1863C290.971 85.4261 291.009 85.6666 291.1 85.8927C291.19 86.1189 291.332 86.326 291.516 86.5011C291.7 86.6762 291.922 86.8157 292.169 86.9109C292.416 87.0061 292.681 87.0549 292.95 87.0544H321.489C322.05 87.0455 322.587 86.8487 322.993 86.5028C323.4 86.1569 323.647 85.6871 323.685 85.1863C323.702 84.9461 323.664 84.7054 323.573 84.4791C323.481 84.2528 323.338 84.0459 323.153 83.8712C322.968 83.6966 322.745 83.5581 322.497 83.4643C322.25 83.3705 321.983 83.3235 321.714 83.3262Z" fill="white"/>
<path d="M312.768 116.856H291.168C290.899 116.857 290.634 116.808 290.387 116.713C290.14 116.618 289.918 116.478 289.734 116.303C289.55 116.128 289.408 115.921 289.318 115.695C289.227 115.468 289.189 115.228 289.206 114.988V114.988C289.242 114.488 289.489 114.018 289.896 113.673C290.303 113.328 290.841 113.133 291.402 113.128H313.002C313.273 113.123 313.542 113.169 313.792 113.261C314.042 113.354 314.269 113.492 314.456 113.667C314.644 113.842 314.789 114.049 314.883 114.277C314.976 114.504 315.016 114.746 315 114.988V114.988C314.961 115.495 314.709 115.969 314.295 116.316C313.881 116.662 313.335 116.856 312.768 116.856V116.856Z" fill="white"/>
<path d="M333.315 116.856H320.571C320.302 116.858 320.035 116.81 319.787 116.715C319.539 116.621 319.316 116.481 319.131 116.306C318.946 116.131 318.804 115.923 318.712 115.697C318.621 115.47 318.583 115.229 318.6 114.988V114.988C318.638 114.488 318.886 114.019 319.292 113.675C319.699 113.33 320.236 113.135 320.796 113.128H333.549C333.817 113.127 334.083 113.174 334.33 113.269C334.576 113.363 334.798 113.502 334.983 113.676C335.167 113.851 335.309 114.057 335.399 114.283C335.49 114.509 335.528 114.749 335.511 114.988V114.988C335.473 115.489 335.226 115.959 334.819 116.305C334.413 116.651 333.876 116.847 333.315 116.856V116.856Z" fill="white"/>
<path d="M319.257 123.371H290.7C290.431 123.372 290.165 123.324 289.918 123.23C289.671 123.136 289.448 122.997 289.264 122.823C289.079 122.649 288.936 122.442 288.844 122.216C288.752 121.991 288.713 121.75 288.729 121.511C288.767 121.011 289.014 120.542 289.421 120.197C289.828 119.853 290.365 119.657 290.925 119.651H319.5C319.769 119.649 320.035 119.697 320.282 119.791C320.529 119.885 320.752 120.024 320.936 120.198C321.121 120.373 321.264 120.579 321.356 120.805C321.448 121.031 321.487 121.271 321.471 121.511C321.432 122.013 321.183 122.485 320.772 122.83C320.362 123.175 319.82 123.368 319.257 123.371V123.371Z" fill="white"/>
<path d="M283.5 209.121H234.9C234.522 209.128 234.146 209.065 233.797 208.935C233.448 208.805 233.134 208.61 232.874 208.364C232.615 208.118 232.416 207.826 232.29 207.507C232.165 207.188 232.116 206.849 232.146 206.512V206.512C232.2 205.811 232.547 205.154 233.117 204.67C233.687 204.187 234.439 203.913 235.224 203.903H283.824C284.202 203.895 284.578 203.958 284.927 204.088C285.276 204.219 285.59 204.413 285.85 204.659C286.109 204.905 286.308 205.197 286.434 205.516C286.559 205.835 286.608 206.174 286.578 206.512C286.526 207.213 286.18 207.872 285.61 208.355C285.039 208.839 284.286 209.112 283.5 209.121V209.121Z" fill="white"/>
<path d="M326.826 209.121H297C296.622 209.128 296.246 209.065 295.897 208.935C295.548 208.805 295.234 208.61 294.974 208.364C294.715 208.118 294.516 207.826 294.39 207.507C294.265 207.188 294.216 206.849 294.246 206.512V206.512C294.3 205.811 294.646 205.154 295.217 204.67C295.787 204.187 296.539 203.913 297.324 203.903H327.15C327.528 203.895 327.904 203.958 328.253 204.088C328.602 204.219 328.916 204.413 329.176 204.659C329.435 204.905 329.634 205.197 329.76 205.516C329.885 205.835 329.934 206.174 329.904 206.512V206.512C329.85 207.213 329.504 207.87 328.933 208.353C328.363 208.836 327.611 209.11 326.826 209.121V209.121Z" fill="white"/>
<path d="M271.35 218.22H234.36C233.982 218.228 233.606 218.164 233.257 218.034C232.908 217.904 232.594 217.709 232.334 217.463C232.075 217.217 231.876 216.925 231.75 216.606C231.625 216.287 231.576 215.948 231.606 215.611V215.611C231.658 214.909 232.004 214.251 232.574 213.767C233.145 213.284 233.898 213.01 234.684 213.002H271.665C272.043 212.994 272.419 213.057 272.768 213.188C273.117 213.318 273.431 213.512 273.691 213.758C273.95 214.004 274.149 214.296 274.275 214.615C274.4 214.934 274.449 215.274 274.419 215.611V215.611C274.367 216.311 274.023 216.968 273.454 217.452C272.885 217.935 272.134 218.209 271.35 218.22Z" fill="white"/>
<path d="M311.517 227.367H233.802C233.424 227.375 233.048 227.312 232.699 227.182C232.351 227.051 232.036 226.857 231.776 226.611C231.517 226.365 231.318 226.073 231.192 225.754C231.067 225.435 231.018 225.096 231.048 224.758V224.758C231.1 224.058 231.444 223.401 232.013 222.918C232.582 222.434 233.333 222.16 234.117 222.15H311.832C312.21 222.142 312.586 222.205 312.935 222.335C313.284 222.466 313.598 222.66 313.858 222.906C314.117 223.152 314.316 223.444 314.442 223.763C314.567 224.082 314.616 224.421 314.586 224.758C314.534 225.459 314.19 226.116 313.621 226.599C313.052 227.083 312.301 227.357 311.517 227.367Z" fill="white"/>
<path d="M301.617 149.452H289.125C288.565 149.459 288.028 149.654 287.621 149.999C287.214 150.344 286.967 150.812 286.929 151.312V151.312C286.913 151.552 286.952 151.793 287.044 152.018C287.136 152.244 287.279 152.451 287.464 152.625C287.648 152.799 287.871 152.938 288.118 153.032C288.365 153.126 288.631 153.174 288.9 153.173H301.392C301.952 153.166 302.489 152.971 302.896 152.626C303.303 152.281 303.55 151.813 303.588 151.312C303.604 151.073 303.565 150.832 303.473 150.607C303.381 150.381 303.238 150.174 303.053 150C302.869 149.826 302.646 149.687 302.399 149.593C302.152 149.499 301.886 149.451 301.617 149.452V149.452Z" fill="white"/>
<path d="M323.901 149.452H309.42C308.86 149.459 308.323 149.654 307.916 149.999C307.509 150.344 307.262 150.813 307.224 151.313V151.313C307.208 151.552 307.247 151.793 307.339 152.018C307.431 152.244 307.574 152.451 307.759 152.625C307.943 152.799 308.166 152.938 308.413 153.032C308.66 153.126 308.926 153.174 309.195 153.173H323.676C324.236 153.166 324.773 152.971 325.18 152.626C325.587 152.281 325.834 151.813 325.872 151.313C325.889 151.072 325.851 150.832 325.76 150.605C325.668 150.379 325.525 150.172 325.34 149.998C325.155 149.823 324.932 149.684 324.684 149.591C324.437 149.497 324.17 149.45 323.901 149.452V149.452Z" fill="white"/>
<path d="M318.06 142.93H289.53C288.969 142.935 288.431 143.13 288.024 143.475C287.617 143.819 287.37 144.289 287.334 144.79C287.317 145.03 287.355 145.27 287.446 145.497C287.536 145.723 287.678 145.93 287.862 146.105C288.046 146.28 288.268 146.42 288.515 146.515C288.762 146.61 289.027 146.659 289.296 146.658H317.835C318.396 146.649 318.933 146.453 319.339 146.107C319.746 145.761 319.993 145.291 320.031 144.79V144.79C320.047 144.55 320.008 144.31 319.916 144.084C319.824 143.859 319.681 143.652 319.496 143.478C319.312 143.303 319.089 143.165 318.842 143.071C318.595 142.976 318.329 142.929 318.06 142.93V142.93Z" fill="white"/>
<path d="M160.2 95.123C157.257 97.3052 154.215 99.6807 151.416 102.064C150.012 103.264 148.644 104.48 147.375 105.736C146.145 106.917 145.016 108.179 144 109.513L143.829 109.738L143.748 109.867C143.674 109.969 143.611 110.077 143.559 110.189C143.433 110.439 143.316 110.753 143.19 111.083C142.95 111.815 142.764 112.56 142.632 113.313C142.351 114.995 142.171 116.688 142.092 118.386C141.903 121.865 141.903 125.497 141.975 129.048L137.763 129.611C136.708 125.968 135.986 122.255 135.603 118.507C135.402 116.561 135.351 114.605 135.45 112.653C135.522 111.598 135.672 110.549 135.9 109.513C136.026 108.928 136.197 108.352 136.413 107.789C136.548 107.475 136.647 107.185 136.827 106.855L137.079 106.372C137.169 106.227 137.232 106.139 137.304 106.01C138.406 104.228 139.693 102.543 141.147 100.977C142.495 99.474 143.928 98.0334 145.44 96.661C148.402 93.9477 151.565 91.4162 154.908 89.0837L160.2 95.123Z" fill="#F5CAC6"/>
<path d="M158.625 85.4682C154.017 87.8839 147.051 94.1648 147.051 94.1648L155.592 103.336C155.592 103.336 167.715 96.8301 169.191 93.2468C171.657 87.2156 162.981 83.1572 158.625 85.4682Z" fill="#0C9C94"/>
<path d="M141.786 127.687L142.83 133.138L137.169 132.406C137.169 132.406 136.008 128.701 138.969 127.429L141.786 127.687Z" fill="#F5CAC6"/>
<path d="M140.742 136.456L135.648 135.039L137.169 132.406L142.83 133.138L140.742 136.456Z" fill="#F5CAC6"/>
<path d="M192.888 66.2068C192.888 66.7624 193.23 67.2134 193.644 67.2214C194.058 67.2295 194.373 66.7785 194.364 66.231C194.355 65.6834 194.022 65.2245 193.608 65.2164C193.194 65.2083 192.879 65.6593 192.888 66.2068Z" fill="#202A2F"/>
<path d="M193.428 65.2244L194.931 64.862C194.931 64.862 194.175 65.9088 193.428 65.2244Z" fill="#202A2F"/>
<path d="M193.419 66.7545C193.998 68.0301 194.767 69.2301 195.705 70.3217C195.384 70.5181 195.018 70.65 194.635 70.7083C194.251 70.7667 193.858 70.7502 193.482 70.6599L193.419 66.7545Z" fill="#A02724"/>
<path d="M193.671 62.5269C193.612 62.5426 193.55 62.5426 193.491 62.5269C193.048 62.3821 192.572 62.3321 192.104 62.3811C191.635 62.43 191.185 62.5765 190.791 62.8087C190.753 62.8354 190.709 62.8549 190.662 62.8661C190.616 62.8773 190.567 62.88 190.519 62.874C190.471 62.8679 190.425 62.8534 190.384 62.8311C190.342 62.8088 190.306 62.7793 190.278 62.7443C190.22 62.6747 190.195 62.5875 190.209 62.5016C190.222 62.4157 190.273 62.338 190.35 62.2853C190.837 61.9951 191.393 61.8099 191.974 61.7442C192.555 61.6785 193.145 61.7342 193.698 61.9069C193.789 61.9345 193.865 61.9929 193.908 62.0696C193.952 62.1463 193.96 62.2353 193.932 62.3175C193.91 62.3683 193.875 62.4138 193.829 62.4502C193.784 62.4865 193.73 62.5128 193.671 62.5269V62.5269Z" fill="#202A2F"/>
<path d="M174.546 72.1172C174.96 76.2803 173.403 83.1007 169.893 85.4198C169.893 85.4198 172.539 89.8003 181.017 90.823C190.35 91.9422 185.967 87.2477 185.967 87.2477C181.008 85.5567 181.53 82.215 182.79 79.1953L174.546 72.1172Z" fill="#F5CAC6"/>
<path d="M191.115 90.4847C195.552 91.5638 200.214 92.6025 204.786 93.5285C207.09 93.9714 209.394 94.3338 211.698 94.7767C214.002 95.2196 216.315 95.5014 218.61 95.7671L219.51 95.8718L220.104 95.9282C220.518 95.9282 221.004 95.9282 221.454 95.9282C222.5 95.863 223.54 95.7365 224.568 95.5497C226.797 95.1381 228.999 94.6193 231.165 93.9956C235.602 92.7555 240.102 91.2578 244.503 89.7117L246.501 93.0696C242.353 95.4986 237.998 97.6336 233.478 99.4551C231.14 100.401 228.734 101.208 226.278 101.871C224.965 102.22 223.627 102.489 222.273 102.676C221.527 102.767 220.776 102.824 220.023 102.845H218.799L217.899 102.781C212.943 102.474 208.013 101.887 203.139 101.025C198.28 100.215 193.473 99.1725 188.739 97.901L191.115 90.4847Z" fill="#F5CAC6"/>
<path d="M243.333 91.0726L244.638 87.1189L249.435 88.7294C249.435 88.7294 248.337 94.672 244.224 93.0293L243.333 91.0726Z" fill="#F5CAC6"/>
<path d="M247.419 84.4938L252.315 84.985L249.435 88.7294L244.638 87.1189L247.419 84.4938Z" fill="#F5CAC6"/>
<path d="M160.776 283.34L168.489 283.847L170.784 268L163.071 267.493L160.776 283.34Z" fill="#F5CAC6"/>
<path d="M103.896 252.62L109.134 257.822L123.768 248.771L118.53 243.577L103.896 252.62Z" fill="#F5CAC6"/>
<path d="M113.013 260.769C112.92 260.78 112.827 260.78 112.734 260.769C111.834 260.495 111.159 258.941 110.862 258.039C110.852 258.008 110.853 257.976 110.863 257.945C110.874 257.915 110.895 257.888 110.923 257.868C110.951 257.848 110.985 257.836 111.021 257.834C111.056 257.831 111.092 257.838 111.123 257.854C111.402 257.983 113.886 259.191 113.967 260.076C113.976 260.173 113.956 260.269 113.911 260.357C113.865 260.444 113.794 260.52 113.706 260.576C113.506 260.708 113.262 260.777 113.013 260.769V260.769ZM111.348 258.297C111.798 259.488 112.347 260.27 112.851 260.415C112.96 260.442 113.076 260.444 113.186 260.42C113.297 260.396 113.398 260.347 113.481 260.278C113.521 260.254 113.554 260.222 113.576 260.184C113.598 260.146 113.609 260.103 113.607 260.06C113.562 259.593 112.329 258.804 111.348 258.297Z" fill="#0C9C94"/>
<path d="M113.31 258.619C112.487 258.604 111.679 258.425 110.943 258.095C110.916 258.08 110.894 258.058 110.878 258.033C110.862 258.008 110.854 257.979 110.853 257.95C110.852 257.921 110.861 257.893 110.879 257.868C110.897 257.844 110.922 257.825 110.952 257.814C111.024 257.773 112.932 256.831 113.985 257.153C114.122 257.192 114.248 257.258 114.354 257.346C114.46 257.433 114.543 257.541 114.597 257.661C114.669 257.775 114.694 257.909 114.668 258.038C114.642 258.168 114.566 258.285 114.453 258.369C114.114 258.565 113.711 258.653 113.31 258.619V258.619ZM111.438 257.95C112.338 258.281 113.814 258.434 114.219 258.128C114.282 258.071 114.354 257.991 114.219 257.789C114.185 257.712 114.133 257.643 114.067 257.586C114 257.529 113.92 257.486 113.832 257.459C112.997 257.401 112.161 257.572 111.438 257.95V257.95Z" fill="#0C9C94"/>
<path d="M111.483 257.057L107.163 250.196C107.092 250.077 106.975 249.986 106.835 249.939C106.694 249.891 106.539 249.891 106.398 249.938L100.017 252.129C99.8538 252.193 99.7079 252.289 99.5893 252.408C99.4706 252.527 99.3819 252.668 99.329 252.82C99.2762 252.973 99.2604 253.134 99.2828 253.292C99.3052 253.451 99.3653 253.603 99.459 253.739C101.016 256.106 101.889 257.177 103.788 260.181C104.958 262.033 106.758 266.083 108.144 268.749C109.53 271.414 112.464 270.359 112.149 269.151C111.091 265.609 110.943 261.898 111.717 258.297C111.804 257.872 111.721 257.433 111.483 257.057V257.057Z" fill="#202A2F"/>
<path d="M171.846 284.072C171.029 284.058 170.216 283.977 169.416 283.831C169.38 283.823 169.346 283.806 169.321 283.782C169.295 283.758 169.278 283.727 169.272 283.694C169.266 283.66 169.273 283.625 169.29 283.595C169.308 283.564 169.336 283.54 169.371 283.525C169.722 283.364 172.854 281.914 173.781 282.422C173.868 282.465 173.942 282.528 173.994 282.604C174.046 282.68 174.075 282.767 174.078 282.857C174.095 283.007 174.071 283.159 174.009 283.299C173.946 283.439 173.846 283.564 173.718 283.662C173.163 283.982 172.504 284.127 171.846 284.072V284.072ZM170.046 283.597C171.747 283.847 173.016 283.783 173.502 283.404C173.583 283.339 173.646 283.258 173.685 283.167C173.725 283.076 173.739 282.978 173.727 282.881C173.728 282.845 173.719 282.81 173.7 282.779C173.681 282.748 173.653 282.722 173.619 282.704C173.088 282.454 171.315 283.05 170.028 283.597H170.046Z" fill="#0C9C94"/>
<path d="M169.452 283.831C169.417 283.841 169.379 283.841 169.344 283.831C169.318 283.816 169.297 283.794 169.284 283.768C169.271 283.742 169.267 283.714 169.272 283.686C169.272 283.557 169.641 280.739 171.369 280.739H171.522C172.017 280.779 172.161 281.004 172.197 281.19C172.341 281.995 170.469 283.468 169.497 283.839C169.482 283.838 169.466 283.836 169.452 283.831V283.831ZM171.378 281.029C170.262 281.029 169.821 282.639 169.686 283.372C170.649 282.856 171.918 281.689 171.837 281.214C171.837 281.214 171.837 281.069 171.486 281.037L171.378 281.029Z" fill="#0C9C94"/>
<path d="M168.975 282.865H160.299C160.148 282.864 160.002 282.912 159.887 282.999C159.772 283.086 159.694 283.207 159.669 283.34L158.508 289.476C158.485 289.629 158.499 289.786 158.549 289.934C158.599 290.083 158.684 290.22 158.798 290.337C158.912 290.453 159.053 290.547 159.211 290.611C159.369 290.675 159.541 290.708 159.714 290.708C162.738 290.659 164.214 290.498 168.012 290.498C170.352 290.498 175.212 290.716 178.443 290.716C181.674 290.716 181.935 287.857 180.594 287.591C174.582 286.432 172.242 284.821 170.253 283.291C169.896 283.019 169.444 282.868 168.975 282.865V282.865Z" fill="#202A2F"/>
<path opacity="0.2" d="M170.784 268.008L169.506 276.817L161.883 275.674L163.062 267.493L170.784 268.008Z" fill="black"/>
<path opacity="0.2" d="M118.521 243.577L123.759 248.779L117.711 252.515L112.284 247.434L118.521 243.577Z" fill="black"/>
<path d="M156.888 127.011L188.1 130.763C200.205 91.5558 196.632 90.5009 196.632 90.5009C194.293 89.5209 191.888 88.6711 189.432 87.9564L189.009 87.8356C186.993 87.288 186.57 87.2156 183.879 86.668C179.262 85.9352 174.978 85.3716 169.686 84.9689C169.353 84.9689 169.011 84.9126 168.678 84.8965C167.724 84.8401 166.779 84.7998 165.861 84.7676C165.249 84.7676 164.628 84.7676 164.061 84.7676H161.019C160.417 84.7798 159.824 84.9041 159.279 85.1328C158.734 85.3614 158.248 85.6893 157.853 86.0955C157.457 86.5017 157.16 86.9773 156.982 87.4918C156.804 88.0063 156.747 88.5485 156.816 89.0837C159.489 109.674 158.643 116.462 156.888 127.011Z" fill="#0C9C94"/>
<path opacity="0.2" d="M189 99.3666C189.216 101.186 193.914 104.512 195.543 103.618C196.011 101.436 196.353 99.592 196.596 98.1104C194.238 97.9494 189.621 95.6222 189 99.3666Z" fill="black"/>
<path d="M183.933 90.1869C183.708 83.745 201.159 90.8391 205.164 92.4415L200.7 103.24C200.7 103.24 194.859 103.063 191.142 101.138C189.028 99.9828 187.264 98.3793 186.006 96.4693C184.749 94.5593 184.037 92.4016 183.933 90.1869V90.1869Z" fill="#0C9C94"/>
<path d="M171.9 64.4191C172.476 71.2315 172.557 74.1223 176.499 77.6653C182.412 82.988 191.727 81.1037 193.455 74.3316C195.012 68.236 193.806 58.1222 186.255 55.3199C184.634 54.6704 182.851 54.4102 181.084 54.5652C179.316 54.7202 177.624 55.2848 176.175 56.2035C174.725 57.1222 173.569 58.3632 172.819 59.8039C172.069 61.2447 171.753 62.8354 171.9 64.4191V64.4191Z" fill="#F5CAC6"/>
<path d="M172.566 57.2284C164.916 55.5133 164.673 61.2546 164.835 64.2823C164.997 67.31 159.372 68.7595 159.372 72.5522C159.372 77.4963 163.539 80.4435 153.405 81.9412C144.828 83.2055 142.182 92.7959 154.872 98.4084C168.921 104.609 190.116 95.8799 187.542 87.5779C183.6 74.7666 190.683 74.8068 189.9 67.6402C189.315 62.4383 194.823 62.1807 192.843 57.8404C190.233 52.1635 171.9 47.1791 172.566 57.2284Z" fill="#202A2F"/>
<path d="M163.71 66.835C162.657 61.8747 163.233 58.5893 165.42 57.0513C168.237 55.0624 172.566 56.7856 172.746 56.8581L172.377 57.5908C172.377 57.5908 168.354 55.9803 165.969 57.6794C164.07 59.0241 163.611 62.0518 164.592 66.682L163.71 66.835Z" fill="#202A2F"/>
<path d="M155.061 80.524C153.086 80.4683 151.135 80.1144 149.292 79.4772L149.625 78.7283C149.688 78.7283 155.754 80.8864 158.562 78.8008C159.93 77.7862 160.317 75.8858 159.723 73.1641L160.623 73.0111C161.289 76.063 160.794 78.2291 159.156 79.453C157.972 80.2253 156.524 80.604 155.061 80.524V80.524Z" fill="#202A2F"/>
<path d="M187.821 67.1651C187.748 68.4359 188.116 69.6958 188.874 70.7725C189.918 72.2944 191.331 72.0126 191.79 70.7242C192.249 69.4358 192.168 67.3664 190.755 66.2632C189.342 65.16 187.965 65.7559 187.821 67.1651Z" fill="#F5CAC6"/>
<path d="M179.883 129.772C179.883 129.772 167.751 175.671 162.081 201.994C156.105 229.799 120.681 252.483 120.681 252.483L112.905 245.324C112.905 245.324 135.711 227.464 141.57 201.503C153.459 148.808 145.413 138.195 156.87 127.01L179.883 129.772Z" fill="#202A2F"/>
<path d="M121.347 253.514L111.636 244.575L114.363 241.95L125.64 250.832L121.347 253.514Z" fill="#0C9C94"/>
<path opacity="0.2" d="M173.439 139.741C164.007 147.069 165.024 173.07 166.014 184.786C169.965 168.126 174.726 149.573 177.516 138.839C176.517 138.179 175.167 138.397 173.439 139.741Z" fill="black"/>
<path d="M187.668 130.787C187.668 130.787 193.122 185.245 190.143 206.021C187.047 227.625 171.243 274.635 171.243 274.635L160.2 273.355C160.2 273.355 169.2 226.764 170.847 205.376C172.593 182.024 164.826 128.073 164.826 128.073L187.668 130.787Z" fill="#202A2F"/>
<path d="M173.655 275.207L157.797 273.371L158.04 269.184L175.248 270.673L173.655 275.207Z" fill="#0C9C94"/>
<path d="M156.6 125.327L154.89 127.638C154.764 127.824 154.998 128.049 155.358 128.089L188.1 132.059C188.379 132.059 188.631 131.995 188.667 131.842L189.243 129.426C189.288 129.257 189.054 129.08 188.748 129.04L157.113 125.247C157.027 125.22 156.935 125.214 156.845 125.228C156.755 125.242 156.671 125.276 156.6 125.327V125.327Z" fill="#0C9C94"/>
<path opacity="0.3" d="M156.6 125.327L154.89 127.638C154.764 127.824 154.998 128.049 155.358 128.089L188.1 132.059C188.379 132.059 188.631 131.995 188.667 131.842L189.243 129.426C189.288 129.257 189.054 129.08 188.748 129.04L157.113 125.247C157.027 125.22 156.935 125.214 156.845 125.228C156.755 125.242 156.671 125.276 156.6 125.327V125.327Z" fill="black"/>
<path d="M160.488 128.975L159.642 128.879C159.471 128.879 159.354 128.766 159.381 128.669L160.155 125.489C160.155 125.4 160.335 125.344 160.506 125.36L161.352 125.464C161.523 125.464 161.64 125.577 161.622 125.666L160.839 128.846C160.821 128.943 160.659 128.999 160.488 128.975Z" fill="#202A2F"/>
<path d="M181.89 131.592L181.044 131.488C180.873 131.488 180.756 131.375 180.774 131.286L181.557 128.106C181.557 128.017 181.737 127.953 181.908 127.977L182.754 128.073C182.925 128.073 183.042 128.186 183.015 128.283L182.241 131.463C182.214 131.552 182.061 131.616 181.89 131.592Z" fill="#202A2F"/>
</svg>
